<?xml version="1.0" encoding="UTF-8" standalone="no"?>
<!-- Created with Inkscape (http://www.inkscape.org/) -->

<svg
   xmlns:dc="http://purl.org/dc/elements/1.1/"
   xmlns:cc="http://creativecommons.org/ns#"
   xmlns:rdf="http://www.w3.org/1999/02/22-rdf-syntax-ns#"
   xmlns:svg="http://www.w3.org/2000/svg"
   xmlns="http://www.w3.org/2000/svg"
   xmlns:inkscape="http://www.inkscape.org/namespaces/inkscape"
   version="1.1"
   width="4730"
   height="240"
   id="svg2"
   xml:space="preserve"><metadata
     id="metadata8"><rdf:RDF><cc:Work
         rdf:about=""><dc:format>image/svg+xml</dc:format><dc:type
           rdf:resource="http://purl.org/dc/dcmitype/StillImage" /></cc:Work></rdf:RDF></metadata><defs
     id="defs6" /><g
     transform="matrix(1.25,0,0,-1.25,0,240)"
     id="g10"><g
       transform="scale(0.257941,0.257941)"
       id="g12"><path
         d="m 13758.9,709.465 c 65.2,-111.078 9.4,-257.899 65.9,-372.18 l 46.6,34.891"
         inkscape:connector-curvature="0"
         id="path14"
         style="fill:none;stroke:#231f20;stroke-width:3.87684989;stroke-linecap:butt;stroke-linejoin:miter;stroke-miterlimit:10;stroke-opacity:1;stroke-dasharray:none" /><path
         d="m 13169.7,701.711 c 43.8,-78.027 40.9,-161.207 65.9,-244.242 19.3,2.093 38.7,3.148 58.1,-2.297 14.8,-4.211 28.2,-12.043 38.8,-23.442 7.7,-8.292 13.3,-18.148 17.3,-28.539 35.5,-94.605 -133.6,-110.257 -127.4,-7.753 1.5,21.015 8.2,41.683 13.2,62.031"
         inkscape:connector-curvature="0"
         id="path16"
         style="fill:none;stroke:#231f20;stroke-width:3.87684989;stroke-linecap:butt;stroke-linejoin:miter;stroke-miterlimit:10;stroke-opacity:1;stroke-dasharray:none" /><path
         d="m 7924.28,484.605 c -56.96,-37.144 -115.8,-47.277 -178.33,-69.781 -19.39,73.176 -15.51,210.719 89.16,205.473"
         inkscape:connector-curvature="0"
         id="path18"
         style="fill:none;stroke:#231f20;stroke-width:3.87684989;stroke-linecap:butt;stroke-linejoin:miter;stroke-miterlimit:10;stroke-opacity:1;stroke-dasharray:none" /><path
         d="m 10591.6,589.281 c 39.7,-45.992 44.1,-112.429 42.6,-170.582 l -112.4,-7.754"
         inkscape:connector-curvature="0"
         id="path20"
         style="fill:none;stroke:#231f20;stroke-width:3.87684989;stroke-linecap:butt;stroke-linejoin:miter;stroke-miterlimit:10;stroke-opacity:1;stroke-dasharray:none" /><path
         d="m 9347.09,391.562 65.9,-11.632 c -2.5,22.008 -3.88,43.789 -1.94,65.906 1.5,15.508 4.01,31.687 10.06,46.523 15.64,37.496 61.18,55.125 88.18,17.157 23.07,-32.664 15.77,-79.754 -13.55,-105.532 -19.79,-17.406 -46.97,-22.929 -71.12,-31.808 10.36,-62.028 42.65,-100.137 108.55,-96.918"
         inkscape:connector-curvature="0"
         id="path22"
         style="fill:none;stroke:#231f20;stroke-width:3.87684989;stroke-linecap:butt;stroke-linejoin:miter;stroke-miterlimit:10;stroke-opacity:1;stroke-dasharray:none" /><path
         d="m 13475.9,414.824 c -14.9,37.5 -6,74.559 31.4,95.055 28.8,15.734 85.6,15.816 101.4,-19.496 28.8,-64.66 -104.4,-49.848 -123.1,-77.246 -14.3,-20.949 6.9,-51.93 20.3,-67.465 40.5,-47.156 90.2,-47.156 144.5,-27.77"
         inkscape:connector-curvature="0"
         id="path24"
         style="fill:none;stroke:#231f20;stroke-width:3.87684989;stroke-linecap:butt;stroke-linejoin:miter;stroke-miterlimit:10;stroke-opacity:1;stroke-dasharray:none" /><path
         d="m 7959.17,255.871 c -25.85,75.133 -24.32,139.078 22.58,205.473 28.48,40.144 69.52,65.508 116.99,40.008 23.99,-12.868 43.49,-32.254 62.03,-51.637"
         inkscape:connector-curvature="0"
         id="path26"
         style="fill:none;stroke:#231f20;stroke-width:3.87684989;stroke-linecap:butt;stroke-linejoin:miter;stroke-miterlimit:10;stroke-opacity:1;stroke-dasharray:none" /><path
         d="m 14449,507.867 c 10.8,-29.988 28.5,-129.492 -27.7,-127.246 -31.3,1.25 -49.8,35.641 -80.8,36.899 -59.1,2.359 -131.8,-74.817 -156.9,20.566 -3.3,12.617 -4.7,25.668 -6,38.766"
         inkscape:connector-curvature="0"
         id="path28"
         style="fill:none;stroke:#231f20;stroke-width:3.87684989;stroke-linecap:butt;stroke-linejoin:miter;stroke-miterlimit:10;stroke-opacity:1;stroke-dasharray:none" /><path
         d="m 12650.2,333.41 c 15,52.297 -33.1,124.934 15.5,162.828"
         inkscape:connector-curvature="0"
         id="path30"
         style="fill:none;stroke:#231f20;stroke-width:3.87684989;stroke-linecap:butt;stroke-linejoin:miter;stroke-miterlimit:10;stroke-opacity:1;stroke-dasharray:none" /><path
         d="m 220.98,62.0312 c 25.887,2.754 52.321,3.875 77.536,10.5235 17.472,4.9805 34.894,11.9687 49.707,22.0508 10.945,7.3085 20.902,16.2185 28.625,26.9215 71.257,98.825 -106.106,144.219 -132.953,215.758 -29.141,77.539 55.71,171.586 132.16,135.692"
         inkscape:connector-curvature="0"
         id="path32"
         style="fill:none;stroke:#231f20;stroke-width:3.87684989;stroke-linecap:butt;stroke-linejoin:miter;stroke-miterlimit:10;stroke-opacity:1;stroke-dasharray:none" /><path
         d="m 14015.4,485.621 c 62.1,13.527 112.3,-129.734 34.3,-145.215 -72.8,-14.375 -99,131.117 -34.3,145.215"
         inkscape:connector-curvature="0"
         id="path34"
         style="fill:none;stroke:#231f20;stroke-width:3.87684989;stroke-linecap:butt;stroke-linejoin:miter;stroke-miterlimit:10;stroke-opacity:1;stroke-dasharray:none" /><path
         d="m 11700.3,488.484 c 34.4,-59.531 60.2,-167.691 -42.6,-162.828"
         inkscape:connector-curvature="0"
         id="path36"
         style="fill:none;stroke:#231f20;stroke-width:3.87684989;stroke-linecap:butt;stroke-linejoin:miter;stroke-miterlimit:10;stroke-opacity:1;stroke-dasharray:none" /><path
         d="m 9878.21,379.93 -27.14,-58.153 c -52.36,-4.238 -155.43,21.465 -112.42,96.922 24.76,43.391 73.66,58.946 120.18,65.906 l 3.88,-38.769"
         inkscape:connector-curvature="0"
         id="path38"
         style="fill:none;stroke:#231f20;stroke-width:3.87684989;stroke-linecap:butt;stroke-linejoin:miter;stroke-miterlimit:10;stroke-opacity:1;stroke-dasharray:none" /><path
         d="m 4020.29,472.977 c 60.85,-86.797 44.51,-206.504 38.77,-306.274"
         inkscape:connector-curvature="0"
         id="path40"
         style="fill:none;stroke:#231f20;stroke-width:3.87684989;stroke-linecap:butt;stroke-linejoin:miter;stroke-miterlimit:10;stroke-opacity:1;stroke-dasharray:none" /><path
         d="m 12394.3,376.055 c -17.9,-10.258 -35.4,-21.61 -54.3,-29.907 -12.2,-5.339 -25.3,-9.472 -38.8,-8.863 -38.7,1.656 -68.4,44.594 -50.9,80.746 24.5,50.672 117.5,73.09 139.2,8.09 5.3,-15.953 4.8,-33.473 4.8,-50.066"
         inkscape:connector-curvature="0"
         id="path42"
         style="fill:none;stroke:#231f20;stroke-width:3.87684989;stroke-linecap:butt;stroke-linejoin:miter;stroke-miterlimit:10;stroke-opacity:1;stroke-dasharray:none" /><path
         d="m 8257.69,426.453 c -16.46,-7.754 -31.01,-16.109 -40.49,-32.316 -7.25,-12.477 -10.55,-27.094 -11.77,-41.344 -2.52,-29.398 6.56,-60.508 33.93,-75.555 48.36,-26.586 102.13,14.821 85.5,67.801 -4.36,13.871 -12,26.621 -21.05,37.934 -13.25,16.343 -29.95,29.914 -46.12,43.48 l 38.77,38.77"
         inkscape:connector-curvature="0"
         id="path44"
         style="fill:none;stroke:#231f20;stroke-width:3.87684989;stroke-linecap:butt;stroke-linejoin:miter;stroke-miterlimit:10;stroke-opacity:1;stroke-dasharray:none" /><path
         d="m 8459.29,310.148 c -8.71,64.622 36.75,153.696 116.3,130.868 25.07,-7.282 41.96,-30.071 58.16,-49.454 37.57,23.262 77.53,67.762 124.05,69.782 78.6,3.879 98.81,-141.906 104.68,-197.719"
         inkscape:connector-curvature="0"
         id="path46"
         style="fill:none;stroke:#231f20;stroke-width:3.87684989;stroke-linecap:butt;stroke-linejoin:miter;stroke-miterlimit:10;stroke-opacity:1;stroke-dasharray:none" /><path
         d="m 11308.8,310.148 c 6.2,54.278 10.7,91.399 58.7,125.504 19.7,14.063 44.4,22.649 66,7.43 42,-29.469 34.2,-112.258 100.1,-90.289"
         inkscape:connector-curvature="0"
         id="path48"
         style="fill:none;stroke:#231f20;stroke-width:3.87684989;stroke-linecap:butt;stroke-linejoin:miter;stroke-miterlimit:10;stroke-opacity:1;stroke-dasharray:none" /><path
         d="m 4411.86,449.715 c 43.27,-59.309 34.89,-125.832 62.02,-189.965 l 69.79,0"
         inkscape:connector-curvature="0"
         id="path50"
         style="fill:none;stroke:#231f20;stroke-width:3.87684989;stroke-linecap:butt;stroke-linejoin:miter;stroke-miterlimit:10;stroke-opacity:1;stroke-dasharray:none" /><path
         d="m 10831.9,445.836 c 20.3,-61.207 15.1,-141.676 54.3,-193.84"
         inkscape:connector-curvature="0"
         id="path52"
         style="fill:none;stroke:#231f20;stroke-width:3.87684989;stroke-linecap:butt;stroke-linejoin:miter;stroke-miterlimit:10;stroke-opacity:1;stroke-dasharray:none" /><path
         d="M 5823.03,434.207 C 5863,331.773 5863.05,216.223 5846.29,108.551"
         inkscape:connector-curvature="0"
         id="path54"
         style="fill:none;stroke:#231f20;stroke-width:3.87684989;stroke-linecap:butt;stroke-linejoin:miter;stroke-miterlimit:10;stroke-opacity:1;stroke-dasharray:none" /><path
         d="m 7664.53,410.945 73.66,3.879"
         inkscape:connector-curvature="0"
         id="path56"
         style="fill:none;stroke:#231f20;stroke-width:3.87684989;stroke-linecap:butt;stroke-linejoin:miter;stroke-miterlimit:10;stroke-opacity:1;stroke-dasharray:none" /><path
         d="m 10622.6,283.012 15.5,131.812 81.4,-3.879"
         inkscape:connector-curvature="0"
         id="path58"
         style="fill:none;stroke:#231f20;stroke-width:3.87684989;stroke-linecap:butt;stroke-linejoin:miter;stroke-miterlimit:10;stroke-opacity:1;stroke-dasharray:none" /><path
         d="m 7745.95,410.945 73.66,-232.609"
         inkscape:connector-curvature="0"
         id="path60"
         style="fill:none;stroke:#231f20;stroke-width:3.87684989;stroke-linecap:butt;stroke-linejoin:miter;stroke-miterlimit:10;stroke-opacity:1;stroke-dasharray:none" /><path
         d="m 7141.16,186.09 c 11.63,-3.324 23.26,-6.621 34.89,-8.317 30.13,-4.222 69.38,5.446 50.4,43.207 -19.79,40.247 -59.66,67.114 -77.96,108.551 -26.15,59.239 20.95,75.887 62.45,38.77"
         inkscape:connector-curvature="0"
         id="path62"
         style="fill:none;stroke:#231f20;stroke-width:3.87684989;stroke-linecap:butt;stroke-linejoin:miter;stroke-miterlimit:10;stroke-opacity:1;stroke-dasharray:none" /><path
         d="m 11137.3,392.016 c 54.1,-0.454 106.3,-126.493 28,-125.184 -32,0.672 -65.5,24.352 -74.2,54.945 -8.5,30.282 11.5,70.559 46.2,70.239"
         inkscape:connector-curvature="0"
         id="path64"
         style="fill:none;stroke:#231f20;stroke-width:3.87684989;stroke-linecap:butt;stroke-linejoin:miter;stroke-miterlimit:10;stroke-opacity:1;stroke-dasharray:none" /><path
         d="m 10010,368.301 c 3.9,-10.125 7.8,-20.52 11.7,-30.512 31.5,-72.269 71.2,30.512 95.7,46.02 18,11.14 40.3,4.562 59.3,0"
         inkscape:connector-curvature="0"
         id="path66"
         style="fill:none;stroke:#231f20;stroke-width:3.87684989;stroke-linecap:butt;stroke-linejoin:miter;stroke-miterlimit:10;stroke-opacity:1;stroke-dasharray:none" /><path
         d="m 8633.75,387.684 0,-15.508 -3.88,-11.629"
         inkscape:connector-curvature="0"
         id="path68"
         style="fill:none;stroke:#231f20;stroke-width:3.87684989;stroke-linecap:butt;stroke-linejoin:miter;stroke-miterlimit:10;stroke-opacity:1;stroke-dasharray:none" /><path
         d="m 9412.99,379.93 11.63,-11.629"
         inkscape:connector-curvature="0"
         id="path70"
         style="fill:none;stroke:#231f20;stroke-width:3.87684989;stroke-linecap:butt;stroke-linejoin:miter;stroke-miterlimit:10;stroke-opacity:1;stroke-dasharray:none" /><path
         d="m 10386.1,329.531 c -8.9,-8.144 -17.7,-16.609 -27.7,-23.261 -5.8,-3.875 -11.9,-7.754 -18.8,-9.34 -64.6,-18.266 -16.1,118.574 34.8,56.871 6.1,-7.125 8.8,-15.676 11.7,-24.27 l 81.4,-54.273"
         inkscape:connector-curvature="0"
         id="path72"
         style="fill:none;stroke:#231f20;stroke-width:3.87684989;stroke-linecap:butt;stroke-linejoin:miter;stroke-miterlimit:10;stroke-opacity:1;stroke-dasharray:none" /><path
         d="m 12394.3,376.055 c 24.5,-23.782 46,-44.453 81.4,-46.524"
         inkscape:connector-curvature="0"
         id="path74"
         style="fill:none;stroke:#231f20;stroke-width:3.87684989;stroke-linecap:butt;stroke-linejoin:miter;stroke-miterlimit:10;stroke-opacity:1;stroke-dasharray:none" /><path
         d="m 6761.23,372.176 c -28.59,-27.727 -72.66,-53.805 -91.09,-89.688 -34.65,-67.449 49.47,-93.449 98.84,-92.523"
         inkscape:connector-curvature="0"
         id="path76"
         style="fill:none;stroke:#231f20;stroke-width:3.87684989;stroke-linecap:butt;stroke-linejoin:miter;stroke-miterlimit:10;stroke-opacity:1;stroke-dasharray:none" /><path
         d="m 3613.22,116.305 c 61.49,-22.3011 127.94,29.441 113.36,96.922 -8.27,38.769 -138.35,113.793 -59.08,144.164 8.79,3.156 18.04,5.066 27.14,7.035"
         inkscape:connector-curvature="0"
         id="path78"
         style="fill:none;stroke:#231f20;stroke-width:3.87684989;stroke-linecap:butt;stroke-linejoin:miter;stroke-miterlimit:10;stroke-opacity:1;stroke-dasharray:none" /><path
         d="m 3826.45,193.844 c -11.63,19.793 -20.13,38.765 -18.42,62.027 1.26,17.078 5.78,34.895 13.04,50.399 4.89,10.257 11.34,19.968 19.69,27.949 78.08,74.699 160.15,-89.086 55.47,-127.891 -22.11,-8.133 -46.85,-8.609 -69.78,-12.484"
         inkscape:connector-curvature="0"
         id="path80"
         style="fill:none;stroke:#231f20;stroke-width:3.87684989;stroke-linecap:butt;stroke-linejoin:miter;stroke-miterlimit:10;stroke-opacity:1;stroke-dasharray:none" /><path
         d="m 1500.34,337.285 c -4.55,-46.969 10.69,-92.574 9.9,-139.566 -0.31,-18.403 -3.61,-44.153 -24.22,-50.399 -27.63,-9.097 -67.63,11.977 -94.23,19.383 -8.24,-14.031 -16.11,-28.738 -27.14,-40.777 -28.97,-31.3518 -78.5,-35.5901 -99.23,6.531 -22.74,46.219 -17.08,104.527 -17.08,154.43"
         inkscape:connector-curvature="0"
         id="path82"
         style="fill:none;stroke:#231f20;stroke-width:3.87684989;stroke-linecap:butt;stroke-linejoin:miter;stroke-miterlimit:10;stroke-opacity:1;stroke-dasharray:none" /><path
         d="m 1725.2,213.227 c -13.88,4.812 -27.69,9.738 -38.31,20.378 -9.13,9.161 -14.85,21.215 -16.42,33.899 -14.19,116.305 195.13,58.152 99.83,-20.012 -14.56,-11.98 -30.37,-22.637 -45.1,-34.265 33.91,-43.407 76.59,-43.887 127.93,-38.77"
         inkscape:connector-curvature="0"
         id="path84"
         style="fill:none;stroke:#231f20;stroke-width:3.87684989;stroke-linecap:butt;stroke-linejoin:miter;stroke-miterlimit:10;stroke-opacity:1;stroke-dasharray:none" /><path
         d="m 6958.95,333.41 c 6.14,-49.414 -4.67,-75.101 -50.4,-96.922"
         inkscape:connector-curvature="0"
         id="path86"
         style="fill:none;stroke:#231f20;stroke-width:3.87684989;stroke-linecap:butt;stroke-linejoin:miter;stroke-miterlimit:10;stroke-opacity:1;stroke-dasharray:none" /><path
         d="m 4954.61,93.043 c 13.02,2.8125 26.34,5.3437 38.77,10.789 8.46,3.852 16.51,9.004 23.26,15.922 56.4,59.855 -58.15,68.289 -72.17,109.902 -23.06,67.895 99.31,89.883 141.96,84.367"
         inkscape:connector-curvature="0"
         id="path88"
         style="fill:none;stroke:#231f20;stroke-width:3.87684989;stroke-linecap:butt;stroke-linejoin:miter;stroke-miterlimit:10;stroke-opacity:1;stroke-dasharray:none" /><path
         d="M 9854.95,317.902 9847.2,213.227"
         inkscape:connector-curvature="0"
         id="path90"
         style="fill:none;stroke:#231f20;stroke-width:3.87684989;stroke-linecap:butt;stroke-linejoin:miter;stroke-miterlimit:10;stroke-opacity:1;stroke-dasharray:none" /><path
         d="m 2539.34,139.566 c -25.77,-13.808 -52.43,-29.074 -81.42,-34.89 -67.8,-13.3401 -117.12,43.64 -97.58,108.551 19.42,64.507 83.81,101.621 147.98,89.168"
         inkscape:connector-curvature="0"
         id="path92"
         style="fill:none;stroke:#231f20;stroke-width:3.87684989;stroke-linecap:butt;stroke-linejoin:miter;stroke-miterlimit:10;stroke-opacity:1;stroke-dasharray:none" /><path
         d="m 6327.02,186.09 c 3.87,52.617 72.29,152.758 133.55,106.601 35.33,-26.625 37.67,-78.285 44.79,-118.234"
         inkscape:connector-curvature="0"
         id="path94"
         style="fill:none;stroke:#231f20;stroke-width:3.87684989;stroke-linecap:butt;stroke-linejoin:miter;stroke-miterlimit:10;stroke-opacity:1;stroke-dasharray:none" /><path
         d="m 4225.77,286.887 23.26,-112.43"
         inkscape:connector-curvature="0"
         id="path96"
         style="fill:none;stroke:#231f20;stroke-width:3.87684989;stroke-linecap:butt;stroke-linejoin:miter;stroke-miterlimit:10;stroke-opacity:1;stroke-dasharray:none" /><path
         d="M 600.91,279.941 C 696.938,287.898 817.66,185.082 730.754,94.6094 719.016,82.3906 705.066,72.3633 690.078,64.5469 671.965,55.1211 652.258,49.1641 631.926,47.3203 513.383,36.5898 487.102,270.504 600.91,279.941"
         inkscape:connector-curvature="0"
         id="path98"
         style="fill:none;stroke:#231f20;stroke-width:3.87684989;stroke-linecap:butt;stroke-linejoin:miter;stroke-miterlimit:10;stroke-opacity:1;stroke-dasharray:none" /><path
         d="m 6133.18,283.012 c -21.48,-14.75 -46.53,-29.766 -56.91,-54.735 -21.4,-49.941 19.9,-97.382 68.54,-100.339"
         inkscape:connector-curvature="0"
         id="path100"
         style="fill:none;stroke:#231f20;stroke-width:3.87684989;stroke-linecap:butt;stroke-linejoin:miter;stroke-miterlimit:10;stroke-opacity:1;stroke-dasharray:none" /><path
         d="m 2907.64,104.676 c 3.88,49.164 46.52,102.222 78.61,138.551 14.43,16.523 33.82,32.031 57.08,26.543 71.95,-17.012 90.02,-111.661 93.04,-172.8481"
         inkscape:connector-curvature="0"
         id="path102"
         style="fill:none;stroke:#231f20;stroke-width:3.87684989;stroke-linecap:butt;stroke-linejoin:miter;stroke-miterlimit:10;stroke-opacity:1;stroke-dasharray:none" /><path
         d="m 5536.14,151.195 c -1.87,42.305 32.95,160.907 98.21,114.055 24.44,-17.547 30.54,-55.898 37.48,-83.039"
         inkscape:connector-curvature="0"
         id="path104"
         style="fill:none;stroke:#231f20;stroke-width:3.87684989;stroke-linecap:butt;stroke-linejoin:miter;stroke-miterlimit:10;stroke-opacity:1;stroke-dasharray:none" /><path
         d="m 5241.5,193.844 c 3.88,14.98 7.75,29.051 17.18,41.57 15.59,20.457 46.92,41.211 74.02,32.09 38,-12.117 7.03,-53.742 -14.25,-64.797 -10.64,-5.527 -22.67,-8.863 -34.31,-10.359 -15.5,-2.383 -31.01,-0.532 -46.52,1.496 -39.27,-92.629 58.96,-128.3206 131.82,-112.4299"
         inkscape:connector-curvature="0"
         id="path106"
         style="fill:none;stroke:#231f20;stroke-width:3.87684989;stroke-linecap:butt;stroke-linejoin:miter;stroke-miterlimit:10;stroke-opacity:1;stroke-dasharray:none" /><path
         d="m 4342.07,255.871 116.31,11.633"
         inkscape:connector-curvature="0"
         id="path108"
         style="fill:none;stroke:#231f20;stroke-width:3.87684989;stroke-linecap:butt;stroke-linejoin:miter;stroke-miterlimit:10;stroke-opacity:1;stroke-dasharray:none" /><path
         d="m 2771.95,255.871 c 0,-31.492 4.39,-73.66 -11.13,-102.152 -18.59,-34.227 -94.48,-75.7815 -125.92,-37.824 -19.61,23.671 -9.66,58.562 6.83,80.734 33.3,44.836 83.7,65.301 137.97,63.121"
         inkscape:connector-curvature="0"
         id="path110"
         style="fill:none;stroke:#231f20;stroke-width:3.87684989;stroke-linecap:butt;stroke-linejoin:miter;stroke-miterlimit:10;stroke-opacity:1;stroke-dasharray:none" /><path
         d="m 6958.95,263.625 c 19.75,-27.52 34.89,-50.398 69.78,-58.152"
         inkscape:connector-curvature="0"
         id="path112"
         style="fill:none;stroke:#231f20;stroke-width:3.87684989;stroke-linecap:butt;stroke-linejoin:miter;stroke-miterlimit:10;stroke-opacity:1;stroke-dasharray:none" /><path
         d="M 4473.88,259.75 4462.25,100.797"
         inkscape:connector-curvature="0"
         id="path114"
         style="fill:none;stroke:#231f20;stroke-width:3.87684989;stroke-linecap:butt;stroke-linejoin:miter;stroke-miterlimit:10;stroke-opacity:1;stroke-dasharray:none" /><path
         d="m 5861.8,248.117 27.13,3.879"
         inkscape:connector-curvature="0"
         id="path116"
         style="fill:none;stroke:#231f20;stroke-width:3.87684989;stroke-linecap:butt;stroke-linejoin:miter;stroke-miterlimit:10;stroke-opacity:1;stroke-dasharray:none" /><path
         d="m 5764.88,232.609 93.04,11.633"
         inkscape:connector-curvature="0"
         id="path118"
         style="fill:none;stroke:#231f20;stroke-width:3.87684989;stroke-linecap:butt;stroke-linejoin:miter;stroke-miterlimit:10;stroke-opacity:1;stroke-dasharray:none" /><path
         d="m 2868.87,193.844 38.77,-54.278"
         inkscape:connector-curvature="0"
         id="path120"
         style="fill:none;stroke:#231f20;stroke-width:3.87684989;stroke-linecap:butt;stroke-linejoin:miter;stroke-miterlimit:10;stroke-opacity:1;stroke-dasharray:none" /><path
         d="m 3826.45,193.844 c 8.35,-62.032 41.03,-107.2737 65.91,-162.8284"
         inkscape:connector-curvature="0"
         id="path122"
         style="fill:none;stroke:#231f20;stroke-width:3.87684989;stroke-linecap:butt;stroke-linejoin:miter;stroke-miterlimit:10;stroke-opacity:1;stroke-dasharray:none" /><path
         d="m 5171.72,170.582 50.4,0"
         inkscape:connector-curvature="0"
         id="path124"
         style="fill:none;stroke:#231f20;stroke-width:3.87684989;stroke-linecap:butt;stroke-linejoin:miter;stroke-miterlimit:10;stroke-opacity:1;stroke-dasharray:none" /></g></g></svg>