<?xml version="1.0" encoding="UTF-8" standalone="no"?>
<!-- Created with Inkscape (http://www.inkscape.org/) -->

<svg
   xmlns:dc="http://purl.org/dc/elements/1.1/"
   xmlns:cc="http://creativecommons.org/ns#"
   xmlns:rdf="http://www.w3.org/1999/02/22-rdf-syntax-ns#"
   xmlns:svg="http://www.w3.org/2000/svg"
   xmlns="http://www.w3.org/2000/svg"
   xmlns:inkscape="http://www.inkscape.org/namespaces/inkscape"
   version="1.1"
   width="4400"
   height="233.75"
   id="svg2"
   xml:space="preserve"><metadata
     id="metadata8"><rdf:RDF><cc:Work
         rdf:about=""><dc:format>image/svg+xml</dc:format><dc:type
           rdf:resource="http://purl.org/dc/dcmitype/StillImage" /></cc:Work></rdf:RDF></metadata><defs
     id="defs6" /><g
     transform="matrix(1.25,0,0,-1.25,0,233.75)"
     id="g10"><g
       transform="scale(0.239945,0.239945)"
       id="g12"><path
         d="m 12665.4,766.84 25.4,-112.524 7.9,-300.07"
         inkscape:connector-curvature="0"
         id="path14"
         style="fill:none;stroke:#231f20;stroke-width:4.16761017;stroke-linecap:butt;stroke-linejoin:miter;stroke-miterlimit:10;stroke-opacity:1;stroke-dasharray:none" /><path
         d="M 600.137,33.3398 597.75,237.555 559.898,333.41 516.785,670.984 679.32,700.16"
         inkscape:connector-curvature="0"
         id="path16"
         style="fill:none;stroke:#231f20;stroke-width:4.16761017;stroke-linecap:butt;stroke-linejoin:miter;stroke-miterlimit:10;stroke-opacity:1;stroke-dasharray:none" /><path
         d="m 12048.6,691.824 54.8,-100.023 32.7,-158.367 c 34.9,22.558 76.7,68.265 120.9,68.644 75.7,0.649 76.6,-154.816 87.5,-206.176"
         inkscape:connector-curvature="0"
         id="path18"
         style="fill:none;stroke:#231f20;stroke-width:4.16761017;stroke-linecap:butt;stroke-linejoin:miter;stroke-miterlimit:10;stroke-opacity:1;stroke-dasharray:none" /><path
         d="m 9602.18,500.113 c -47.95,-27.418 -100.02,-35.992 -154.2,-43.613 -18.84,-2.656 -47.76,-10.566 -63.2,4.691 -17.94,18.086 -12.35,57.829 -10.33,80.598 8.47,95.246 64.32,142.582 156.88,137.531"
         inkscape:connector-curvature="0"
         id="path20"
         style="fill:none;stroke:#231f20;stroke-width:4.16761017;stroke-linecap:butt;stroke-linejoin:miter;stroke-miterlimit:10;stroke-opacity:1;stroke-dasharray:none" /><path
         d="m 229.219,666.816 c 93.258,-24.644 192.586,29.176 287.566,0"
         inkscape:connector-curvature="0"
         id="path22"
         style="fill:none;stroke:#231f20;stroke-width:4.16761017;stroke-linecap:butt;stroke-linejoin:miter;stroke-miterlimit:10;stroke-opacity:1;stroke-dasharray:none" /><path
         d="m 8852.01,670.984 c 27.4,-65.191 19.17,-135.726 29.17,-204.211 l -183.37,8.336"
         inkscape:connector-curvature="0"
         id="path24"
         style="fill:none;stroke:#231f20;stroke-width:4.16761017;stroke-linecap:butt;stroke-linejoin:miter;stroke-miterlimit:10;stroke-opacity:1;stroke-dasharray:none" /><path
         d="m 921.043,666.816 28.41,-229.218 34.106,-141.696 c 38.081,20.836 64.011,66.68 108.351,75.016 98.07,18.012 84.62,-140.008 70.86,-195.879"
         inkscape:connector-curvature="0"
         id="path26"
         style="fill:none;stroke:#231f20;stroke-width:4.16761017;stroke-linecap:butt;stroke-linejoin:miter;stroke-miterlimit:10;stroke-opacity:1;stroke-dasharray:none" /><path
         d="m 13565.6,458.438 c -12.5,25.003 -15.7,47.171 -12.5,75.015 2.2,18.121 5.1,36.344 9.1,54.18 32.6,144.308 192.8,-73.078 69.7,-122.145 -20.8,-8.304 -44.3,-7.05 -66.3,-7.05 -14.2,-97.958 20.3,-201.083 54.2,-291.735"
         inkscape:connector-curvature="0"
         id="path28"
         style="fill:none;stroke:#231f20;stroke-width:4.16761017;stroke-linecap:butt;stroke-linejoin:miter;stroke-miterlimit:10;stroke-opacity:1;stroke-dasharray:none" /><path
         d="m 4988.63,629.309 c 45.07,-72.555 37.51,-150.032 58.35,-229.219 l 45.84,0"
         inkscape:connector-curvature="0"
         id="path30"
         style="fill:none;stroke:#231f20;stroke-width:4.16761017;stroke-linecap:butt;stroke-linejoin:miter;stroke-miterlimit:10;stroke-opacity:1;stroke-dasharray:none" /><path
         d="m 9981.43,612.641 c 49.97,-92.536 21.57,-204.215 24.97,-304.239"
         inkscape:connector-curvature="0"
         id="path32"
         style="fill:none;stroke:#231f20;stroke-width:4.16761017;stroke-linecap:butt;stroke-linejoin:miter;stroke-miterlimit:10;stroke-opacity:1;stroke-dasharray:none" /><path
         d="m 9810.56,600.137 c 32.79,-97.438 4.55,-196.426 4.17,-295.903"
         inkscape:connector-curvature="0"
         id="path34"
         style="fill:none;stroke:#231f20;stroke-width:4.16761017;stroke-linecap:butt;stroke-linejoin:miter;stroke-miterlimit:10;stroke-opacity:1;stroke-dasharray:none" /><path
         d="m 10631.6,595.969 c 17.2,-63.11 17.7,-135.414 8.3,-200.047 l 8.4,-166.703"
         inkscape:connector-curvature="0"
         id="path36"
         style="fill:none;stroke:#231f20;stroke-width:4.16761017;stroke-linecap:butt;stroke-linejoin:miter;stroke-miterlimit:10;stroke-opacity:1;stroke-dasharray:none" /><path
         d="m 2233.84,587.633 37.51,-37.508"
         inkscape:connector-curvature="0"
         id="path38"
         style="fill:none;stroke:#231f20;stroke-width:4.16761017;stroke-linecap:butt;stroke-linejoin:miter;stroke-miterlimit:10;stroke-opacity:1;stroke-dasharray:none" /><path
         d="m 10764.9,587.633 c 40.8,-58.348 40,-127.965 50.1,-195.879 26.8,9.84 61.3,35.719 90.7,30.914 65.8,-10.762 63.5,-136.898 63.5,-185.113"
         inkscape:connector-curvature="0"
         id="path40"
         style="fill:none;stroke:#231f20;stroke-width:4.16761017;stroke-linecap:butt;stroke-linejoin:miter;stroke-miterlimit:10;stroke-opacity:1;stroke-dasharray:none" /><path
         d="M 7122.45,579.297 7180.8,279.23"
         inkscape:connector-curvature="0"
         id="path42"
         style="fill:none;stroke:#231f20;stroke-width:4.16761017;stroke-linecap:butt;stroke-linejoin:miter;stroke-miterlimit:10;stroke-opacity:1;stroke-dasharray:none" /><path
         d="m 13903.2,479.277 c -15.3,-6.507 -30.4,-13.55 -45.9,-19.16 -9.3,-3.301 -18.8,-6.265 -28.6,-6.676 -29.7,-1.269 -41.8,25.215 -30.3,50.84 18.7,41.676 115,89.067 115,12.504 0.1,-12.504 -3.1,-25.008 -6.1,-37.508 l 20.9,-58.347"
         inkscape:connector-curvature="0"
         id="path44"
         style="fill:none;stroke:#231f20;stroke-width:4.16761017;stroke-linecap:butt;stroke-linejoin:miter;stroke-miterlimit:10;stroke-opacity:1;stroke-dasharray:none" /><path
         d="m 14136.5,545.957 c -28.4,-17.523 -77.3,-36.426 -81.7,-74.652 -3.9,-34.418 43.3,-50.375 58.8,-76.254 32.7,-54.551 30.9,-144.992 -3,-198.668 -62.4,-98.801 -163.5,-1.473 -140.8,87.015"
         inkscape:connector-curvature="0"
         id="path46"
         style="fill:none;stroke:#231f20;stroke-width:4.16761017;stroke-linecap:butt;stroke-linejoin:miter;stroke-miterlimit:10;stroke-opacity:1;stroke-dasharray:none" /><path
         d="m 12457,525.121 c 26.9,-7.422 48.3,-22.195 71.6,-37.512 18.2,-11.484 34.5,-25.004 47.8,-42.082 9.8,-12.093 17.7,-26.293 22.3,-41.269 31.6,-98.012 -129.8,-109.68 -139,-12.504 -1.3,14.285 1.5,28.543 6.9,41.68 9.5,22.824 25.9,42.675 40.4,62.511"
         inkscape:connector-curvature="0"
         id="path48"
         style="fill:none;stroke:#231f20;stroke-width:4.16761017;stroke-linecap:butt;stroke-linejoin:miter;stroke-miterlimit:10;stroke-opacity:1;stroke-dasharray:none" /><path
         d="m 14278.2,412.594 c -2.5,55.367 58.8,123.344 118.4,91.687 33.4,-17.289 3.2,-45.843 -18.3,-54.918 -12.5,-5.015 -25,-8.859 -37.5,-13.383 -20.9,-7.652 -41.7,-15.488 -62.6,-23.386"
         inkscape:connector-curvature="0"
         id="path50"
         style="fill:none;stroke:#231f20;stroke-width:4.16761017;stroke-linecap:butt;stroke-linejoin:miter;stroke-miterlimit:10;stroke-opacity:1;stroke-dasharray:none" /><path
         d="m 11998.6,504.281 c -14.4,-38.422 -9.8,-83.734 -29.2,-120.011 -29.2,-56.645 -160.6,-119.688 -203.8,-49.993 -26.3,42.391 -17.1,105.387 -25.4,153.332"
         inkscape:connector-curvature="0"
         id="path52"
         style="fill:none;stroke:#231f20;stroke-width:4.16761017;stroke-linecap:butt;stroke-linejoin:miter;stroke-miterlimit:10;stroke-opacity:1;stroke-dasharray:none" /><path
         d="m 12902.9,408.426 c -2.2,12.504 -4.1,25.008 -1.8,37.508 13.3,76.574 95.6,32.421 33.8,-18.153 -9.7,-7.922 -21,-13.547 -32,-19.355"
         inkscape:connector-curvature="0"
         id="path54"
         style="fill:none;stroke:#231f20;stroke-width:4.16761017;stroke-linecap:butt;stroke-linejoin:miter;stroke-miterlimit:10;stroke-opacity:1;stroke-dasharray:none" /><path
         d="m 1366.98,491.777 25,-16.668"
         inkscape:connector-curvature="0"
         id="path56"
         style="fill:none;stroke:#231f20;stroke-width:4.16761017;stroke-linecap:butt;stroke-linejoin:miter;stroke-miterlimit:10;stroke-opacity:1;stroke-dasharray:none" /><path
         d="m 11277.6,480.547 c 34.1,7.891 56.5,-23.852 49.1,-55.449 -6.5,-27.633 -30.5,-46.403 -57.5,-52.653 -82,-19.011 -47.6,95.207 8.4,108.102"
         inkscape:connector-curvature="0"
         id="path58"
         style="fill:none;stroke:#231f20;stroke-width:4.16761017;stroke-linecap:butt;stroke-linejoin:miter;stroke-miterlimit:10;stroke-opacity:1;stroke-dasharray:none" /><path
         d="m 6051.38,200.047 c -180.43,16.668 -63.74,311.183 70.84,241.719"
         inkscape:connector-curvature="0"
         id="path60"
         style="fill:none;stroke:#231f20;stroke-width:4.16761017;stroke-linecap:butt;stroke-linejoin:miter;stroke-miterlimit:10;stroke-opacity:1;stroke-dasharray:none" /><path
         d="m 7905.96,291.734 c 0,29.172 -4.16,62.887 6.93,90.547 22.64,56.617 89.47,107.008 133.67,42.016 27.8,-40.875 31.03,-93.66 21.94,-140.899"
         inkscape:connector-curvature="0"
         id="path62"
         style="fill:none;stroke:#231f20;stroke-width:4.16761017;stroke-linecap:butt;stroke-linejoin:miter;stroke-miterlimit:10;stroke-opacity:1;stroke-dasharray:none" /><path
         d="m 8872.85,287.566 8.33,166.704 37.52,4.168"
         inkscape:connector-curvature="0"
         id="path64"
         style="fill:none;stroke:#231f20;stroke-width:4.16761017;stroke-linecap:butt;stroke-linejoin:miter;stroke-miterlimit:10;stroke-opacity:1;stroke-dasharray:none" /><path
         d="m 5213.68,370.918 c 9.56,39.945 77.71,119.02 122.27,68.941 35.16,-39.769 -46.57,-68.941 -72.25,-73.109 -18.28,-3.203 -35.85,-2.387 -54.18,0 -27.91,-60.168 7.3,-139.773 79.18,-137.531"
         inkscape:connector-curvature="0"
         id="path66"
         style="fill:none;stroke:#231f20;stroke-width:4.16761017;stroke-linecap:butt;stroke-linejoin:miter;stroke-miterlimit:10;stroke-opacity:1;stroke-dasharray:none" /><path
         d="m 7730.92,250.059 c -4.66,65.546 -12.03,119.343 37.51,169.816 16.22,16.551 37.51,32.91 62.52,26.551 29.97,-7.821 52.6,-42.899 75.01,-63.004"
         inkscape:connector-curvature="0"
         id="path68"
         style="fill:none;stroke:#231f20;stroke-width:4.16761017;stroke-linecap:butt;stroke-linejoin:miter;stroke-miterlimit:10;stroke-opacity:1;stroke-dasharray:none" /><path
         d="m 6418.12,212.547 c -60.16,-11.074 -123.33,-5.356 -175.03,31.219 -60.77,43.343 -69.48,115.445 -4.17,158.66 37.51,24.527 100.02,50.07 145.29,43.508 57.77,-8.336 25.06,-70.848 -4.34,-92.192 -20.09,-14.664 -43.9,-25.14 -65.94,-37.004"
         inkscape:connector-curvature="0"
         id="path70"
         style="fill:none;stroke:#231f20;stroke-width:4.16761017;stroke-linecap:butt;stroke-linejoin:miter;stroke-miterlimit:10;stroke-opacity:1;stroke-dasharray:none" /><path
         d="m 8539.44,283.398 c 25.01,-19.492 88.26,-32.128 76.76,21.235 -7.89,36.66 -46.54,58.305 -54.7,95.457 -16.58,75.019 82.85,36.633 111.3,16.672"
         inkscape:connector-curvature="0"
         id="path72"
         style="fill:none;stroke:#231f20;stroke-width:4.16761017;stroke-linecap:butt;stroke-linejoin:miter;stroke-miterlimit:10;stroke-opacity:1;stroke-dasharray:none" /><path
         d="m 2567.25,220.883 c 12.5,-0.547 25,-1.399 37.51,1.101 37.13,7.235 57.06,43.883 34.81,76.696 -23.37,34.73 -67.05,47.23 -93.16,78.484 -29.17,35 -4.16,60.434 33.34,64.602"
         inkscape:connector-curvature="0"
         id="path74"
         style="fill:none;stroke:#231f20;stroke-width:4.16761017;stroke-linecap:butt;stroke-linejoin:miter;stroke-miterlimit:10;stroke-opacity:1;stroke-dasharray:none" /><path
         d="m 7668.41,445.934 58.34,-70.848"
         inkscape:connector-curvature="0"
         id="path76"
         style="fill:none;stroke:#231f20;stroke-width:4.16761017;stroke-linecap:butt;stroke-linejoin:miter;stroke-miterlimit:10;stroke-opacity:1;stroke-dasharray:none" /><path
         d="m 9389.63,445.934 c -16.67,-68.196 16.67,-142.551 33.35,-208.379"
         inkscape:connector-curvature="0"
         id="path78"
         style="fill:none;stroke:#231f20;stroke-width:4.16761017;stroke-linecap:butt;stroke-linejoin:miter;stroke-miterlimit:10;stroke-opacity:1;stroke-dasharray:none" /><path
         d="m 4280.14,350.078 c 7.24,25.008 46.9,119.567 87.52,79.188 45.38,-44.493 -63.2,-75.02 -87.52,-79.188"
         inkscape:connector-curvature="0"
         id="path80"
         style="fill:none;stroke:#231f20;stroke-width:4.16761017;stroke-linecap:butt;stroke-linejoin:miter;stroke-miterlimit:10;stroke-opacity:1;stroke-dasharray:none" /><path
         d="m 5505.42,366.75 29.17,-41.676 c 44.13,36.168 81.46,98.809 141.7,108.36 107.54,17.699 112.53,-151.446 87.52,-216.719"
         inkscape:connector-curvature="0"
         id="path82"
         style="fill:none;stroke:#231f20;stroke-width:4.16761017;stroke-linecap:butt;stroke-linejoin:miter;stroke-miterlimit:10;stroke-opacity:1;stroke-dasharray:none" /><path
         d="m 4050.92,237.555 c 52.74,48.39 -35.23,87.519 -62.01,119.793 -28.36,34.406 1.95,63.582 37,71.433 13.61,3.082 27.66,3.864 41.68,4.653"
         inkscape:connector-curvature="0"
         id="path84"
         style="fill:none;stroke:#231f20;stroke-width:4.16761017;stroke-linecap:butt;stroke-linejoin:miter;stroke-miterlimit:10;stroke-opacity:1;stroke-dasharray:none" /><path
         d="m 12136.1,433.434 0,-50.012"
         inkscape:connector-curvature="0"
         id="path86"
         style="fill:none;stroke:#231f20;stroke-width:4.16761017;stroke-linecap:butt;stroke-linejoin:miter;stroke-miterlimit:10;stroke-opacity:1;stroke-dasharray:none" /><path
         d="m 8189.36,429.266 c 9.15,-51.047 43.3,-185.993 122.67,-126.5 31.53,23.488 40.68,69.261 60.7,101.492"
         inkscape:connector-curvature="0"
         id="path88"
         style="fill:none;stroke:#231f20;stroke-width:4.16761017;stroke-linecap:butt;stroke-linejoin:miter;stroke-miterlimit:10;stroke-opacity:1;stroke-dasharray:none" /><path
         d="m 1617.04,204.215 c 26.82,-5.531 105.48,-11.254 75.01,40.191 -23.78,39.852 -79.18,48.262 -106.16,86.399 -50.63,72.203 84.87,88.152 127,90.125"
         inkscape:connector-curvature="0"
         id="path90"
         style="fill:none;stroke:#231f20;stroke-width:4.16761017;stroke-linecap:butt;stroke-linejoin:miter;stroke-miterlimit:10;stroke-opacity:1;stroke-dasharray:none" /><path
         d="m 7159.96,408.426 108.36,12.504"
         inkscape:connector-curvature="0"
         id="path92"
         style="fill:none;stroke:#231f20;stroke-width:4.16761017;stroke-linecap:butt;stroke-linejoin:miter;stroke-miterlimit:10;stroke-opacity:1;stroke-dasharray:none" /><path
         d="m 9623.02,420.93 c 22.01,-42.52 25.01,-86.422 29.18,-133.364"
         inkscape:connector-curvature="0"
         id="path94"
         style="fill:none;stroke:#231f20;stroke-width:4.16761017;stroke-linecap:butt;stroke-linejoin:miter;stroke-miterlimit:10;stroke-opacity:1;stroke-dasharray:none" /><path
         d="m 4576.04,250.059 c 5.04,50.007 26.61,161.675 100.02,154.199 57.76,-5.281 84.7,-104.192 91.69,-150.035"
         inkscape:connector-curvature="0"
         id="path96"
         style="fill:none;stroke:#231f20;stroke-width:4.16761017;stroke-linecap:butt;stroke-linejoin:miter;stroke-miterlimit:10;stroke-opacity:1;stroke-dasharray:none" /><path
         d="m 10510.7,408.426 129.2,-12.504"
         inkscape:connector-curvature="0"
         id="path98"
         style="fill:none;stroke:#231f20;stroke-width:4.16761017;stroke-linecap:butt;stroke-linejoin:miter;stroke-miterlimit:10;stroke-opacity:1;stroke-dasharray:none" /><path
         d="m 14278.2,408.426 c 14.3,-62.516 45.1,-114.446 116.7,-108.36"
         inkscape:connector-curvature="0"
         id="path100"
         style="fill:none;stroke:#231f20;stroke-width:4.16761017;stroke-linecap:butt;stroke-linejoin:miter;stroke-miterlimit:10;stroke-opacity:1;stroke-dasharray:none" /><path
         d="m 6997.42,404.258 16.67,-145.867"
         inkscape:connector-curvature="0"
         id="path102"
         style="fill:none;stroke:#231f20;stroke-width:4.16761017;stroke-linecap:butt;stroke-linejoin:miter;stroke-miterlimit:10;stroke-opacity:1;stroke-dasharray:none" /><path
         d="m 12902.9,404.258 c 22.4,-79.184 83.4,-110.649 158.4,-129.196"
         inkscape:connector-curvature="0"
         id="path104"
         style="fill:none;stroke:#231f20;stroke-width:4.16761017;stroke-linecap:butt;stroke-linejoin:miter;stroke-miterlimit:10;stroke-opacity:1;stroke-dasharray:none" /><path
         d="m 4892.78,379.254 145.86,20.836"
         inkscape:connector-curvature="0"
         id="path106"
         style="fill:none;stroke:#231f20;stroke-width:4.16761017;stroke-linecap:butt;stroke-linejoin:miter;stroke-miterlimit:10;stroke-opacity:1;stroke-dasharray:none" /><path
         d="M 5051.15,400.09 5013.64,208.379"
         inkscape:connector-curvature="0"
         id="path108"
         style="fill:none;stroke:#231f20;stroke-width:4.16761017;stroke-linecap:butt;stroke-linejoin:miter;stroke-miterlimit:10;stroke-opacity:1;stroke-dasharray:none" /><path
         d="m 12819.6,370.918 79.2,29.172"
         inkscape:connector-curvature="0"
         id="path110"
         style="fill:none;stroke:#231f20;stroke-width:4.16761017;stroke-linecap:butt;stroke-linejoin:miter;stroke-miterlimit:10;stroke-opacity:1;stroke-dasharray:none" /><path
         d="m 3421.61,208.379 c -16.67,22.277 -38.81,59.961 -70.85,58.348 -31.49,-1.637 -64.76,-43.043 -94.36,-12.504 -37.24,39.105 5.96,111.461 44.35,130.605 23.97,11.684 47.17,6.926 70.85,-1.406"
         inkscape:connector-curvature="0"
         id="path112"
         style="fill:none;stroke:#231f20;stroke-width:4.16761017;stroke-linecap:butt;stroke-linejoin:miter;stroke-miterlimit:10;stroke-opacity:1;stroke-dasharray:none" /><path
         d="m 10815,391.754 -12.5,-133.363"
         inkscape:connector-curvature="0"
         id="path114"
         style="fill:none;stroke:#231f20;stroke-width:4.16761017;stroke-linecap:butt;stroke-linejoin:miter;stroke-miterlimit:10;stroke-opacity:1;stroke-dasharray:none" /><path
         d="m 2317.19,375.086 4.17,-120.863"
         inkscape:connector-curvature="0"
         id="path116"
         style="fill:none;stroke:#231f20;stroke-width:4.16761017;stroke-linecap:butt;stroke-linejoin:miter;stroke-miterlimit:10;stroke-opacity:1;stroke-dasharray:none" /><path
         d="m 11219.2,370.918 c -61.3,-69.676 -2.6,-146.242 70.9,-175.039"
         inkscape:connector-curvature="0"
         id="path118"
         style="fill:none;stroke:#231f20;stroke-width:4.16761017;stroke-linecap:butt;stroke-linejoin:miter;stroke-miterlimit:10;stroke-opacity:1;stroke-dasharray:none" /><path
         d="m 4280.14,350.078 c -50.68,-85.617 27.09,-127.246 104.19,-120.859"
         inkscape:connector-curvature="0"
         id="path120"
         style="fill:none;stroke:#231f20;stroke-width:4.16761017;stroke-linecap:butt;stroke-linejoin:miter;stroke-miterlimit:10;stroke-opacity:1;stroke-dasharray:none" /><path
         d="m 1391.98,341.746 16.67,-195.879"
         inkscape:connector-curvature="0"
         id="path122"
         style="fill:none;stroke:#231f20;stroke-width:4.16761017;stroke-linecap:butt;stroke-linejoin:miter;stroke-miterlimit:10;stroke-opacity:1;stroke-dasharray:none" /><path
         d="m 5534.59,325.074 -4.17,-91.687"
         inkscape:connector-curvature="0"
         id="path124"
         style="fill:none;stroke:#231f20;stroke-width:4.16761017;stroke-linecap:butt;stroke-linejoin:miter;stroke-miterlimit:10;stroke-opacity:1;stroke-dasharray:none" /><path
         d="M 562.629,295.902 C 543.637,265.535 541.266,239.184 545.957,204.215"
         inkscape:connector-curvature="0"
         id="path126"
         style="fill:none;stroke:#231f20;stroke-width:4.16761017;stroke-linecap:butt;stroke-linejoin:miter;stroke-miterlimit:10;stroke-opacity:1;stroke-dasharray:none" /><path
         d="m 983.559,295.902 4.164,-133.367"
         inkscape:connector-curvature="0"
         id="path128"
         style="fill:none;stroke:#231f20;stroke-width:4.16761017;stroke-linecap:butt;stroke-linejoin:miter;stroke-miterlimit:10;stroke-opacity:1;stroke-dasharray:none" /></g></g></svg>