<?xml version="1.0" encoding="UTF-8" standalone="no"?>
<!-- Created with Inkscape (http://www.inkscape.org/) -->

<svg
   xmlns:dc="http://purl.org/dc/elements/1.1/"
   xmlns:cc="http://creativecommons.org/ns#"
   xmlns:rdf="http://www.w3.org/1999/02/22-rdf-syntax-ns#"
   xmlns:svg="http://www.w3.org/2000/svg"
   xmlns="http://www.w3.org/2000/svg"
   xmlns:inkscape="http://www.inkscape.org/namespaces/inkscape"
   version="1.1"
   width="4321.25"
   height="222.5"
   id="svg2"
   xml:space="preserve"><metadata
     id="metadata8"><rdf:RDF><cc:Work
         rdf:about=""><dc:format>image/svg+xml</dc:format><dc:type
           rdf:resource="http://purl.org/dc/dcmitype/StillImage" /></cc:Work></rdf:RDF></metadata><defs
     id="defs6" /><g
     transform="matrix(1.25,0,0,-1.25,0,222.5)"
     id="g10"><g
       transform="scale(0.235651,0.235651)"
       id="g12"><path
         d="m 13770.4,717.164 c 58.2,-109.555 18.6,-248.726 59.4,-364.949 l 50.9,33.949"
         inkscape:connector-curvature="0"
         id="path14"
         style="fill:none;stroke:#231f20;stroke-width:4.24355984;stroke-linecap:butt;stroke-linejoin:miter;stroke-miterlimit:10;stroke-opacity:1;stroke-dasharray:none" /><path
         d="m 13176.3,712.918 c 44.8,-70.039 55.8,-160.117 60.4,-241.883 1.8,-31.734 -10.5,-65.609 0,-96.566 14.5,-42.465 81.7,-54.961 111.5,-21.821 58.8,65.446 -44,121.297 -99.8,114.145"
         inkscape:connector-curvature="0"
         id="path16"
         style="fill:none;stroke:#231f20;stroke-width:4.24355984;stroke-linecap:butt;stroke-linejoin:miter;stroke-miterlimit:10;stroke-opacity:1;stroke-dasharray:none" /><path
         d="m 7825.13,178.23 c -20.48,112.676 -78.86,207.934 -77.94,326.754 0.51,65.543 31.26,123.063 103.4,118.821"
         inkscape:connector-curvature="0"
         id="path18"
         style="fill:none;stroke:#231f20;stroke-width:4.24355984;stroke-linecap:butt;stroke-linejoin:miter;stroke-miterlimit:10;stroke-opacity:1;stroke-dasharray:none" /><path
         d="m 10600.4,598.344 c 34,-51.926 41.3,-108.645 42.5,-169.742 L 10541,415.871"
         inkscape:connector-curvature="0"
         id="path20"
         style="fill:none;stroke:#231f20;stroke-width:4.24355984;stroke-linecap:butt;stroke-linejoin:miter;stroke-miterlimit:10;stroke-opacity:1;stroke-dasharray:none" /><path
         d="m 9429.2,377.676 c -8.06,19.906 -11.6,38.195 -10.45,59.41 0.92,16.976 2.47,34.441 7.3,50.926 33.91,114.574 167.31,-19.309 65.96,-84.875 -18.88,-12.016 -42.05,-16.973 -62.81,-25.461 16.97,-59.41 40.51,-95.223 106.09,-97.602"
         inkscape:connector-curvature="0"
         id="path22"
         style="fill:none;stroke:#231f20;stroke-width:4.24355984;stroke-linecap:butt;stroke-linejoin:miter;stroke-miterlimit:10;stroke-opacity:1;stroke-dasharray:none" /><path
         d="m 13481.8,424.355 c -3.9,15.571 -7,30.696 -3.2,46.68 11.7,50.922 80.7,75.676 123.7,46.047 31.1,-21.387 13.2,-53.234 -15.1,-65.238 -10.6,-4.532 -22,-7.383 -33.3,-10.137 -24.1,-5.91 -48.4,-10.035 -72.1,-17.352"
         inkscape:connector-curvature="0"
         id="path24"
         style="fill:none;stroke:#231f20;stroke-width:4.24355984;stroke-linecap:butt;stroke-linejoin:miter;stroke-miterlimit:10;stroke-opacity:1;stroke-dasharray:none" /><path
         d="m 7965.17,258.855 c -20.76,79.231 -24.75,143.348 28.64,211.399 24.1,30.488 58.29,55.949 98.67,41.762 34.44,-12.043 60.07,-40.981 84.87,-66.442"
         inkscape:connector-curvature="0"
         id="path26"
         style="fill:none;stroke:#231f20;stroke-width:4.24355984;stroke-linecap:butt;stroke-linejoin:miter;stroke-miterlimit:10;stroke-opacity:1;stroke-dasharray:none" /><path
         d="m 14457.8,517.715 c 17.5,-48.688 17,-95.098 -17,-135.793 -26.9,12.73 -52.8,37.82 -81.5,44.672 -37.3,8.937 -95.4,-23.457 -130.6,-36.188 -30.8,34.371 -41,69.094 -42.5,114.578"
         inkscape:connector-curvature="0"
         id="path28"
         style="fill:none;stroke:#231f20;stroke-width:4.24355984;stroke-linecap:butt;stroke-linejoin:miter;stroke-miterlimit:10;stroke-opacity:1;stroke-dasharray:none" /><path
         d="m 12658.6,343.73 c 13.8,56.719 -27.9,118.817 16.9,165.497"
         inkscape:connector-curvature="0"
         id="path30"
         style="fill:none;stroke:#231f20;stroke-width:4.24355984;stroke-linecap:butt;stroke-linejoin:miter;stroke-miterlimit:10;stroke-opacity:1;stroke-dasharray:none" /><path
         d="m 14029.2,494.953 c 63.7,4.094 107.2,-135.465 25.5,-142.363 -70.6,-5.934 -90.6,138.101 -25.5,142.363"
         inkscape:connector-curvature="0"
         id="path32"
         style="fill:none;stroke:#231f20;stroke-width:4.24355984;stroke-linecap:butt;stroke-linejoin:miter;stroke-miterlimit:10;stroke-opacity:1;stroke-dasharray:none" /><path
         d="m 11703.8,496.496 c 40.8,-56.586 64.4,-154.808 -29.8,-165.5"
         inkscape:connector-curvature="0"
         id="path34"
         style="fill:none;stroke:#231f20;stroke-width:4.24355984;stroke-linecap:butt;stroke-linejoin:miter;stroke-miterlimit:10;stroke-opacity:1;stroke-dasharray:none" /><path
         d="m 9883.26,381.922 c -8.49,-16.977 -16.47,-37.781 -33.95,-47.375 -41.29,-23.067 -111.94,10.726 -111.84,60.105 0.07,34.903 32.58,62.332 60.92,76.922 21.22,11.004 44.17,14.539 67.9,16.438 l 4.24,-33.95"
         inkscape:connector-curvature="0"
         id="path36"
         style="fill:none;stroke:#231f20;stroke-width:4.24355984;stroke-linecap:butt;stroke-linejoin:miter;stroke-miterlimit:10;stroke-opacity:1;stroke-dasharray:none" /><path
         d="m 237.641,55.168 c 26.746,5.3789 54.254,7.9726 80.625,15.0351 17.668,4.7305 34.988,11.6563 49.964,22.3008 10.461,7.4414 19.778,16.5581 26.879,27.2771 66.09,99.688 -104.043,141.598 -132.007,211.641 -31.266,76.644 50.921,166.922 127.304,139.613"
         inkscape:connector-curvature="0"
         id="path38"
         style="fill:none;stroke:#231f20;stroke-width:4.24355984;stroke-linecap:butt;stroke-linejoin:miter;stroke-miterlimit:10;stroke-opacity:1;stroke-dasharray:none" /><path
         d="M 7926.98,483.766 7757.23,420.113"
         inkscape:connector-curvature="0"
         id="path40"
         style="fill:none;stroke:#231f20;stroke-width:4.24355984;stroke-linecap:butt;stroke-linejoin:miter;stroke-miterlimit:10;stroke-opacity:1;stroke-dasharray:none" /><path
         d="m 12336,474.156 c 98.9,0.418 63.7,-125.215 -21.2,-126.875 -93.9,-1.832 -61.4,126.52 21.2,126.875"
         inkscape:connector-curvature="0"
         id="path42"
         style="fill:none;stroke:#231f20;stroke-width:4.24355984;stroke-linecap:butt;stroke-linejoin:miter;stroke-miterlimit:10;stroke-opacity:1;stroke-dasharray:none" /><path
         d="m 4035.63,475.277 c 56.67,-96.429 31.1,-200.8 38.19,-305.535"
         inkscape:connector-curvature="0"
         id="path44"
         style="fill:none;stroke:#231f20;stroke-width:4.24355984;stroke-linecap:butt;stroke-linejoin:miter;stroke-miterlimit:10;stroke-opacity:1;stroke-dasharray:none" /><path
         d="m 8262.22,428.602 c -17.42,-8.489 -31.64,-16.977 -40.2,-35.266 -6.04,-12.691 -8.92,-27.129 -9.57,-41.121 -4.86,-103.688 153.28,-93.36 120,0 -4.27,11.933 -10.82,22.777 -19.31,32.695 -13.74,17.406 -30.68,32.465 -46.68,47.934 l 42.44,38.191"
         inkscape:connector-curvature="0"
         id="path46"
         style="fill:none;stroke:#231f20;stroke-width:4.24355984;stroke-linecap:butt;stroke-linejoin:miter;stroke-miterlimit:10;stroke-opacity:1;stroke-dasharray:none" /><path
         d="m 8639.89,369.191 c 18.22,57.696 120.95,131.551 173.02,73.942 42.98,-47.383 48.5,-120.621 60.38,-180.031"
         inkscape:connector-curvature="0"
         id="path48"
         style="fill:none;stroke:#231f20;stroke-width:4.24355984;stroke-linecap:butt;stroke-linejoin:miter;stroke-miterlimit:10;stroke-opacity:1;stroke-dasharray:none" /><path
         d="m 11317.6,322.512 c 0.9,19.586 1.3,40.023 7.3,58.886 4.7,15.102 13.9,27.852 24.4,39.243 8.4,8.785 17.7,16.953 27.7,23.683 93.4,61.891 81.9,-114.047 169.7,-79.379"
         inkscape:connector-curvature="0"
         id="path50"
         style="fill:none;stroke:#231f20;stroke-width:4.24355984;stroke-linecap:butt;stroke-linejoin:miter;stroke-miterlimit:10;stroke-opacity:1;stroke-dasharray:none" /><path
         d="m 10833.8,458.305 59.4,-195.203"
         inkscape:connector-curvature="0"
         id="path52"
         style="fill:none;stroke:#231f20;stroke-width:4.24355984;stroke-linecap:butt;stroke-linejoin:miter;stroke-miterlimit:10;stroke-opacity:1;stroke-dasharray:none" /><path
         d="m 4421.79,454.062 c 37.11,-55.726 45.36,-113.769 55.17,-178.23 L 4353.9,254.613"
         inkscape:connector-curvature="0"
         id="path54"
         style="fill:none;stroke:#231f20;stroke-width:4.24355984;stroke-linecap:butt;stroke-linejoin:miter;stroke-miterlimit:10;stroke-opacity:1;stroke-dasharray:none" /><path
         d="m 8465.91,314.023 c -8.49,65.133 39.5,155.094 118.82,130.02 23.46,-7.555 39.55,-26.828 55.16,-45.148"
         inkscape:connector-curvature="0"
         id="path56"
         style="fill:none;stroke:#231f20;stroke-width:4.24355984;stroke-linecap:butt;stroke-linejoin:miter;stroke-miterlimit:10;stroke-opacity:1;stroke-dasharray:none" /><path
         d="m 5830.66,432.844 c 30.18,-57.239 30.75,-119.594 38.19,-182.473 l 29.7,4.242"
         inkscape:connector-curvature="0"
         id="path58"
         style="fill:none;stroke:#231f20;stroke-width:4.24355984;stroke-linecap:butt;stroke-linejoin:miter;stroke-miterlimit:10;stroke-opacity:1;stroke-dasharray:none" /><path
         d="M 10642.9,428.602 10630.1,284.32"
         inkscape:connector-curvature="0"
         id="path60"
         style="fill:none;stroke:#231f20;stroke-width:4.24355984;stroke-linecap:butt;stroke-linejoin:miter;stroke-miterlimit:10;stroke-opacity:1;stroke-dasharray:none" /><path
         d="m 13481.8,424.355 c 23.9,-86.636 94,-130.898 178.2,-93.359"
         inkscape:connector-curvature="0"
         id="path62"
         style="fill:none;stroke:#231f20;stroke-width:4.24355984;stroke-linecap:butt;stroke-linejoin:miter;stroke-miterlimit:10;stroke-opacity:1;stroke-dasharray:none" /><path
         d="m 7668.12,415.871 76.38,4.242"
         inkscape:connector-curvature="0"
         id="path64"
         style="fill:none;stroke:#231f20;stroke-width:4.24355984;stroke-linecap:butt;stroke-linejoin:miter;stroke-miterlimit:10;stroke-opacity:1;stroke-dasharray:none" /><path
         d="m 10651.3,420.113 72.2,-4.242"
         inkscape:connector-curvature="0"
         id="path66"
         style="fill:none;stroke:#231f20;stroke-width:4.24355984;stroke-linecap:butt;stroke-linejoin:miter;stroke-miterlimit:10;stroke-opacity:1;stroke-dasharray:none" /><path
         d="m 11156.3,407.383 c 12.8,-14.203 26.9,-28.02 38.2,-43.516 6.8,-8.785 12.8,-18.246 16.1,-28.625 36.7,-109.832 -188.9,-33.437 -93,52.61 11,9.906 25,14.66 38.7,19.531"
         inkscape:connector-curvature="0"
         id="path68"
         style="fill:none;stroke:#231f20;stroke-width:4.24355984;stroke-linecap:butt;stroke-linejoin:miter;stroke-miterlimit:10;stroke-opacity:1;stroke-dasharray:none" /><path
         d="m 7150.41,190.961 c 11.29,-4.242 22.53,-8.031 34.37,-10.125 31.2,-5.516 64.36,7.426 48.3,44.074 -17.81,41.129 -57.21,68.863 -75.04,110.332 -24.61,57.559 22.07,68.774 60.26,33.949"
         inkscape:connector-curvature="0"
         id="path70"
         style="fill:none;stroke:#231f20;stroke-width:4.24355984;stroke-linecap:butt;stroke-linejoin:miter;stroke-miterlimit:10;stroke-opacity:1;stroke-dasharray:none" /><path
         d="m 10019.1,377.676 c 3,-9.856 5.8,-19.93 9.7,-29.703 29.7,-73.414 69.5,21.218 95.4,39.027 17.1,11.895 37.2,7.652 56.1,3.406"
         inkscape:connector-curvature="0"
         id="path72"
         style="fill:none;stroke:#231f20;stroke-width:4.24355984;stroke-linecap:butt;stroke-linejoin:miter;stroke-miterlimit:10;stroke-opacity:1;stroke-dasharray:none" /><path
         d="m 9361.3,394.652 55.17,-4.246"
         inkscape:connector-curvature="0"
         id="path74"
         style="fill:none;stroke:#231f20;stroke-width:4.24355984;stroke-linecap:butt;stroke-linejoin:miter;stroke-miterlimit:10;stroke-opacity:1;stroke-dasharray:none" /><path
         d="m 12399.7,386.164 72.1,-50.922"
         inkscape:connector-curvature="0"
         id="path76"
         style="fill:none;stroke:#231f20;stroke-width:4.24355984;stroke-linecap:butt;stroke-linejoin:miter;stroke-miterlimit:10;stroke-opacity:1;stroke-dasharray:none" /><path
         d="m 10396.7,339.484 c -8.5,-7.695 -16.9,-15.672 -26.3,-22.3 -72.4,-51 -64.8,71.566 -4.9,53.359 46.9,-14.082 62.7,-74.375 116.1,-86.223"
         inkscape:connector-curvature="0"
         id="path78"
         style="fill:none;stroke:#231f20;stroke-width:4.24355984;stroke-linecap:butt;stroke-linejoin:miter;stroke-miterlimit:10;stroke-opacity:1;stroke-dasharray:none" /><path
         d="m 6768.48,373.434 c -28.79,-28.102 -73.87,-56.11 -90.55,-93.36 -28.62,-64.656 57.04,-89.89 103.28,-84.871"
         inkscape:connector-curvature="0"
         id="path80"
         style="fill:none;stroke:#231f20;stroke-width:4.24355984;stroke-linecap:butt;stroke-linejoin:miter;stroke-miterlimit:10;stroke-opacity:1;stroke-dasharray:none" /><path
         d="m 3628.25,118.82 c 57.49,-25.9606 119.73,27.121 110.33,89.114 -6.49,42.437 -135.79,112.972 -59.41,147.793 9.68,4.261 19.79,6.609 29.71,9.218"
         inkscape:connector-curvature="0"
         id="path82"
         style="fill:none;stroke:#231f20;stroke-width:4.24355984;stroke-linecap:butt;stroke-linejoin:miter;stroke-miterlimit:10;stroke-opacity:1;stroke-dasharray:none" /><path
         d="m 3836.18,195.203 c -9.2,19.156 -16.97,37.742 -16.21,59.41 0.61,15.785 4.43,31.891 10.44,46.68 55.38,133.906 207.36,-47.848 73.67,-94.836 -21.67,-7.535 -45.51,-8.109 -67.9,-11.254"
         inkscape:connector-curvature="0"
         id="path84"
         style="fill:none;stroke:#231f20;stroke-width:4.24355984;stroke-linecap:butt;stroke-linejoin:miter;stroke-miterlimit:10;stroke-opacity:1;stroke-dasharray:none" /><path
         d="m 6967.93,343.73 c 1.18,-46.679 -4.24,-76.386 -46.68,-101.847"
         inkscape:connector-curvature="0"
         id="path86"
         style="fill:none;stroke:#231f20;stroke-width:4.24355984;stroke-linecap:butt;stroke-linejoin:miter;stroke-miterlimit:10;stroke-opacity:1;stroke-dasharray:none" /><path
         d="m 1744.11,212.18 c -94.33,23.164 -55.61,144.906 32.97,116.418 106.56,-34.274 -95.49,-130.196 22.19,-157.368 9.81,-2.218 19.68,-3.097 29.71,-2.968 15.61,0.203 31.19,3.09 46.68,5.722"
         inkscape:connector-curvature="0"
         id="path88"
         style="fill:none;stroke:#231f20;stroke-width:4.24355984;stroke-linecap:butt;stroke-linejoin:miter;stroke-miterlimit:10;stroke-opacity:1;stroke-dasharray:none" /><path
         d="m 1514.95,326.754 c -0.59,-47.563 27.17,-126.774 0,-169.383 -19.96,-31.633 -67.46,1.418 -95.67,-5.285 -32.98,-7.805 -45.84,-47.543 -82.56,-52.086 -86.34,-10.8867 -73.65,141.336 -72.14,192.805"
         inkscape:connector-curvature="0"
         id="path90"
         style="fill:none;stroke:#231f20;stroke-width:4.24355984;stroke-linecap:butt;stroke-linejoin:miter;stroke-miterlimit:10;stroke-opacity:1;stroke-dasharray:none" /><path
         d="m 9862.04,322.512 -12.73,-106.09"
         inkscape:connector-curvature="0"
         id="path92"
         style="fill:none;stroke:#231f20;stroke-width:4.24355984;stroke-linecap:butt;stroke-linejoin:miter;stroke-miterlimit:10;stroke-opacity:1;stroke-dasharray:none" /><path
         d="m 4964.97,93.3594 c 47.1,9.7226 70.01,30.7616 84.87,76.3826 -26.8,15.539 -75.23,25.461 -90.83,53.91 -37.99,69.594 96.77,93.434 137.51,94.614"
         inkscape:connector-curvature="0"
         id="path94"
         style="fill:none;stroke:#231f20;stroke-width:4.24355984;stroke-linecap:butt;stroke-linejoin:miter;stroke-miterlimit:10;stroke-opacity:1;stroke-dasharray:none" /><path
         d="m 2554.62,135.793 c -30.8,-12.731 -63.65,-32.805 -97.6,-34.402 -61.32,-2.8676 -100.14,54.722 -82.61,110.789 20.66,66.058 89.34,106.086 154.75,84.871"
         inkscape:connector-curvature="0"
         id="path96"
         style="fill:none;stroke:#231f20;stroke-width:4.24355984;stroke-linecap:butt;stroke-linejoin:miter;stroke-miterlimit:10;stroke-opacity:1;stroke-dasharray:none" /><path
         d="m 6335.64,165.5 c 0.83,57.234 64.57,185.109 137.63,126.254 32.11,-25.649 34.38,-71.957 40.6,-109.281"
         inkscape:connector-curvature="0"
         id="path98"
         style="fill:none;stroke:#231f20;stroke-width:4.24355984;stroke-linecap:butt;stroke-linejoin:miter;stroke-miterlimit:10;stroke-opacity:1;stroke-dasharray:none" /><path
         d="M 4239.32,288.562 4260.54,178.23"
         inkscape:connector-curvature="0"
         id="path100"
         style="fill:none;stroke:#231f20;stroke-width:4.24355984;stroke-linecap:butt;stroke-linejoin:miter;stroke-miterlimit:10;stroke-opacity:1;stroke-dasharray:none" /><path
         d="m 6140.44,284.32 c -60.23,-42.437 -90.79,-136.718 8.49,-152.769"
         inkscape:connector-curvature="0"
         id="path102"
         style="fill:none;stroke:#231f20;stroke-width:4.24355984;stroke-linecap:butt;stroke-linejoin:miter;stroke-miterlimit:10;stroke-opacity:1;stroke-dasharray:none" /><path
         d="m 5546.34,157.012 c 0,42.437 32.99,151.808 97.98,109.648 23.33,-15.133 29.32,-51.25 37.81,-75.699"
         inkscape:connector-curvature="0"
         id="path104"
         style="fill:none;stroke:#231f20;stroke-width:4.24355984;stroke-linecap:butt;stroke-linejoin:miter;stroke-miterlimit:10;stroke-opacity:1;stroke-dasharray:none" /><path
         d="M 587.348,267.746 C 680.391,314.582 831.738,195.781 754.59,98.9883 742.625,83.543 726.012,71.5703 708.676,62.5078 625.469,19.1953 555.324,65.9375 549.074,157.012 c -2.461,35.8 1.766,92.359 38.274,110.734"
         inkscape:connector-curvature="0"
         id="path106"
         style="fill:none;stroke:#231f20;stroke-width:4.24355984;stroke-linecap:butt;stroke-linejoin:miter;stroke-miterlimit:10;stroke-opacity:1;stroke-dasharray:none" /><path
         d="m 2919.57,97.6016 c 7.63,49.1014 71.11,177.3514 131.55,171.1094 76.39,-7.852 96.26,-120.188 97.6,-179.5977"
         inkscape:connector-curvature="0"
         id="path108"
         style="fill:none;stroke:#231f20;stroke-width:4.24355984;stroke-linecap:butt;stroke-linejoin:miter;stroke-miterlimit:10;stroke-opacity:1;stroke-dasharray:none" /><path
         d="m 5249.29,199.449 c 10.37,23.844 78.19,110.793 106.66,58.414 29.55,-54.172 -78.46,-65.027 -106.66,-58.414"
         inkscape:connector-curvature="0"
         id="path110"
         style="fill:none;stroke:#231f20;stroke-width:4.24355984;stroke-linecap:butt;stroke-linejoin:miter;stroke-miterlimit:10;stroke-opacity:1;stroke-dasharray:none" /><path
         d="m 4472.71,271.59 89.12,-12.735"
         inkscape:connector-curvature="0"
         id="path112"
         style="fill:none;stroke:#231f20;stroke-width:4.24355984;stroke-linecap:butt;stroke-linejoin:miter;stroke-miterlimit:10;stroke-opacity:1;stroke-dasharray:none" /><path
         d="m 6967.93,267.344 c 22.16,-31.832 39.52,-54.711 80.63,-55.164"
         inkscape:connector-curvature="0"
         id="path114"
         style="fill:none;stroke:#231f20;stroke-width:4.24355984;stroke-linecap:butt;stroke-linejoin:miter;stroke-miterlimit:10;stroke-opacity:1;stroke-dasharray:none" /><path
         d="m 2783.78,254.613 c 0,-31.902 4.24,-73.949 -11.83,-102.816 -19.24,-34.754 -89.41,-73.9884 -122.3,-37.219 -21.13,23.852 -10.15,57.711 6.82,80.067 33.95,44.328 81.85,63.066 135.8,64.21"
         inkscape:connector-curvature="0"
         id="path116"
         style="fill:none;stroke:#231f20;stroke-width:4.24355984;stroke-linecap:butt;stroke-linejoin:miter;stroke-miterlimit:10;stroke-opacity:1;stroke-dasharray:none" /><path
         d="M 4481.2,254.613 4476.96,106.09"
         inkscape:connector-curvature="0"
         id="path118"
         style="fill:none;stroke:#231f20;stroke-width:4.24355984;stroke-linecap:butt;stroke-linejoin:miter;stroke-miterlimit:10;stroke-opacity:1;stroke-dasharray:none" /><path
         d="m 5771.25,233.395 93.36,12.73"
         inkscape:connector-curvature="0"
         id="path120"
         style="fill:none;stroke:#231f20;stroke-width:4.24355984;stroke-linecap:butt;stroke-linejoin:miter;stroke-miterlimit:10;stroke-opacity:1;stroke-dasharray:none" /><path
         d="M 5868.85,241.883 5851.88,106.09"
         inkscape:connector-curvature="0"
         id="path122"
         style="fill:none;stroke:#231f20;stroke-width:4.24355984;stroke-linecap:butt;stroke-linejoin:miter;stroke-miterlimit:10;stroke-opacity:1;stroke-dasharray:none" /><path
         d="m 3836.18,195.203 67.9,-169.7421"
         inkscape:connector-curvature="0"
         id="path124"
         style="fill:none;stroke:#231f20;stroke-width:4.24355984;stroke-linecap:butt;stroke-linejoin:miter;stroke-miterlimit:10;stroke-opacity:1;stroke-dasharray:none" /><path
         d="m 5249.29,195.203 -21.22,-25.461 c 26.14,-68.371 64.1,-104.7693 140.04,-89.1131"
         inkscape:connector-curvature="0"
         id="path126"
         style="fill:none;stroke:#231f20;stroke-width:4.24355984;stroke-linecap:butt;stroke-linejoin:miter;stroke-miterlimit:10;stroke-opacity:1;stroke-dasharray:none" /><path
         d="m 2881.38,190.961 42.44,-46.68"
         inkscape:connector-curvature="0"
         id="path128"
         style="fill:none;stroke:#231f20;stroke-width:4.24355984;stroke-linecap:butt;stroke-linejoin:miter;stroke-miterlimit:10;stroke-opacity:1;stroke-dasharray:none" /><path
         d="m 5181.39,173.984 42.44,0"
         inkscape:connector-curvature="0"
         id="path130"
         style="fill:none;stroke:#231f20;stroke-width:4.24355984;stroke-linecap:butt;stroke-linejoin:miter;stroke-miterlimit:10;stroke-opacity:1;stroke-dasharray:none" /></g></g></svg>