<?xml version="1.0" encoding="UTF-8" standalone="no"?>
<!-- Created with Inkscape (http://www.inkscape.org/) -->

<svg
   xmlns:dc="http://purl.org/dc/elements/1.1/"
   xmlns:cc="http://creativecommons.org/ns#"
   xmlns:rdf="http://www.w3.org/1999/02/22-rdf-syntax-ns#"
   xmlns:svg="http://www.w3.org/2000/svg"
   xmlns="http://www.w3.org/2000/svg"
   xmlns:inkscape="http://www.inkscape.org/namespaces/inkscape"
   version="1.1"
   width="850"
   height="226.25"
   id="svg2"
   xml:space="preserve"><metadata
     id="metadata8"><rdf:RDF><cc:Work
         rdf:about=""><dc:format>image/svg+xml</dc:format><dc:type
           rdf:resource="http://purl.org/dc/dcmitype/StillImage" /></cc:Work></rdf:RDF></metadata><defs
     id="defs6" /><g
     transform="matrix(1.25,0,0,-1.25,0,226.25)"
     id="g10"><g
       transform="scale(0.1,0.1)"
       id="g12"><path
         d="m 3770,1790 160,-10 c 38.63,-156.35 -35.26,-310 170,-360"
         inkscape:connector-curvature="0"
         id="path14"
         style="fill:none;stroke:#231f20;stroke-width:10;stroke-linecap:butt;stroke-linejoin:miter;stroke-miterlimit:10;stroke-opacity:1;stroke-dasharray:none" /><path
         d="M 610,1700 510,880"
         inkscape:connector-curvature="0"
         id="path16"
         style="fill:none;stroke:#231f20;stroke-width:10;stroke-linecap:butt;stroke-linejoin:miter;stroke-miterlimit:10;stroke-opacity:1;stroke-dasharray:none" /><path
         d="m 5880,690 c 153.94,-53.34 408.51,55.441 380,250 -25.55,177.24 -240,237.65 -390,220 -4.38,30 -8.22,60 -8.4,90 -1.6,188.92 148.4,150 288.4,150"
         inkscape:connector-curvature="0"
         id="path18"
         style="fill:none;stroke:#231f20;stroke-width:10;stroke-linecap:butt;stroke-linejoin:miter;stroke-miterlimit:10;stroke-opacity:1;stroke-dasharray:none" /><path
         d="m 1830,940 -10,90 c 71.87,73.32 128.82,205.97 230,241.69 172.69,60.8 206.71,-261.69 230,-361.69"
         inkscape:connector-curvature="0"
         id="path20"
         style="fill:none;stroke:#231f20;stroke-width:10;stroke-linecap:butt;stroke-linejoin:miter;stroke-miterlimit:10;stroke-opacity:1;stroke-dasharray:none" /><path
         d="m 1520,910 c -13.58,87.828 6.6,307.9 150,274.48 68.63,-16.17 113.4,-100.35 150,-154.48"
         inkscape:connector-curvature="0"
         id="path22"
         style="fill:none;stroke:#231f20;stroke-width:10;stroke-linecap:butt;stroke-linejoin:miter;stroke-miterlimit:10;stroke-opacity:1;stroke-dasharray:none" /><path
         d="m 1020,1200 30,-310"
         inkscape:connector-curvature="0"
         id="path24"
         style="fill:none;stroke:#231f20;stroke-width:10;stroke-linecap:butt;stroke-linejoin:miter;stroke-miterlimit:10;stroke-opacity:1;stroke-dasharray:none" /><path
         d="m 1380,1190 120,-140"
         inkscape:connector-curvature="0"
         id="path26"
         style="fill:none;stroke:#231f20;stroke-width:10;stroke-linecap:butt;stroke-linejoin:miter;stroke-miterlimit:10;stroke-opacity:1;stroke-dasharray:none" /><path
         d="m 3380,1130 50,-110 130,100"
         inkscape:connector-curvature="0"
         id="path28"
         style="fill:none;stroke:#231f20;stroke-width:10;stroke-linecap:butt;stroke-linejoin:miter;stroke-miterlimit:10;stroke-opacity:1;stroke-dasharray:none" /><path
         d="m 4810,1060 310,-10"
         inkscape:connector-curvature="0"
         id="path30"
         style="fill:none;stroke:#231f20;stroke-width:10;stroke-linecap:butt;stroke-linejoin:miter;stroke-miterlimit:10;stroke-opacity:1;stroke-dasharray:none" /><path
         d="m 3430,1020 40,-190"
         inkscape:connector-curvature="0"
         id="path32"
         style="fill:none;stroke:#231f20;stroke-width:10;stroke-linecap:butt;stroke-linejoin:miter;stroke-miterlimit:10;stroke-opacity:1;stroke-dasharray:none" /><path
         d="m 3190,920 c 84.77,-3.73 154.61,35.859 230,70"
         inkscape:connector-curvature="0"
         id="path34"
         style="fill:none;stroke:#231f20;stroke-width:10;stroke-linecap:butt;stroke-linejoin:miter;stroke-miterlimit:10;stroke-opacity:1;stroke-dasharray:none" /><path
         d="m 4740,670 430,-10"
         inkscape:connector-curvature="0"
         id="path36"
         style="fill:none;stroke:#231f20;stroke-width:10;stroke-linecap:butt;stroke-linejoin:miter;stroke-miterlimit:10;stroke-opacity:1;stroke-dasharray:none" /><path
         d="m 1900,520 c 83.88,-57.141 225.07,-145.5 230,-260 3.99,-108.59 -136.97,-197.8281 -210,-100"
         inkscape:connector-curvature="0"
         id="path38"
         style="fill:none;stroke:#231f20;stroke-width:10;stroke-linecap:butt;stroke-linejoin:miter;stroke-miterlimit:10;stroke-opacity:1;stroke-dasharray:none" /><path
         d="m 2600,380 c -30,21.801 -58.52,43.922 -90,61.289 -22.2,11.551 -45.04,21.723 -69.14,26.102 -165.67,30.148 -89.64,-259.871 54.66,-207.391 121.29,45.262 151.45,210 284.48,250"
         inkscape:connector-curvature="0"
         id="path40"
         style="fill:none;stroke:#231f20;stroke-width:10;stroke-linecap:butt;stroke-linejoin:miter;stroke-miterlimit:10;stroke-opacity:1;stroke-dasharray:none" /><path
         d="M 2800,510 C 2902.25,496.32 3000,475.051 3064.33,386.691 3123.71,306.121 3102.66,184.16 2990,170 2860,155.422 2716.02,300 2630,380"
         inkscape:connector-curvature="0"
         id="path42"
         style="fill:none;stroke:#231f20;stroke-width:10;stroke-linecap:butt;stroke-linejoin:miter;stroke-miterlimit:10;stroke-opacity:1;stroke-dasharray:none" /><path
         d="m 930,420 130,-190 70,60"
         inkscape:connector-curvature="0"
         id="path44"
         style="fill:none;stroke:#231f20;stroke-width:10;stroke-linecap:butt;stroke-linejoin:miter;stroke-miterlimit:10;stroke-opacity:1;stroke-dasharray:none" /><path
         d="m 1510,360 190,-70"
         inkscape:connector-curvature="0"
         id="path46"
         style="fill:none;stroke:#231f20;stroke-width:10;stroke-linecap:butt;stroke-linejoin:miter;stroke-miterlimit:10;stroke-opacity:1;stroke-dasharray:none" /><path
         d="M 1060,230 C 1026.36,138.781 957.141,40 850,50"
         inkscape:connector-curvature="0"
         id="path48"
         style="fill:none;stroke:#231f20;stroke-width:10;stroke-linecap:butt;stroke-linejoin:miter;stroke-miterlimit:10;stroke-opacity:1;stroke-dasharray:none" /><path
         d="M 1060,170 1120,60"
         inkscape:connector-curvature="0"
         id="path50"
         style="fill:none;stroke:#231f20;stroke-width:10;stroke-linecap:butt;stroke-linejoin:miter;stroke-miterlimit:10;stroke-opacity:1;stroke-dasharray:none" /></g></g></svg>