<?xml version="1.0" encoding="UTF-8" standalone="no"?>
<!-- Created with Inkscape (http://www.inkscape.org/) -->

<svg
   xmlns:dc="http://purl.org/dc/elements/1.1/"
   xmlns:cc="http://creativecommons.org/ns#"
   xmlns:rdf="http://www.w3.org/1999/02/22-rdf-syntax-ns#"
   xmlns:svg="http://www.w3.org/2000/svg"
   xmlns="http://www.w3.org/2000/svg"
   xmlns:inkscape="http://www.inkscape.org/namespaces/inkscape"
   version="1.1"
   width="4446.25"
   height="208.75"
   id="svg2"
   xml:space="preserve"><metadata
     id="metadata8"><rdf:RDF><cc:Work
         rdf:about=""><dc:format>image/svg+xml</dc:format><dc:type
           rdf:resource="http://purl.org/dc/dcmitype/StillImage" /></cc:Work></rdf:RDF></metadata><defs
     id="defs6" /><g
     transform="matrix(1.25,0,0,-1.25,0,208.75)"
     id="g10"><g
       transform="scale(0.242468,0.242468)"
       id="g12"><path
         d="m 5171.82,527.906 c -63.53,-54.976 -127.35,-54.152 -206.21,-65.988 -23.27,63.109 -30.61,163.863 45.37,189.715"
         inkscape:connector-curvature="0"
         id="path14"
         style="fill:none;stroke:#231f20;stroke-width:4.12425995;stroke-linecap:butt;stroke-linejoin:miter;stroke-miterlimit:10;stroke-opacity:1;stroke-dasharray:none" /><path
         d="m 214.461,647.508 65.988,-239.207 c 23.414,6.043 46.024,8.601 70.113,4.898 20.622,-3.152 40.145,-10.429 56.708,-23.152 53.585,-41.16 50.523,-121.969 -7.715,-156.934 -32.496,-19.699 -89.418,-28.875 -110.426,11.985 -11.695,22.98 -7.875,51.847 -11.074,76.593 -3.653,28.204 -5.223,54.168 -1.731,82.485"
         inkscape:connector-curvature="0"
         id="path16"
         style="fill:none;stroke:#231f20;stroke-width:4.12425995;stroke-linecap:butt;stroke-linejoin:miter;stroke-miterlimit:10;stroke-opacity:1;stroke-dasharray:none" /><path
         d="m 5988.43,622.762 c 23.52,-94.856 12.02,-206.211 78.36,-284.571 30.88,15.043 50.11,48.5 82.91,58.563 21.61,6.629 44.94,3.301 65.56,-4.949 16.5,-7.266 30.85,-17.664 43.02,-30.434 106.14,-111.355 -118.58,-229.926 -172.36,-101.543 -10.37,25.102 -15.9,51.777 -19.13,78.363"
         inkscape:connector-curvature="0"
         id="path18"
         style="fill:none;stroke:#231f20;stroke-width:4.12425995;stroke-linecap:butt;stroke-linejoin:miter;stroke-miterlimit:10;stroke-opacity:1;stroke-dasharray:none" /><path
         d="m 2264.22,408.301 c -107.23,4.828 -47.56,157.211 4.12,197.965"
         inkscape:connector-curvature="0"
         id="path20"
         style="fill:none;stroke:#231f20;stroke-width:4.12425995;stroke-linecap:butt;stroke-linejoin:miter;stroke-miterlimit:10;stroke-opacity:1;stroke-dasharray:none" /><path
         d="m 8108.3,606.266 c 1.46,-57.188 -1.24,-119.602 20.62,-173.219 l -12.37,-148.473"
         inkscape:connector-curvature="0"
         id="path22"
         style="fill:none;stroke:#231f20;stroke-width:4.12425995;stroke-linecap:butt;stroke-linejoin:miter;stroke-miterlimit:10;stroke-opacity:1;stroke-dasharray:none" /><path
         d="m 1435.24,593.895 37.12,-206.215 c -11.04,-42.391 -4.87,-83.868 12.37,-123.727"
         inkscape:connector-curvature="0"
         id="path24"
         style="fill:none;stroke:#231f20;stroke-width:4.12425995;stroke-linecap:butt;stroke-linejoin:miter;stroke-miterlimit:10;stroke-opacity:1;stroke-dasharray:none" /><path
         d="M 532.031,573.273 C 601.469,460.57 577.398,329.941 606.266,206.215"
         inkscape:connector-curvature="0"
         id="path26"
         style="fill:none;stroke:#231f20;stroke-width:4.12425995;stroke-linecap:butt;stroke-linejoin:miter;stroke-miterlimit:10;stroke-opacity:1;stroke-dasharray:none" /><path
         d="m 12022.2,548.527 c 10.7,-53.617 15.7,-110.64 8.3,-164.972 87.3,-24.743 209.1,51.062 219.9,-78.36 1.4,-16.496 0.5,-32.992 -1.3,-49.492"
         inkscape:connector-curvature="0"
         id="path28"
         style="fill:none;stroke:#231f20;stroke-width:4.12425995;stroke-linecap:butt;stroke-linejoin:miter;stroke-miterlimit:10;stroke-opacity:1;stroke-dasharray:none" /><path
         d="m 10599.4,519.656 c 12.3,-106.07 -25.7,-247.453 41.2,-338.187"
         inkscape:connector-curvature="0"
         id="path30"
         style="fill:none;stroke:#231f20;stroke-width:4.12425995;stroke-linecap:butt;stroke-linejoin:miter;stroke-miterlimit:10;stroke-opacity:1;stroke-dasharray:none" /><path
         d="m 8714.57,383.555 c 2.54,18.199 5.41,36.57 14.84,52.703 51.84,88.726 178.2,-19.707 83.55,-56.336 -11.78,-4.613 -24.16,-6.156 -36.53,-6.551 -19.43,-0.629 -38.64,2.789 -57.74,6.063 3.44,-78.364 50.33,-137.438 131.98,-136.102"
         inkscape:connector-curvature="0"
         id="path32"
         style="fill:none;stroke:#231f20;stroke-width:4.12425995;stroke-linecap:butt;stroke-linejoin:miter;stroke-miterlimit:10;stroke-opacity:1;stroke-dasharray:none" /><path
         d="m 9535.29,474.289 4.13,0"
         inkscape:connector-curvature="0"
         id="path34"
         style="fill:none;stroke:#231f20;stroke-width:4.12425995;stroke-linecap:butt;stroke-linejoin:miter;stroke-miterlimit:10;stroke-opacity:1;stroke-dasharray:none" /><path
         d="m 4396.46,470.164 c -23.34,-17.102 -58.41,-36.73 -56.48,-70.109 2.32,-40.434 110.1,-112.543 35.08,-139.641 -7.47,-2.738 -15.72,-3.859 -23.96,-4.711 -12.38,-0.73 -24.75,0 -37.12,0"
         inkscape:connector-curvature="0"
         id="path36"
         style="fill:none;stroke:#231f20;stroke-width:4.12425995;stroke-linecap:butt;stroke-linejoin:miter;stroke-miterlimit:10;stroke-opacity:1;stroke-dasharray:none" /><path
         d="m 4103.64,362.934 c -32.99,-27.489 -150.98,-63.227 -126.89,24.746 10.34,37.769 48.53,59.172 81.52,74.238 29.7,-34.32 31.67,-86.215 74.24,-107.23"
         inkscape:connector-curvature="0"
         id="path38"
         style="fill:none;stroke:#231f20;stroke-width:4.12425995;stroke-linecap:butt;stroke-linejoin:miter;stroke-miterlimit:10;stroke-opacity:1;stroke-dasharray:none" /><path
         d="m 4965.61,461.918 c 13.18,-68.809 24.75,-137.887 53.62,-202.09"
         inkscape:connector-curvature="0"
         id="path40"
         style="fill:none;stroke:#231f20;stroke-width:4.12425995;stroke-linecap:butt;stroke-linejoin:miter;stroke-miterlimit:10;stroke-opacity:1;stroke-dasharray:none" /><path
         d="m 7114.35,449.543 c -23.44,-21.547 -51.59,-45.367 -56.79,-78.359 -15.29,-98.168 123.48,-143.789 197.02,-123.727"
         inkscape:connector-curvature="0"
         id="path42"
         style="fill:none;stroke:#231f20;stroke-width:4.12425995;stroke-linecap:butt;stroke-linejoin:miter;stroke-miterlimit:10;stroke-opacity:1;stroke-dasharray:none" /><path
         d="m 3414.89,441.297 c 17.73,-49.492 9.07,-110.442 34.79,-156.371 44.21,-78.711 131.58,-39.301 163.17,24.394 30.2,-6.441 67.49,-22.55 98.42,-14.707 63.32,16.059 45.3,103.352 29.44,146.684"
         inkscape:connector-curvature="0"
         id="path44"
         style="fill:none;stroke:#231f20;stroke-width:4.12425995;stroke-linecap:butt;stroke-linejoin:miter;stroke-miterlimit:10;stroke-opacity:1;stroke-dasharray:none" /><path
         d="m 5456.4,284.574 c -39.39,-24.375 -84.2,-34.859 -127.25,-11.808 -78.96,42.32 -51.83,139.66 20.02,168.531"
         inkscape:connector-curvature="0"
         id="path46"
         style="fill:none;stroke:#231f20;stroke-width:4.12425995;stroke-linecap:butt;stroke-linejoin:miter;stroke-miterlimit:10;stroke-opacity:1;stroke-dasharray:none" /><path
         d="m 8471.23,437.172 c 28.88,-41.242 38.1,-82.844 24.75,-131.977"
         inkscape:connector-curvature="0"
         id="path48"
         style="fill:none;stroke:#231f20;stroke-width:4.12425995;stroke-linecap:butt;stroke-linejoin:miter;stroke-miterlimit:10;stroke-opacity:1;stroke-dasharray:none" /><path
         d="m 9081.62,437.172 140.23,-24.746 c -16.88,-47.254 -62.61,-83.531 -72.34,-131.977 -9.75,-48.519 26.97,-90.734 76.46,-83.008 16.5,2.539 33,7.977 49.49,12.895"
         inkscape:connector-curvature="0"
         id="path50"
         style="fill:none;stroke:#231f20;stroke-width:4.12425995;stroke-linecap:butt;stroke-linejoin:miter;stroke-miterlimit:10;stroke-opacity:1;stroke-dasharray:none" /><path
         d="m 2755.01,433.047 82.48,-94.856 70.12,61.864"
         inkscape:connector-curvature="0"
         id="path52"
         style="fill:none;stroke:#231f20;stroke-width:4.12425995;stroke-linecap:butt;stroke-linejoin:miter;stroke-miterlimit:10;stroke-opacity:1;stroke-dasharray:none" /><path
         d="m 8128.92,433.047 c 27.26,0 62.94,5.289 87.78,-8.246 45.82,-24.746 65.78,-114.406 77.19,-160.848"
         inkscape:connector-curvature="0"
         id="path54"
         style="fill:none;stroke:#231f20;stroke-width:4.12425995;stroke-linecap:butt;stroke-linejoin:miter;stroke-miterlimit:10;stroke-opacity:1;stroke-dasharray:none" /><path
         d="m 1653.83,193.84 c -14.35,33.437 -26.84,67.711 -45.37,98.984 -14.18,22.985 -37.7,46.711 -42.09,74.235 -9.48,58.5 77.48,58.48 112.2,45.367"
         inkscape:connector-curvature="0"
         id="path56"
         style="fill:none;stroke:#231f20;stroke-width:4.12425995;stroke-linecap:butt;stroke-linejoin:miter;stroke-miterlimit:10;stroke-opacity:1;stroke-dasharray:none" /><path
         d="m 6413.23,424.801 c 17.5,-55.305 42.86,-84.707 103.1,-86.61 l 12.38,12.371"
         inkscape:connector-curvature="0"
         id="path58"
         style="fill:none;stroke:#231f20;stroke-width:4.12425995;stroke-linecap:butt;stroke-linejoin:miter;stroke-miterlimit:10;stroke-opacity:1;stroke-dasharray:none" /><path
         d="m 13709,226.836 -65.9,74.234 c -24.3,-15.488 -49.5,-32.078 -78.4,-37.48 -47.1,-8.856 -129.8,26.305 -106.2,86.586 19.6,50.465 86.3,69.324 135.1,66.375"
         inkscape:connector-curvature="0"
         id="path60"
         style="fill:none;stroke:#231f20;stroke-width:4.12425995;stroke-linecap:butt;stroke-linejoin:miter;stroke-miterlimit:10;stroke-opacity:1;stroke-dasharray:none" /><path
         d="m 14253.4,420.676 c -9.9,-34.961 -23.6,-70.805 -26.6,-107.231 -11.1,-131.976 223.9,-181.004 221.6,-32.996 -0.2,15.559 -3.8,30.918 -9.4,45.367 -8.2,20.622 -20.6,39.817 -35.9,55.489 -21.3,21.507 -46.5,29.703 -75.4,35.246"
         inkscape:connector-curvature="0"
         id="path62"
         style="fill:none;stroke:#231f20;stroke-width:4.12425995;stroke-linecap:butt;stroke-linejoin:miter;stroke-miterlimit:10;stroke-opacity:1;stroke-dasharray:none" /><path
         d="m 1014.57,226.836 c -15.117,17.457 -31.109,38.144 -54.238,44.957 -38.609,11.367 -137.586,-24.336 -103.082,58.148 3.648,8.727 8.492,16.899 13.891,24.747 7.711,10.91 16.64,21.222 26.48,30.41 15.078,14.09 32.27,23.203 50.961,31.453"
         inkscape:connector-curvature="0"
         id="path64"
         style="fill:none;stroke:#231f20;stroke-width:4.12425995;stroke-linecap:butt;stroke-linejoin:miter;stroke-miterlimit:10;stroke-opacity:1;stroke-dasharray:none" /><path
         d="m 1315.64,280.449 c -32.19,-22.554 -70.11,-45.367 -111.35,-37.117 -109.3,22.969 -53.62,147.629 20.62,173.219"
         inkscape:connector-curvature="0"
         id="path66"
         style="fill:none;stroke:#231f20;stroke-width:4.12425995;stroke-linecap:butt;stroke-linejoin:miter;stroke-miterlimit:10;stroke-opacity:1;stroke-dasharray:none" /><path
         d="m 7757.74,412.426 c 22.93,-5.442 45.37,-11.934 65.99,-23.778 13.02,-7.5 25.13,-16.699 35.77,-27.343 73.94,-74.004 -43.52,-145.852 -93.88,-75.137 -13.18,18.508 -17.82,42.07 -18.94,64.394 -1.32,22.016 3.23,41.243 11.06,61.864"
         inkscape:connector-curvature="0"
         id="path68"
         style="fill:none;stroke:#231f20;stroke-width:4.12425995;stroke-linecap:butt;stroke-linejoin:miter;stroke-miterlimit:10;stroke-opacity:1;stroke-dasharray:none" /><path
         d="m 7405.12,398.555 c 20.49,15.461 53.41,1.086 70.87,-12.371 38.42,-29.622 46.66,-84.758 3.87,-115.059 -78.43,-55.816 -125.43,89.187 -74.74,127.43"
         inkscape:connector-curvature="0"
         id="path70"
         style="fill:none;stroke:#231f20;stroke-width:4.12425995;stroke-linecap:butt;stroke-linejoin:miter;stroke-miterlimit:10;stroke-opacity:1;stroke-dasharray:none" /><path
         d="m 2210.61,404.176 c 2.72,-61.864 21.13,-123.055 41.24,-181.465"
         inkscape:connector-curvature="0"
         id="path72"
         style="fill:none;stroke:#231f20;stroke-width:4.12425995;stroke-linecap:butt;stroke-linejoin:miter;stroke-miterlimit:10;stroke-opacity:1;stroke-dasharray:none" /><path
         d="m 13886.4,404.176 c -22.2,-12.371 -47.2,-25.336 -57.7,-50.074 -18.6,-44.782 28.8,-91.059 70.1,-98.922 37.5,-7.133 69.6,12.898 98.9,33.519 34.8,-44.586 64.7,-135.637 28.9,-187.812 -38.3,-55.5198 -91.8,0.726 -94.8,47.586"
         inkscape:connector-curvature="0"
         id="path74"
         style="fill:none;stroke:#231f20;stroke-width:4.12425995;stroke-linecap:butt;stroke-linejoin:miter;stroke-miterlimit:10;stroke-opacity:1;stroke-dasharray:none" /><path
         d="m 2488.44,392.289 c 62.16,18.645 109.45,-119.559 35.2,-140.711 -70.31,-19.394 -92.68,123.731 -35.2,140.711"
         inkscape:connector-curvature="0"
         id="path76"
         style="fill:none;stroke:#231f20;stroke-width:4.12425995;stroke-linecap:butt;stroke-linejoin:miter;stroke-miterlimit:10;stroke-opacity:1;stroke-dasharray:none" /><path
         d="m 12405.8,375.309 28.8,-24.747 c 67.4,38.204 105.4,45.368 173.3,4.126 13.2,8.246 26.4,16.859 41.2,21.769 87.2,28.488 99,-88.891 107.2,-145.5"
         inkscape:connector-curvature="0"
         id="path78"
         style="fill:none;stroke:#231f20;stroke-width:4.12425995;stroke-linecap:butt;stroke-linejoin:miter;stroke-miterlimit:10;stroke-opacity:1;stroke-dasharray:none" /><path
         d="m 1476.48,387.68 78.37,-8.246"
         inkscape:connector-curvature="0"
         id="path80"
         style="fill:none;stroke:#231f20;stroke-width:4.12425995;stroke-linecap:butt;stroke-linejoin:miter;stroke-miterlimit:10;stroke-opacity:1;stroke-dasharray:none" /><path
         d="m 11993.4,379.434 32.9,0"
         inkscape:connector-curvature="0"
         id="path82"
         style="fill:none;stroke:#231f20;stroke-width:4.12425995;stroke-linecap:butt;stroke-linejoin:miter;stroke-miterlimit:10;stroke-opacity:1;stroke-dasharray:none" /><path
         d="m 11040.6,235.082 c 4.2,30.336 -1.8,69.238 12.4,96.938 16.5,32.421 65.1,49.453 93.2,22.668 33.7,-32.329 38.8,-87.563 59.4,-127.852"
         inkscape:connector-curvature="0"
         id="path84"
         style="fill:none;stroke:#231f20;stroke-width:4.12425995;stroke-linecap:butt;stroke-linejoin:miter;stroke-miterlimit:10;stroke-opacity:1;stroke-dasharray:none" /><path
         d="m 12038.7,375.309 4.1,-119.606"
         inkscape:connector-curvature="0"
         id="path86"
         style="fill:none;stroke:#231f20;stroke-width:4.12425995;stroke-linecap:butt;stroke-linejoin:miter;stroke-miterlimit:10;stroke-opacity:1;stroke-dasharray:none" /><path
         d="m 10835.1,362.934 c 78.9,23.179 106.6,-111.356 24.1,-133.825 -82.5,-22.343 -95.6,112.547 -24.1,133.825"
         inkscape:connector-curvature="0"
         id="path88"
         style="fill:none;stroke:#231f20;stroke-width:4.12425995;stroke-linecap:butt;stroke-linejoin:miter;stroke-miterlimit:10;stroke-opacity:1;stroke-dasharray:none" /><path
         d="m 11473.7,362.934 c -30,-11.872 -68.5,-21.989 -82.5,-54.403 -34.8,-79.492 74.2,-109.617 127.9,-81.695 31.8,-43.289 66.9,-147.8516 3.1,-181.4688 -39,-20.6211 -93.2,-3.082 -131,12.3711"
         inkscape:connector-curvature="0"
         id="path90"
         style="fill:none;stroke:#231f20;stroke-width:4.12425995;stroke-linecap:butt;stroke-linejoin:miter;stroke-miterlimit:10;stroke-opacity:1;stroke-dasharray:none" /><path
         d="m 12607.9,354.688 0,-107.231"
         inkscape:connector-curvature="0"
         id="path92"
         style="fill:none;stroke:#231f20;stroke-width:4.12425995;stroke-linecap:butt;stroke-linejoin:miter;stroke-miterlimit:10;stroke-opacity:1;stroke-dasharray:none" /><path
         d="m 13638.9,354.688 4.2,-53.618"
         inkscape:connector-curvature="0"
         id="path94"
         style="fill:none;stroke:#231f20;stroke-width:4.12425995;stroke-linecap:butt;stroke-linejoin:miter;stroke-miterlimit:10;stroke-opacity:1;stroke-dasharray:none" /><path
         d="m 6099.79,350.562 37.11,-16.496"
         inkscape:connector-curvature="0"
         id="path96"
         style="fill:none;stroke:#231f20;stroke-width:4.12425995;stroke-linecap:butt;stroke-linejoin:miter;stroke-miterlimit:10;stroke-opacity:1;stroke-dasharray:none" /><path
         d="m 12991.4,350.562 -41.2,-49.492 -49.5,-4.125"
         inkscape:connector-curvature="0"
         id="path98"
         style="fill:none;stroke:#231f20;stroke-width:4.12425995;stroke-linecap:butt;stroke-linejoin:miter;stroke-miterlimit:10;stroke-opacity:1;stroke-dasharray:none" /><path
         d="m 12434.6,346.438 4.2,-78.36"
         inkscape:connector-curvature="0"
         id="path100"
         style="fill:none;stroke:#231f20;stroke-width:4.12425995;stroke-linecap:butt;stroke-linejoin:miter;stroke-miterlimit:10;stroke-opacity:1;stroke-dasharray:none" /><path
         d="m 2837.49,338.191 c -21.52,-53.054 -91.87,-73.175 -144.35,-78.363"
         inkscape:connector-curvature="0"
         id="path102"
         style="fill:none;stroke:#231f20;stroke-width:4.12425995;stroke-linecap:butt;stroke-linejoin:miter;stroke-miterlimit:10;stroke-opacity:1;stroke-dasharray:none" /><path
         d="m 6520.46,334.066 c 10.52,-91.808 -6.71,-202.476 -24.75,-292.8238"
         inkscape:connector-curvature="0"
         id="path104"
         style="fill:none;stroke:#231f20;stroke-width:4.12425995;stroke-linecap:butt;stroke-linejoin:miter;stroke-miterlimit:10;stroke-opacity:1;stroke-dasharray:none" /><path
         d="m 13993.6,334.066 4.1,-45.367"
         inkscape:connector-curvature="0"
         id="path106"
         style="fill:none;stroke:#231f20;stroke-width:4.12425995;stroke-linecap:butt;stroke-linejoin:miter;stroke-miterlimit:10;stroke-opacity:1;stroke-dasharray:none" /><path
         d="m 9535.29,321.691 24.75,-156.722"
         inkscape:connector-curvature="0"
         id="path108"
         style="fill:none;stroke:#231f20;stroke-width:4.12425995;stroke-linecap:butt;stroke-linejoin:miter;stroke-miterlimit:10;stroke-opacity:1;stroke-dasharray:none" /><path
         d="m 2833.37,313.445 c 19.72,-26 32,-50.133 37.12,-82.488"
         inkscape:connector-curvature="0"
         id="path110"
         style="fill:none;stroke:#231f20;stroke-width:4.12425995;stroke-linecap:butt;stroke-linejoin:miter;stroke-miterlimit:10;stroke-opacity:1;stroke-dasharray:none" /><path
         d="m 10120.9,226.836 c -14.4,-12.375 -28.8,-25.586 -45.3,-35.168 -9.1,-5.121 -18.7,-9.32 -28.9,-11.043 -101.15,-17.063 -42.8,160.598 43.8,108.074 34.6,-21.129 49.1,-78.011 79.9,-107.23"
         inkscape:connector-curvature="0"
         id="path112"
         style="fill:none;stroke:#231f20;stroke-width:4.12425995;stroke-linecap:butt;stroke-linejoin:miter;stroke-miterlimit:10;stroke-opacity:1;stroke-dasharray:none" /><path
         d="m 12954.3,296.945 c 7.9,-32.629 21.3,-54.941 45.4,-78.359"
         inkscape:connector-curvature="0"
         id="path114"
         style="fill:none;stroke:#231f20;stroke-width:4.12425995;stroke-linecap:butt;stroke-linejoin:miter;stroke-miterlimit:10;stroke-opacity:1;stroke-dasharray:none" /><path
         d="m 11510.8,284.574 8.3,-57.738"
         inkscape:connector-curvature="0"
         id="path116"
         style="fill:none;stroke:#231f20;stroke-width:4.12425995;stroke-linecap:butt;stroke-linejoin:miter;stroke-miterlimit:10;stroke-opacity:1;stroke-dasharray:none" /></g></g></svg>