<?xml version="1.0" encoding="UTF-8" standalone="no"?>
<!-- Created with Inkscape (http://www.inkscape.org/) -->

<svg
   xmlns:dc="http://purl.org/dc/elements/1.1/"
   xmlns:cc="http://creativecommons.org/ns#"
   xmlns:rdf="http://www.w3.org/1999/02/22-rdf-syntax-ns#"
   xmlns:svg="http://www.w3.org/2000/svg"
   xmlns="http://www.w3.org/2000/svg"
   xmlns:inkscape="http://www.inkscape.org/namespaces/inkscape"
   version="1.1"
   width="4727.5"
   height="198.75"
   id="svg2"
   xml:space="preserve"><metadata
     id="metadata8"><rdf:RDF><cc:Work
         rdf:about=""><dc:format>image/svg+xml</dc:format><dc:type
           rdf:resource="http://purl.org/dc/dcmitype/StillImage" /></cc:Work></rdf:RDF></metadata><defs
     id="defs6" /><g
     transform="matrix(1.25,0,0,-1.25,0,198.75)"
     id="g10"><g
       transform="scale(0.257805,0.257805)"
       id="g12"><path
         d="m 13618.8,601.23 c 8.4,-65.511 2.9,-133.761 34.9,-193.945 22.3,17.969 47.2,45.328 77.6,46.547 44.6,1.809 75.5,-49.121 64.5,-89.215 -9.8,-34.91 -38.6,-56.715 -72.3,-65.941"
         inkscape:connector-curvature="0"
         id="path14"
         style="fill:none;stroke:#231f20;stroke-width:3.87890005;stroke-linecap:butt;stroke-linejoin:miter;stroke-miterlimit:10;stroke-opacity:1;stroke-dasharray:none" /><path
         d="m 14251.1,601.23 23.3,-186.187 27.1,0"
         inkscape:connector-curvature="0"
         id="path16"
         style="fill:none;stroke:#231f20;stroke-width:3.87890005;stroke-linecap:butt;stroke-linejoin:miter;stroke-miterlimit:10;stroke-opacity:1;stroke-dasharray:none" /><path
         d="m 14123.1,581.836 23.2,-162.914 -62,7.758"
         inkscape:connector-curvature="0"
         id="path18"
         style="fill:none;stroke:#231f20;stroke-width:3.87890005;stroke-linecap:butt;stroke-linejoin:miter;stroke-miterlimit:10;stroke-opacity:1;stroke-dasharray:none" /><path
         d="m 13126.2,558.562 c 2,-48.828 9.9,-103.062 31,-147.398 l 46.6,3.879"
         inkscape:connector-curvature="0"
         id="path20"
         style="fill:none;stroke:#231f20;stroke-width:3.87890005;stroke-linecap:butt;stroke-linejoin:miter;stroke-miterlimit:10;stroke-opacity:1;stroke-dasharray:none" /><path
         d="m 11919.9,550.805 42.6,-143.52 58.2,3.879"
         inkscape:connector-curvature="0"
         id="path22"
         style="fill:none;stroke:#231f20;stroke-width:3.87890005;stroke-linecap:butt;stroke-linejoin:miter;stroke-miterlimit:10;stroke-opacity:1;stroke-dasharray:none" /><path
         d="m 6807.47,535.289 c 35.71,-82.367 -3.88,-179.504 34.91,-256.008 18.76,11.047 37.53,23.887 58.18,31.031 100.85,35.387 147.4,-133.968 27.15,-140.023 -14.33,-0.723 -29.19,1.688 -42.17,8.141 -15.35,7.246 -27.22,19.859 -34.46,34.91 -8.7,19.394 -10.58,41.293 -12.58,62.062"
         inkscape:connector-curvature="0"
         id="path24"
         style="fill:none;stroke:#231f20;stroke-width:3.87890005;stroke-linecap:butt;stroke-linejoin:miter;stroke-miterlimit:10;stroke-opacity:1;stroke-dasharray:none" /><path
         d="m 9988.17,535.289 27.13,-232.734"
         inkscape:connector-curvature="0"
         id="path26"
         style="fill:none;stroke:#231f20;stroke-width:3.87890005;stroke-linecap:butt;stroke-linejoin:miter;stroke-miterlimit:10;stroke-opacity:1;stroke-dasharray:none" /><path
         d="m 12451.3,531.41 7.7,-116.367 -93.1,-3.879"
         inkscape:connector-curvature="0"
         id="path28"
         style="fill:none;stroke:#231f20;stroke-width:3.87890005;stroke-linecap:butt;stroke-linejoin:miter;stroke-miterlimit:10;stroke-opacity:1;stroke-dasharray:none" /><path
         d="m 6202.36,523.652 50.43,-174.55 62.06,11.636"
         inkscape:connector-curvature="0"
         id="path30"
         style="fill:none;stroke:#231f20;stroke-width:3.87890005;stroke-linecap:butt;stroke-linejoin:miter;stroke-miterlimit:10;stroke-opacity:1;stroke-dasharray:none" /><path
         d="m 1097.73,512.016 c 15.52,-79.258 12.83,-174.551 46.55,-248.25 19.39,10.73 39.46,24.125 62.06,24.996 47.41,1.82 81.45,-47 66.97,-90.938 -11.26,-34.023 -40.15,-54.672 -70.85,-69.82"
         inkscape:connector-curvature="0"
         id="path32"
         style="fill:none;stroke:#231f20;stroke-width:3.87890005;stroke-linecap:butt;stroke-linejoin:miter;stroke-miterlimit:10;stroke-opacity:1;stroke-dasharray:none" /><path
         d="m 10775.6,512.016 15.5,-69.821"
         inkscape:connector-curvature="0"
         id="path34"
         style="fill:none;stroke:#231f20;stroke-width:3.87890005;stroke-linecap:butt;stroke-linejoin:miter;stroke-miterlimit:10;stroke-opacity:1;stroke-dasharray:none" /><path
         d="m 11295.4,504.258 -7.8,-139.641 -139.6,3.879 c -2.2,6.434 -3.9,12.902 -7.8,18.793 -29.2,50.16 -51.8,-38.535 -64.7,-54.648 -19.6,-24.391 -49.2,-34.864 -55.5,-68.875 -8.7,-48.395 46.5,-77.578 69.8,-112.489"
         inkscape:connector-curvature="0"
         id="path36"
         style="fill:none;stroke:#231f20;stroke-width:3.87890005;stroke-linecap:butt;stroke-linejoin:miter;stroke-miterlimit:10;stroke-opacity:1;stroke-dasharray:none" /><path
         d="m 13905.9,399.527 c -9.3,8.614 -18.6,17.114 -24.3,28.688 -43.9,90.246 132.9,82.043 82.4,15.351 -5.6,-7.093 -12.5,-13.007 -19.4,-18.25 -12.2,-8.757 -25.6,-15.246 -38.7,-21.91 25.5,-40.531 60.2,-61.648 108.6,-58.183"
         inkscape:connector-curvature="0"
         id="path38"
         style="fill:none;stroke:#231f20;stroke-width:3.87890005;stroke-linecap:butt;stroke-linejoin:miter;stroke-miterlimit:10;stroke-opacity:1;stroke-dasharray:none" /><path
         d="m 9441.24,496.5 38.79,-128.004 c 23.27,17.066 53.91,53.727 84.72,53.172 37.95,-0.684 52.8,-63.852 62.68,-91.961"
         inkscape:connector-curvature="0"
         id="path40"
         style="fill:none;stroke:#231f20;stroke-width:3.87890005;stroke-linecap:butt;stroke-linejoin:miter;stroke-miterlimit:10;stroke-opacity:1;stroke-dasharray:none" /><path
         d="m 9732.16,333.586 c -32.56,51.113 -37.02,112.488 23.27,143.519"
         inkscape:connector-curvature="0"
         id="path42"
         style="fill:none;stroke:#231f20;stroke-width:3.87890005;stroke-linecap:butt;stroke-linejoin:miter;stroke-miterlimit:10;stroke-opacity:1;stroke-dasharray:none" /><path
         d="m 10209.3,224.977 c -26.1,55.425 -42.7,120.246 -36.5,182.308 4.2,43.016 32.1,69.82 75.3,62.063"
         inkscape:connector-curvature="0"
         id="path44"
         style="fill:none;stroke:#231f20;stroke-width:3.87890005;stroke-linecap:butt;stroke-linejoin:miter;stroke-miterlimit:10;stroke-opacity:1;stroke-dasharray:none" /><path
         d="m 7129.42,465.469 c 16.16,-99.164 15.51,-198.563 15.51,-298.676"
         inkscape:connector-curvature="0"
         id="path46"
         style="fill:none;stroke:#231f20;stroke-width:3.87890005;stroke-linecap:butt;stroke-linejoin:miter;stroke-miterlimit:10;stroke-opacity:1;stroke-dasharray:none" /><path
         d="m 12676.2,310.312 c -75.3,14.571 -123.1,128.61 -23.2,148.75 25.5,5.141 79.6,-12.988 57.6,-47.898 -13.7,-21.945 -46,-27.152 -69.3,-31.031"
         inkscape:connector-curvature="0"
         id="path48"
         style="fill:none;stroke:#231f20;stroke-width:3.87890005;stroke-linecap:butt;stroke-linejoin:miter;stroke-miterlimit:10;stroke-opacity:1;stroke-dasharray:none" /><path
         d="m 2905.3,453.832 15.51,-135.762 11.64,-7.758 50.43,7.758"
         inkscape:connector-curvature="0"
         id="path50"
         style="fill:none;stroke:#231f20;stroke-width:3.87890005;stroke-linecap:butt;stroke-linejoin:miter;stroke-miterlimit:10;stroke-opacity:1;stroke-dasharray:none" /><path
         d="m 8975.77,449.953 c 20.43,-68.824 38.31,-137.117 38.79,-209.461"
         inkscape:connector-curvature="0"
         id="path52"
         style="fill:none;stroke:#231f20;stroke-width:3.87890005;stroke-linecap:butt;stroke-linejoin:miter;stroke-miterlimit:10;stroke-opacity:1;stroke-dasharray:none" /><path
         d="m 7649.19,434.438 11.64,-151.278 -112.49,7.758"
         inkscape:connector-curvature="0"
         id="path54"
         style="fill:none;stroke:#231f20;stroke-width:3.87890005;stroke-linecap:butt;stroke-linejoin:miter;stroke-miterlimit:10;stroke-opacity:1;stroke-dasharray:none" /><path
         d="m 11481.5,279.281 c -13.9,11.637 -26.7,23.274 -35.4,39.305 -7.2,12.75 -11.8,27.457 -11.5,42.152 0.4,31.032 28.1,59.633 58.2,64.578 29.5,4.864 40.6,-23.711 28.2,-46.925 -4.5,-8 -10.4,-14.668 -16.2,-21.532"
         inkscape:connector-curvature="0"
         id="path56"
         style="fill:none;stroke:#231f20;stroke-width:3.87890005;stroke-linecap:butt;stroke-linejoin:miter;stroke-miterlimit:10;stroke-opacity:1;stroke-dasharray:none" /><path
         d="m 12881.8,434.438 c 11.7,-19.395 32.3,-44.926 32.7,-68.782 0.5,-33.097 -53.1,-66.98 -75.3,-86.375"
         inkscape:connector-curvature="0"
         id="path58"
         style="fill:none;stroke:#231f20;stroke-width:3.87890005;stroke-linecap:butt;stroke-linejoin:miter;stroke-miterlimit:10;stroke-opacity:1;stroke-dasharray:none" /><path
         d="m 14654.5,430.559 c -20.7,-25.774 -23.3,-49.27 -23.3,-81.457"
         inkscape:connector-curvature="0"
         id="path60"
         style="fill:none;stroke:#231f20;stroke-width:3.87890005;stroke-linecap:butt;stroke-linejoin:miter;stroke-miterlimit:10;stroke-opacity:1;stroke-dasharray:none" /><path
         d="m 11722,294.797 c -55.1,27.816 -71.3,96.973 -3.8,123.301 28.2,10.851 60.1,3.254 89.2,1.691 45.1,-2.418 90.6,-0.867 135.7,-0.867"
         inkscape:connector-curvature="0"
         id="path62"
         style="fill:none;stroke:#231f20;stroke-width:3.87890005;stroke-linecap:butt;stroke-linejoin:miter;stroke-miterlimit:10;stroke-opacity:1;stroke-dasharray:none" /><path
         d="m 14615.7,426.68 15.5,-11.637"
         inkscape:connector-curvature="0"
         id="path64"
         style="fill:none;stroke:#231f20;stroke-width:3.87890005;stroke-linecap:butt;stroke-linejoin:miter;stroke-miterlimit:10;stroke-opacity:1;stroke-dasharray:none" /><path
         d="m 11039.3,310.312 c -34.5,65.942 -2.6,114.668 69.9,108.61"
         inkscape:connector-curvature="0"
         id="path66"
         style="fill:none;stroke:#231f20;stroke-width:3.87890005;stroke-linecap:butt;stroke-linejoin:miter;stroke-miterlimit:10;stroke-opacity:1;stroke-dasharray:none" /><path
         d="m 14507.1,422.801 c -18.6,-8.774 -42.7,-16.746 -54.7,-34.43 -25.4,-36.848 14.6,-74.691 46.9,-85.816"
         inkscape:connector-curvature="0"
         id="path68"
         style="fill:none;stroke:#231f20;stroke-width:3.87890005;stroke-linecap:butt;stroke-linejoin:miter;stroke-miterlimit:10;stroke-opacity:1;stroke-dasharray:none" /><path
         d="m 217.219,418.922 c 4.668,-50.102 27.758,-78.192 69.82,-104.731 27.602,37.938 38.789,81.457 85.336,100.852 l 69.82,-271.523"
         inkscape:connector-curvature="0"
         id="path70"
         style="fill:none;stroke:#231f20;stroke-width:3.87890005;stroke-linecap:butt;stroke-linejoin:miter;stroke-miterlimit:10;stroke-opacity:1;stroke-dasharray:none" /><path
         d="m 8808.98,418.922 27.15,-186.188"
         inkscape:connector-curvature="0"
         id="path72"
         style="fill:none;stroke:#231f20;stroke-width:3.87890005;stroke-linecap:butt;stroke-linejoin:miter;stroke-miterlimit:10;stroke-opacity:1;stroke-dasharray:none" /><path
         d="m 13048.6,418.922 93.1,0"
         inkscape:connector-curvature="0"
         id="path74"
         style="fill:none;stroke:#231f20;stroke-width:3.87890005;stroke-linecap:butt;stroke-linejoin:miter;stroke-miterlimit:10;stroke-opacity:1;stroke-dasharray:none" /><path
         d="m 14146.3,418.922 c 40.7,-20.133 80.7,-12.512 124.2,-7.758 l 3.9,-81.457"
         inkscape:connector-curvature="0"
         id="path76"
         style="fill:none;stroke:#231f20;stroke-width:3.87890005;stroke-linecap:butt;stroke-linejoin:miter;stroke-miterlimit:10;stroke-opacity:1;stroke-dasharray:none" /><path
         d="m 12459,415.043 23.3,-143.52"
         inkscape:connector-curvature="0"
         id="path78"
         style="fill:none;stroke:#231f20;stroke-width:3.87890005;stroke-linecap:butt;stroke-linejoin:miter;stroke-miterlimit:10;stroke-opacity:1;stroke-dasharray:none" /><path
         d="m 12974.9,415.043 -50.4,-42.668"
         inkscape:connector-curvature="0"
         id="path80"
         style="fill:none;stroke:#231f20;stroke-width:3.87890005;stroke-linecap:butt;stroke-linejoin:miter;stroke-miterlimit:10;stroke-opacity:1;stroke-dasharray:none" /><path
         d="m 13157.2,411.164 7.8,-77.578"
         inkscape:connector-curvature="0"
         id="path82"
         style="fill:none;stroke:#231f20;stroke-width:3.87890005;stroke-linecap:butt;stroke-linejoin:miter;stroke-miterlimit:10;stroke-opacity:1;stroke-dasharray:none" /><path
         d="m 11962.5,407.285 7.8,-108.609"
         inkscape:connector-curvature="0"
         id="path84"
         style="fill:none;stroke:#231f20;stroke-width:3.87890005;stroke-linecap:butt;stroke-linejoin:miter;stroke-miterlimit:10;stroke-opacity:1;stroke-dasharray:none" /><path
         d="m 13653.7,407.285 3.9,-46.547"
         inkscape:connector-curvature="0"
         id="path86"
         style="fill:none;stroke:#231f20;stroke-width:3.87890005;stroke-linecap:butt;stroke-linejoin:miter;stroke-miterlimit:10;stroke-opacity:1;stroke-dasharray:none" /><path
         d="m 14158,407.285 -3.9,-58.183"
         inkscape:connector-curvature="0"
         id="path88"
         style="fill:none;stroke:#231f20;stroke-width:3.87890005;stroke-linecap:butt;stroke-linejoin:miter;stroke-miterlimit:10;stroke-opacity:1;stroke-dasharray:none" /><path
         d="m 9833.01,399.527 -19.39,-27.152"
         inkscape:connector-curvature="0"
         id="path90"
         style="fill:none;stroke:#231f20;stroke-width:3.87890005;stroke-linecap:butt;stroke-linejoin:miter;stroke-miterlimit:10;stroke-opacity:1;stroke-dasharray:none" /><path
         d="m 5116.27,201.703 c -5.49,56.359 -2.84,96.129 32.63,143.52 13.43,17.527 34.96,39.66 59.58,31.031 35.79,-13.168 53.77,-65.942 78.46,-93.094 19.4,19.981 39.45,56.664 67.01,65.094 52.67,16.363 87.25,-93.223 103.66,-127.156"
         inkscape:connector-curvature="0"
         id="path92"
         style="fill:none;stroke:#231f20;stroke-width:3.87890005;stroke-linecap:butt;stroke-linejoin:miter;stroke-miterlimit:10;stroke-opacity:1;stroke-dasharray:none" /><path
         d="m 2447.59,155.156 c -14.12,71.989 -27.16,166.145 34.91,221.098"
         inkscape:connector-curvature="0"
         id="path94"
         style="fill:none;stroke:#231f20;stroke-width:3.87890005;stroke-linecap:butt;stroke-linejoin:miter;stroke-miterlimit:10;stroke-opacity:1;stroke-dasharray:none" /><path
         d="m 10302.4,376.254 -27.2,-31.031"
         inkscape:connector-curvature="0"
         id="path96"
         style="fill:none;stroke:#231f20;stroke-width:3.87890005;stroke-linecap:butt;stroke-linejoin:miter;stroke-miterlimit:10;stroke-opacity:1;stroke-dasharray:none" /><path
         d="m 8603.4,368.496 c 23.87,-38.297 36.62,-79.535 42.67,-124.125"
         inkscape:connector-curvature="0"
         id="path98"
         style="fill:none;stroke:#231f20;stroke-width:3.87890005;stroke-linecap:butt;stroke-linejoin:miter;stroke-miterlimit:10;stroke-opacity:1;stroke-dasharray:none" /><path
         d="m 9480.03,368.496 0,-46.547"
         inkscape:connector-curvature="0"
         id="path100"
         style="fill:none;stroke:#231f20;stroke-width:3.87890005;stroke-linecap:butt;stroke-linejoin:miter;stroke-miterlimit:10;stroke-opacity:1;stroke-dasharray:none" /><path
         d="m 10701.9,213.34 c -15.5,18.508 -34.9,39.953 -33.4,65.941 4.4,65.942 102.1,99.664 153.6,73.699"
         inkscape:connector-curvature="0"
         id="path102"
         style="fill:none;stroke:#231f20;stroke-width:3.87890005;stroke-linecap:butt;stroke-linejoin:miter;stroke-miterlimit:10;stroke-opacity:1;stroke-dasharray:none" /><path
         d="m 11144.1,364.617 c -16.4,-28.551 -34.9,-47.422 -69.8,-42.668"
         inkscape:connector-curvature="0"
         id="path104"
         style="fill:none;stroke:#231f20;stroke-width:3.87890005;stroke-linecap:butt;stroke-linejoin:miter;stroke-miterlimit:10;stroke-opacity:1;stroke-dasharray:none" /><path
         d="m 11287.6,364.617 58.2,0"
         inkscape:connector-curvature="0"
         id="path106"
         style="fill:none;stroke:#231f20;stroke-width:3.87890005;stroke-linecap:butt;stroke-linejoin:miter;stroke-miterlimit:10;stroke-opacity:1;stroke-dasharray:none" /><path
         d="M 224.977,360.738 C 188.254,297.703 206.301,205.582 209.461,135.762"
         inkscape:connector-curvature="0"
         id="path108"
         style="fill:none;stroke:#231f20;stroke-width:3.87890005;stroke-linecap:butt;stroke-linejoin:miter;stroke-miterlimit:10;stroke-opacity:1;stroke-dasharray:none" /><path
         d="m 6179.09,333.586 58.18,23.273"
         inkscape:connector-curvature="0"
         id="path110"
         style="fill:none;stroke:#231f20;stroke-width:3.87890005;stroke-linecap:butt;stroke-linejoin:miter;stroke-miterlimit:10;stroke-opacity:1;stroke-dasharray:none" /><path
         d="m 11295.4,356.859 0,-46.547"
         inkscape:connector-curvature="0"
         id="path112"
         style="fill:none;stroke:#231f20;stroke-width:3.87890005;stroke-linecap:butt;stroke-linejoin:miter;stroke-miterlimit:10;stroke-opacity:1;stroke-dasharray:none" /><path
         d="m 1427.43,279.281 c 11.64,41.981 39.95,71 85.34,62.063 -17.76,-35.461 -45.31,-58.184 -85.34,-62.063 -43.63,-72.758 28.62,-109.949 93.1,-112.488"
         inkscape:connector-curvature="0"
         id="path114"
         style="fill:none;stroke:#231f20;stroke-width:3.87890005;stroke-linecap:butt;stroke-linejoin:miter;stroke-miterlimit:10;stroke-opacity:1;stroke-dasharray:none" /><path
         d="m 6252.79,349.102 0,-170.672"
         inkscape:connector-curvature="0"
         id="path116"
         style="fill:none;stroke:#231f20;stroke-width:3.87890005;stroke-linecap:butt;stroke-linejoin:miter;stroke-miterlimit:10;stroke-opacity:1;stroke-dasharray:none" /><path
         d="m 8487.04,349.102 c 4.73,-29.985 33.56,-122.793 -20.49,-125.11 -24.55,-1.051 -50.69,18.82 -72.61,28.137 l 0,27.152"
         inkscape:connector-curvature="0"
         id="path118"
         style="fill:none;stroke:#231f20;stroke-width:3.87890005;stroke-linecap:butt;stroke-linejoin:miter;stroke-miterlimit:10;stroke-opacity:1;stroke-dasharray:none" /><path
         d="m 12920.6,349.102 66,-65.942"
         inkscape:connector-curvature="0"
         id="path120"
         style="fill:none;stroke:#231f20;stroke-width:3.87890005;stroke-linecap:butt;stroke-linejoin:miter;stroke-miterlimit:10;stroke-opacity:1;stroke-dasharray:none" /><path
         d="m 3308.7,190.066 c -0.62,65.942 44.33,190.067 135.76,145.075 43.4,-21.489 65.95,-76.411 93.1,-114.043"
         inkscape:connector-curvature="0"
         id="path122"
         style="fill:none;stroke:#231f20;stroke-width:3.87890005;stroke-linecap:butt;stroke-linejoin:miter;stroke-miterlimit:10;stroke-opacity:1;stroke-dasharray:none" /><path
         d="m 3688.83,23.2734 c 38.79,-4.3398 77.58,-3.4179 112.49,16.9844 65.94,38.7969 71.21,119.6682 21.52,174.7262 -33.16,36.411 -76.88,-24.449 -106.12,23.016 -33.26,54 22.54,103.344 72.96,107.223"
         inkscape:connector-curvature="0"
         id="path124"
         style="fill:none;stroke:#231f20;stroke-width:3.87890005;stroke-linecap:butt;stroke-linejoin:miter;stroke-miterlimit:10;stroke-opacity:1;stroke-dasharray:none" /><path
         d="m 5069.72,345.223 38.79,-62.063"
         inkscape:connector-curvature="0"
         id="path126"
         style="fill:none;stroke:#231f20;stroke-width:3.87890005;stroke-linecap:butt;stroke-linejoin:miter;stroke-miterlimit:10;stroke-opacity:1;stroke-dasharray:none" /><path
         d="m 5511.92,341.344 c 39.29,-64.5 82.15,-72.711 147.4,-35.559 13.71,7.813 43.31,16.512 46.54,31.68"
         inkscape:connector-curvature="0"
         id="path128"
         style="fill:none;stroke:#231f20;stroke-width:3.87890005;stroke-linecap:butt;stroke-linejoin:miter;stroke-miterlimit:10;stroke-opacity:1;stroke-dasharray:none" /><path
         d="m 6640.68,287.039 c -35.26,-26.25 -88.57,-59.297 -133.64,-34.91 -59.6,31.984 30.03,82.711 59.94,89.215"
         inkscape:connector-curvature="0"
         id="path130"
         style="fill:none;stroke:#231f20;stroke-width:3.87890005;stroke-linecap:butt;stroke-linejoin:miter;stroke-miterlimit:10;stroke-opacity:1;stroke-dasharray:none" /><path
         d="m 4553.83,174.551 c 4.6,53.64 7.76,91.094 48.43,130.867 15.77,15.461 38.78,32.047 60.18,17.141 34.48,-23.469 43.12,-83.336 65.94,-116.977"
         inkscape:connector-curvature="0"
         id="path132"
         style="fill:none;stroke:#231f20;stroke-width:3.87890005;stroke-linecap:butt;stroke-linejoin:miter;stroke-miterlimit:10;stroke-opacity:1;stroke-dasharray:none" /><path
         d="m 7354.39,302.555 c 18.01,21.09 34.27,29.011 62.07,27.152 -17.6,-25.168 -35.68,-33.582 -65.94,-27.152 -68.55,-46.547 -68.21,-118.59 15.51,-147.399"
         inkscape:connector-curvature="0"
         id="path134"
         style="fill:none;stroke:#231f20;stroke-width:3.87890005;stroke-linecap:butt;stroke-linejoin:miter;stroke-miterlimit:10;stroke-opacity:1;stroke-dasharray:none" /><path
         d="m 729.234,329.707 c 24,-31.031 46.547,-69.148 81.457,-89.215 61.504,-35.683 95.821,20.262 96.973,73.699"
         inkscape:connector-curvature="0"
         id="path136"
         style="fill:none;stroke:#231f20;stroke-width:3.87890005;stroke-linecap:butt;stroke-linejoin:miter;stroke-miterlimit:10;stroke-opacity:1;stroke-dasharray:none" /><path
         d="m 8172.84,329.707 c -9.41,-27.152 -18.46,-56.918 -7.75,-84.988 20.12,-53.039 112.48,-81.805 162.91,-61.164 29.5,12.3 47.62,37.543 62.06,64.695"
         inkscape:connector-curvature="0"
         id="path138"
         style="fill:none;stroke:#231f20;stroke-width:3.87890005;stroke-linecap:butt;stroke-linejoin:miter;stroke-miterlimit:10;stroke-opacity:1;stroke-dasharray:none" /><path
         d="m 4356,321.949 c 20.35,-10.816 39.3,-22.551 54.75,-39.976 10.67,-12.035 19.98,-25.965 24.75,-41.481 30.99,-100.851 -148.09,-148.8045 -160.27,-31.031 -1.48,14.328 0.3,28.898 4.6,42.668 6.35,21.043 19.1,37.914 33.51,54.305"
         inkscape:connector-curvature="0"
         id="path140"
         style="fill:none;stroke:#231f20;stroke-width:3.87890005;stroke-linecap:butt;stroke-linejoin:miter;stroke-miterlimit:10;stroke-opacity:1;stroke-dasharray:none" /><path
         d="m 5709.74,321.949 c 0,-106.054 -0.43,-214.828 -42.67,-314.19119"
         inkscape:connector-curvature="0"
         id="path142"
         style="fill:none;stroke:#231f20;stroke-width:3.87890005;stroke-linecap:butt;stroke-linejoin:miter;stroke-miterlimit:10;stroke-opacity:1;stroke-dasharray:none" /><path
         d="m 2854.87,302.555 62.06,11.636"
         inkscape:connector-curvature="0"
         id="path144"
         style="fill:none;stroke:#231f20;stroke-width:3.87890005;stroke-linecap:butt;stroke-linejoin:miter;stroke-miterlimit:10;stroke-opacity:1;stroke-dasharray:none" /><path
         d="m 290.918,310.312 3.879,-58.183"
         inkscape:connector-curvature="0"
         id="path146"
         style="fill:none;stroke:#231f20;stroke-width:3.87890005;stroke-linecap:butt;stroke-linejoin:miter;stroke-miterlimit:10;stroke-opacity:1;stroke-dasharray:none" /><path
         d="m 2932.45,306.434 15.51,-93.094"
         inkscape:connector-curvature="0"
         id="path148"
         style="fill:none;stroke:#231f20;stroke-width:3.87890005;stroke-linecap:butt;stroke-linejoin:miter;stroke-miterlimit:10;stroke-opacity:1;stroke-dasharray:none" /><path
         d="m 4522.8,306.434 34.91,-50.426"
         inkscape:connector-curvature="0"
         id="path150"
         style="fill:none;stroke:#231f20;stroke-width:3.87890005;stroke-linecap:butt;stroke-linejoin:miter;stroke-miterlimit:10;stroke-opacity:1;stroke-dasharray:none" /><path
         d="m 1974.36,302.555 c 4.61,-51.434 1.75,-130.684 51.55,-161.219 60.02,-36.606 91.14,15.473 139.8,39.187 22.49,10.957 52.1,3.348 64.66,30.317 12.67,27.074 -2.26,61.984 -11.64,87.836"
         inkscape:connector-curvature="0"
         id="path152"
         style="fill:none;stroke:#231f20;stroke-width:3.87890005;stroke-linecap:butt;stroke-linejoin:miter;stroke-miterlimit:10;stroke-opacity:1;stroke-dasharray:none" /><path
         d="M 2664.8,290.918 2680.32,178.43"
         inkscape:connector-curvature="0"
         id="path154"
         style="fill:none;stroke:#231f20;stroke-width:3.87890005;stroke-linecap:butt;stroke-linejoin:miter;stroke-miterlimit:10;stroke-opacity:1;stroke-dasharray:none" /><path
         d="m 5286.94,283.16 0,-54.305"
         inkscape:connector-curvature="0"
         id="path156"
         style="fill:none;stroke:#231f20;stroke-width:3.87890005;stroke-linecap:butt;stroke-linejoin:miter;stroke-miterlimit:10;stroke-opacity:1;stroke-dasharray:none" /><path
         d="m 10837.6,283.16 c -11.2,-40.109 -48.3,-128.902 -100.8,-89.215 l 0,0"
         inkscape:connector-curvature="0"
         id="path158"
         style="fill:none;stroke:#231f20;stroke-width:3.87890005;stroke-linecap:butt;stroke-linejoin:miter;stroke-miterlimit:10;stroke-opacity:1;stroke-dasharray:none" /><path
         d="m 3118.64,279.281 15.51,-81.457"
         inkscape:connector-curvature="0"
         id="path160"
         style="fill:none;stroke:#231f20;stroke-width:3.87890005;stroke-linecap:butt;stroke-linejoin:miter;stroke-miterlimit:10;stroke-opacity:1;stroke-dasharray:none" /><path
         d="m 6636.8,279.281 23.27,-38.789"
         inkscape:connector-curvature="0"
         id="path162"
         style="fill:none;stroke:#231f20;stroke-width:3.87890005;stroke-linecap:butt;stroke-linejoin:miter;stroke-miterlimit:10;stroke-opacity:1;stroke-dasharray:none" /><path
         d="m 7664.71,174.551 0,104.73 27.15,0"
         inkscape:connector-curvature="0"
         id="path164"
         style="fill:none;stroke:#231f20;stroke-width:3.87890005;stroke-linecap:butt;stroke-linejoin:miter;stroke-miterlimit:10;stroke-opacity:1;stroke-dasharray:none" /><path
         d="m 628.383,271.523 c 9.246,-50.785 -27.153,-74.066 -65.942,-100.152 -14.199,-9.539 -36.152,-25.672 -54.304,-20.094 -34.16,10.551 12.879,59.645 24.035,69.227 10.875,9.129 22.152,17.308 34.148,24.539 19.395,11.769 40.477,19.457 62.063,26.48"
         inkscape:connector-curvature="0"
         id="path166"
         style="fill:none;stroke:#231f20;stroke-width:3.87890005;stroke-linecap:butt;stroke-linejoin:miter;stroke-miterlimit:10;stroke-opacity:1;stroke-dasharray:none" /><path
         d="m 1140.4,259.887 0,-27.153"
         inkscape:connector-curvature="0"
         id="path168"
         style="fill:none;stroke:#231f20;stroke-width:3.87890005;stroke-linecap:butt;stroke-linejoin:miter;stroke-miterlimit:10;stroke-opacity:1;stroke-dasharray:none" /><path
         d="M 899.906,244.371 930.938,69.8203"
         inkscape:connector-curvature="0"
         id="path170"
         style="fill:none;stroke:#231f20;stroke-width:3.87890005;stroke-linecap:butt;stroke-linejoin:miter;stroke-miterlimit:10;stroke-opacity:1;stroke-dasharray:none" /><path
         d="m 632.262,221.098 c 17.152,-25.575 28.449,-53.414 58.183,-65.942"
         inkscape:connector-curvature="0"
         id="path172"
         style="fill:none;stroke:#231f20;stroke-width:3.87890005;stroke-linecap:butt;stroke-linejoin:miter;stroke-miterlimit:10;stroke-opacity:1;stroke-dasharray:none" /></g></g></svg>