<?xml version="1.0" encoding="UTF-8" standalone="no"?>
<!-- Created with Inkscape (http://www.inkscape.org/) -->

<svg
   xmlns:dc="http://purl.org/dc/elements/1.1/"
   xmlns:cc="http://creativecommons.org/ns#"
   xmlns:rdf="http://www.w3.org/1999/02/22-rdf-syntax-ns#"
   xmlns:svg="http://www.w3.org/2000/svg"
   xmlns="http://www.w3.org/2000/svg"
   xmlns:inkscape="http://www.inkscape.org/namespaces/inkscape"
   version="1.1"
   width="4868.75"
   height="188.75"
   id="svg2"
   xml:space="preserve"><metadata
     id="metadata8"><rdf:RDF><cc:Work
         rdf:about=""><dc:format>image/svg+xml</dc:format><dc:type
           rdf:resource="http://purl.org/dc/dcmitype/StillImage" /></cc:Work></rdf:RDF></metadata><defs
     id="defs6" /><g
     transform="matrix(1.25,0,0,-1.25,0,188.75)"
     id="g10"><g
       transform="scale(0.265508,0.265508)"
       id="g12"><path
         d="m 4022.48,542.355 c 26.36,-50.269 19.44,-124.289 56.5,-165.718"
         inkscape:connector-curvature="0"
         id="path14"
         style="fill:none;stroke:#231f20;stroke-width:3.76637006;stroke-linecap:butt;stroke-linejoin:miter;stroke-miterlimit:10;stroke-opacity:1;stroke-dasharray:none" /><path
         d="m 14432.7,531.059 c 37.3,-87.332 46.9,-196.329 33.3,-290.012 -6.9,-48.961 -35.4,-100.18 -93.5,-85.832 -35.5,8.765 -70.2,41.91 -77.4,78.301 -9.3,46.035 35.1,68.339 73.6,56.496"
         inkscape:connector-curvature="0"
         id="path16"
         style="fill:none;stroke:#231f20;stroke-width:3.76637006;stroke-linecap:butt;stroke-linejoin:miter;stroke-miterlimit:10;stroke-opacity:1;stroke-dasharray:none" /><path
         d="m 2779.58,527.293 c 43.49,-88.734 -1.65,-194.969 22.6,-290.012"
         inkscape:connector-curvature="0"
         id="path18"
         style="fill:none;stroke:#231f20;stroke-width:3.76637006;stroke-linecap:butt;stroke-linejoin:miter;stroke-miterlimit:10;stroke-opacity:1;stroke-dasharray:none" /><path
         d="m 12798.1,523.523 15.1,-15.062"
         inkscape:connector-curvature="0"
         id="path20"
         style="fill:none;stroke:#231f20;stroke-width:3.76637006;stroke-linecap:butt;stroke-linejoin:miter;stroke-miterlimit:10;stroke-opacity:1;stroke-dasharray:none" /><path
         d="m 13517.5,500.926 c 15.8,-92.383 -12,-226.488 71.6,-290.008 7.1,-17.887 15,-35.469 23.7,-52.73 5.6,-10.833 11.8,-21.672 20.9,-30.133 83,-75.9964 118,141.25 4.3,108.086 -17.5,-5.121 -33.4,-15.993 -48.9,-25.223"
         inkscape:connector-curvature="0"
         id="path22"
         style="fill:none;stroke:#231f20;stroke-width:3.76637006;stroke-linecap:butt;stroke-linejoin:miter;stroke-miterlimit:10;stroke-opacity:1;stroke-dasharray:none" /><path
         d="m 6414.12,474.562 c 45.82,-65.32 28.83,-148.011 71.56,-210.917 -6.46,-30.762 -3.25,-57.239 7.54,-86.625"
         inkscape:connector-curvature="0"
         id="path24"
         style="fill:none;stroke:#231f20;stroke-width:3.76637006;stroke-linecap:butt;stroke-linejoin:miter;stroke-miterlimit:10;stroke-opacity:1;stroke-dasharray:none" /><path
         d="m 4952.77,467.031 c 49.84,-80.343 13.38,-183.91 45.2,-271.179"
         inkscape:connector-curvature="0"
         id="path26"
         style="fill:none;stroke:#231f20;stroke-width:3.76637006;stroke-linecap:butt;stroke-linejoin:miter;stroke-miterlimit:10;stroke-opacity:1;stroke-dasharray:none" /><path
         d="m 3257.91,241.047 c 14.6,13.074 31.71,27.633 30.13,48.965 -3.07,44.48 -111.13,124.289 -29.4,159.304 7.99,3.411 16.7,5.028 25.63,5.164 11.3,0.18 22.6,-3.003 33.9,-6.281"
         inkscape:connector-curvature="0"
         id="path28"
         style="fill:none;stroke:#231f20;stroke-width:3.76637006;stroke-linecap:butt;stroke-linejoin:miter;stroke-miterlimit:10;stroke-opacity:1;stroke-dasharray:none" /><path
         d="m 3544.15,180.785 c 12.73,8.375 25.44,16.789 36.73,27.094 65.37,59.531 -8.42,103.656 -55.56,141.101 -37.27,29.875 -69.61,73.961 -15.07,102.985"
         inkscape:connector-curvature="0"
         id="path30"
         style="fill:none;stroke:#231f20;stroke-width:3.76637006;stroke-linecap:butt;stroke-linejoin:miter;stroke-miterlimit:10;stroke-opacity:1;stroke-dasharray:none" /><path
         d="m 12274.6,451.965 45.2,-184.555 c 22.6,9.938 49.6,23.731 75.3,23.477 64,-0.875 65.7,-103.977 79.1,-147.766"
         inkscape:connector-curvature="0"
         id="path32"
         style="fill:none;stroke:#231f20;stroke-width:3.76637006;stroke-linecap:butt;stroke-linejoin:miter;stroke-miterlimit:10;stroke-opacity:1;stroke-dasharray:none" /><path
         d="m 11438.5,448.199 53.1,-82.863 29.7,-86.625 c 22.6,11.301 52,34.691 78.3,33.019 42.7,-2.886 57.3,-93.281 76.1,-123.41"
         inkscape:connector-curvature="0"
         id="path34"
         style="fill:none;stroke:#231f20;stroke-width:3.76637006;stroke-linecap:butt;stroke-linejoin:miter;stroke-miterlimit:10;stroke-opacity:1;stroke-dasharray:none" /><path
         d="m 8835.9,444.43 c 25.21,-32.34 45.19,-65.637 56.49,-105.457 11.3,-41.43 11.3,-82.86 33.9,-120.524 20.12,10.797 39.46,24.035 60.26,33.414 33.9,15.184 58.69,-1.965 72.68,-33.414 21.48,-48.961 19.36,-110.148 66.68,-143.1209"
         inkscape:connector-curvature="0"
         id="path36"
         style="fill:none;stroke:#231f20;stroke-width:3.76637006;stroke-linecap:butt;stroke-linejoin:miter;stroke-miterlimit:10;stroke-opacity:1;stroke-dasharray:none" /><path
         d="m 210.918,312.609 c 2.738,40.207 11.687,70.254 37.664,101.692 31.586,-19.196 65.965,-51.414 105.457,-37.184 30.512,10.821 67.359,65.477 102.848,51.821 20.957,-8.071 27.398,-36.727 31.765,-56.067 10.371,-45.906 17.453,-91.148 42.407,-131.824"
         inkscape:connector-curvature="0"
         id="path38"
         style="fill:none;stroke:#231f20;stroke-width:3.76637006;stroke-linecap:butt;stroke-linejoin:miter;stroke-miterlimit:10;stroke-opacity:1;stroke-dasharray:none" /><path
         d="m 2982.96,327.676 c -37.66,47.41 33.9,130.734 72.58,82.394 10.28,-13.082 5.79,-30.543 -3.17,-43.004 -15.09,-20.984 -46.81,-24.328 -59.76,-44.75 -27.68,-44.101 46.85,-67.55 76.98,-61.136 15.98,3.461 30.58,10 45.2,17.531"
         inkscape:connector-curvature="0"
         id="path40"
         style="fill:none;stroke:#231f20;stroke-width:3.76637006;stroke-linecap:butt;stroke-linejoin:miter;stroke-miterlimit:10;stroke-opacity:1;stroke-dasharray:none" /><path
         d="m 248.582,421.832 0,-7.531"
         inkscape:connector-curvature="0"
         id="path42"
         style="fill:none;stroke:#231f20;stroke-width:3.76637006;stroke-linecap:butt;stroke-linejoin:miter;stroke-miterlimit:10;stroke-opacity:1;stroke-dasharray:none" /><path
         d="m 1122.38,241.047 c -75.33,121.156 60.26,201.043 169.48,158.187"
         inkscape:connector-curvature="0"
         id="path44"
         style="fill:none;stroke:#231f20;stroke-width:3.76637006;stroke-linecap:butt;stroke-linejoin:miter;stroke-miterlimit:10;stroke-opacity:1;stroke-dasharray:none" /><path
         d="m 1935.91,414.301 c -7.17,-48.145 -19.6,-111.43 13.03,-153.074 37.16,-47.438 98.32,-30.2 126.33,17.484 14.3,25.348 13.37,54.844 11.3,82.859"
         inkscape:connector-curvature="0"
         id="path46"
         style="fill:none;stroke:#231f20;stroke-width:3.76637006;stroke-linecap:butt;stroke-linejoin:miter;stroke-miterlimit:10;stroke-opacity:1;stroke-dasharray:none" /><path
         d="m 2482.04,327.676 c -1.49,12.816 -2.43,25.105 1.63,37.66 8.74,26.918 39.25,50.223 68.45,41.031 27.84,-8.754 23.4,-40.519 2.93,-54.652 -7.32,-5.211 -15.78,-8.231 -24.05,-11.004 -17.65,-5.504 -35.39,-10.399 -52.73,-16.805 18.09,-88.047 95.37,-100.273 165.72,-56.496"
         inkscape:connector-curvature="0"
         id="path48"
         style="fill:none;stroke:#231f20;stroke-width:3.76637006;stroke-linecap:butt;stroke-linejoin:miter;stroke-miterlimit:10;stroke-opacity:1;stroke-dasharray:none" /><path
         d="m 6674,414.301 c 33.14,-49.867 40,-100.508 48.96,-158.188 l -79.09,-3.765"
         inkscape:connector-curvature="0"
         id="path50"
         style="fill:none;stroke:#231f20;stroke-width:3.76637006;stroke-linecap:butt;stroke-linejoin:miter;stroke-miterlimit:10;stroke-opacity:1;stroke-dasharray:none" /><path
         d="m 1476.41,323.906 c -3.76,9.965 -7.96,19.649 -8.91,30.481 -6.79,77.461 93.07,33.136 50,-8.778 -10.16,-9.894 -23.91,-16.504 -35.78,-24.097 -13.95,-8.903 -27.01,-15.676 -42.97,-20.203"
         inkscape:connector-curvature="0"
         id="path52"
         style="fill:none;stroke:#231f20;stroke-width:3.76637006;stroke-linecap:butt;stroke-linejoin:miter;stroke-miterlimit:10;stroke-opacity:1;stroke-dasharray:none" /><path
         d="m 2222.16,222.215 c 8.86,2.836 17.88,5.469 26.36,9.711 59.82,30.539 0,81.344 -21.57,114.578 -22.25,33.898 -5.31,58.715 32.87,56.496"
         inkscape:connector-curvature="0"
         id="path54"
         style="fill:none;stroke:#231f20;stroke-width:3.76637006;stroke-linecap:butt;stroke-linejoin:miter;stroke-miterlimit:10;stroke-opacity:1;stroke-dasharray:none" /><path
         d="m 4335.09,312.609 c -3.77,8.766 -7.21,17.329 -8.55,26.782 -10.85,76.121 92.78,17.023 36.86,-12.684 -8.82,-4.687 -18.86,-7.277 -28.31,-10.332 9.1,-47.156 29.68,-75.949 79.09,-82.859"
         inkscape:connector-curvature="0"
         id="path56"
         style="fill:none;stroke:#231f20;stroke-width:3.76637006;stroke-linecap:butt;stroke-linejoin:miter;stroke-miterlimit:10;stroke-opacity:1;stroke-dasharray:none" /><path
         d="M 4067.68,376.637 4052.61,203.383"
         inkscape:connector-curvature="0"
         id="path58"
         style="fill:none;stroke:#231f20;stroke-width:3.76637006;stroke-linecap:butt;stroke-linejoin:miter;stroke-miterlimit:10;stroke-opacity:1;stroke-dasharray:none" /><path
         d="m 774.965,362.387 c 61.168,28.746 153.887,-108.207 75.375,-142.992 -53.457,-23.543 -89.535,42.539 -93.84,85.679 -1.871,19.309 -2.367,47.524 18.465,57.313"
         inkscape:connector-curvature="0"
         id="path60"
         style="fill:none;stroke:#231f20;stroke-width:3.76637006;stroke-linecap:butt;stroke-linejoin:miter;stroke-miterlimit:10;stroke-opacity:1;stroke-dasharray:none" /><path
         d="m 13042.9,203.383 c 127.3,-8.531 -59.6,156.363 56.5,165.722"
         inkscape:connector-curvature="0"
         id="path62"
         style="fill:none;stroke:#231f20;stroke-width:3.76637006;stroke-linecap:butt;stroke-linejoin:miter;stroke-miterlimit:10;stroke-opacity:1;stroke-dasharray:none" /><path
         d="m 3954.69,350.273 105.45,18.832"
         inkscape:connector-curvature="0"
         id="path64"
         style="fill:none;stroke:#231f20;stroke-width:3.76637006;stroke-linecap:butt;stroke-linejoin:miter;stroke-miterlimit:10;stroke-opacity:1;stroke-dasharray:none" /><path
         d="m 1039.52,361.57 52.73,-18.832"
         inkscape:connector-curvature="0"
         id="path66"
         style="fill:none;stroke:#231f20;stroke-width:3.76637006;stroke-linecap:butt;stroke-linejoin:miter;stroke-miterlimit:10;stroke-opacity:1;stroke-dasharray:none" /><path
         d="m 5988.52,180.785 c -25.01,63.688 2,152.047 75.33,165.719"
         inkscape:connector-curvature="0"
         id="path68"
         style="fill:none;stroke:#231f20;stroke-width:3.76637006;stroke-linecap:butt;stroke-linejoin:miter;stroke-miterlimit:10;stroke-opacity:1;stroke-dasharray:none" /><path
         d="m 6964.01,222.215 c -16.49,26.367 -21.22,53.574 -4.78,82.043 16.6,28.758 55.38,42.246 76.89,10.465 43.92,-65.434 -59.59,-63.899 -64.99,-102.395 -3.35,-23.18 20.31,-42.156 38.08,-51.496 46.67,-23.98 99.99,-10.176 139.36,19.953"
         inkscape:connector-curvature="0"
         id="path70"
         style="fill:none;stroke:#231f20;stroke-width:3.76637006;stroke-linecap:butt;stroke-linejoin:miter;stroke-miterlimit:10;stroke-opacity:1;stroke-dasharray:none" /><path
         d="m 4700.43,327.676 -60.27,-52.731 -33.89,30.129"
         inkscape:connector-curvature="0"
         id="path72"
         style="fill:none;stroke:#231f20;stroke-width:3.76637006;stroke-linecap:butt;stroke-linejoin:miter;stroke-miterlimit:10;stroke-opacity:1;stroke-dasharray:none" /><path
         d="m 13984.5,324.559 c 38.2,5.472 59.4,-19.985 45.2,-56.52 -11.7,-29.277 -54.7,-67.004 -86.1,-72.187 -34.4,-5.633 -42.3,34.796 -36.2,60.261 8.7,36.145 40.7,63.231 77.1,68.446"
         inkscape:connector-curvature="0"
         id="path74"
         style="fill:none;stroke:#231f20;stroke-width:3.76637006;stroke-linecap:butt;stroke-linejoin:miter;stroke-miterlimit:10;stroke-opacity:1;stroke-dasharray:none" /><path
         d="m 4888.75,323.906 177.02,-11.297"
         inkscape:connector-curvature="0"
         id="path76"
         style="fill:none;stroke:#231f20;stroke-width:3.76637006;stroke-linecap:butt;stroke-linejoin:miter;stroke-miterlimit:10;stroke-opacity:1;stroke-dasharray:none" /><path
         d="m 9992.17,317.77 c 77.33,27.445 131.13,-96.18 45.23,-125.684 -23.6,-7.965 -58.52,-11.992 -79.86,3.41 -46.56,33.609 -9.02,106.637 34.63,122.274"
         inkscape:connector-curvature="0"
         id="path78"
         style="fill:none;stroke:#231f20;stroke-width:3.76637006;stroke-linecap:butt;stroke-linejoin:miter;stroke-miterlimit:10;stroke-opacity:1;stroke-dasharray:none" /><path
         d="m 11359.4,323.906 c -0.6,-46.73 5.9,-123.281 -33.4,-156.871 -22.2,-18.922 -50.3,-9.328 -75.9,-17.312 -41.4,-12.977 -70.1,-39.118 -116.7,-35.438 -94.8,7.481 -126.2,114.336 -94.2,190.789"
         inkscape:connector-curvature="0"
         id="path80"
         style="fill:none;stroke:#231f20;stroke-width:3.76637006;stroke-linecap:butt;stroke-linejoin:miter;stroke-miterlimit:10;stroke-opacity:1;stroke-dasharray:none" /><path
         d="m 1476.41,312.609 c 29.58,-48.964 56.5,-76.246 116.76,-67.797"
         inkscape:connector-curvature="0"
         id="path82"
         style="fill:none;stroke:#231f20;stroke-width:3.76637006;stroke-linecap:butt;stroke-linejoin:miter;stroke-miterlimit:10;stroke-opacity:1;stroke-dasharray:none" /><path
         d="m 5751.24,312.609 c 13.67,-37.058 39.72,-73.207 44.64,-112.992 2.67,-21.344 -6.45,-42.07 -30.26,-43.59 -38.02,-2.437 -70.87,29.11 -108.06,32.293 -36.44,3.368 -52.57,-43.726 -87.1,-52.008 -91.36,-21.792 -109.23,94.012 -79.1,153.7"
         inkscape:connector-curvature="0"
         id="path84"
         style="fill:none;stroke:#231f20;stroke-width:3.76637006;stroke-linecap:butt;stroke-linejoin:miter;stroke-miterlimit:10;stroke-opacity:1;stroke-dasharray:none" /><path
         d="m 12805.6,312.609 3.8,-75.328"
         inkscape:connector-curvature="0"
         id="path86"
         style="fill:none;stroke:#231f20;stroke-width:3.76637006;stroke-linecap:butt;stroke-linejoin:miter;stroke-miterlimit:10;stroke-opacity:1;stroke-dasharray:none" /><path
         d="m 12146.5,301.309 c -20,-17.098 -44.2,-34.918 -53.8,-60.262 -24.1,-64.027 56.7,-74.906 99,-71.559"
         inkscape:connector-curvature="0"
         id="path88"
         style="fill:none;stroke:#231f20;stroke-width:3.76637006;stroke-linecap:butt;stroke-linejoin:miter;stroke-miterlimit:10;stroke-opacity:1;stroke-dasharray:none" /><path
         d="m 11803.8,297.543 c 25.2,-39.215 33.4,-78.453 37.7,-124.289"
         inkscape:connector-curvature="0"
         id="path90"
         style="fill:none;stroke:#231f20;stroke-width:3.76637006;stroke-linecap:butt;stroke-linejoin:miter;stroke-miterlimit:10;stroke-opacity:1;stroke-dasharray:none" /><path
         d="m 8730.44,293.777 c -25.23,-13.797 -56.49,-24.765 -75.33,-47.316 -33.9,-40.566 0,-102.094 26.37,-137.234"
         inkscape:connector-curvature="0"
         id="path92"
         style="fill:none;stroke:#231f20;stroke-width:3.76637006;stroke-linecap:butt;stroke-linejoin:miter;stroke-miterlimit:10;stroke-opacity:1;stroke-dasharray:none" /><path
         d="m 6165.54,278.711 41.43,-94.16"
         inkscape:connector-curvature="0"
         id="path94"
         style="fill:none;stroke:#231f20;stroke-width:3.76637006;stroke-linecap:butt;stroke-linejoin:miter;stroke-miterlimit:10;stroke-opacity:1;stroke-dasharray:none" /><path
         d="m 6399.06,278.711 71.56,-11.301"
         inkscape:connector-curvature="0"
         id="path96"
         style="fill:none;stroke:#231f20;stroke-width:3.76637006;stroke-linecap:butt;stroke-linejoin:miter;stroke-miterlimit:10;stroke-opacity:1;stroke-dasharray:none" /><path
         d="m 4640.16,274.945 c -23.2,-35.39 -60.26,-48.965 -97.92,-64.027"
         inkscape:connector-curvature="0"
         id="path98"
         style="fill:none;stroke:#231f20;stroke-width:3.76637006;stroke-linecap:butt;stroke-linejoin:miter;stroke-miterlimit:10;stroke-opacity:1;stroke-dasharray:none" /><path
         d="m 7174.93,274.945 33.9,-33.898 c 19.44,7.16 42.17,17.598 63.19,11.301 23.75,-7.075 37.67,-32.66 49.05,-52.731 27.72,-48.961 47.51,-102.1131 76.07,-150.6561"
         inkscape:connector-curvature="0"
         id="path100"
         style="fill:none;stroke:#231f20;stroke-width:3.76637006;stroke-linecap:butt;stroke-linejoin:miter;stroke-miterlimit:10;stroke-opacity:1;stroke-dasharray:none" /><path
         d="m 11517.6,274.945 -11.3,-56.496"
         inkscape:connector-curvature="0"
         id="path102"
         style="fill:none;stroke:#231f20;stroke-width:3.76637006;stroke-linecap:butt;stroke-linejoin:miter;stroke-miterlimit:10;stroke-opacity:1;stroke-dasharray:none" /><path
         d="m 10248.3,271.18 c 5.2,-41.43 4.6,-80.668 -7.5,-120.524"
         inkscape:connector-curvature="0"
         id="path104"
         style="fill:none;stroke:#231f20;stroke-width:3.76637006;stroke-linecap:butt;stroke-linejoin:miter;stroke-miterlimit:10;stroke-opacity:1;stroke-dasharray:none" /><path
         d="m 6485.68,263.645 18.84,0"
         inkscape:connector-curvature="0"
         id="path106"
         style="fill:none;stroke:#231f20;stroke-width:3.76637006;stroke-linecap:butt;stroke-linejoin:miter;stroke-miterlimit:10;stroke-opacity:1;stroke-dasharray:none" /><path
         d="m 12316,263.645 0,-7.532"
         inkscape:connector-curvature="0"
         id="path108"
         style="fill:none;stroke:#231f20;stroke-width:3.76637006;stroke-linecap:butt;stroke-linejoin:miter;stroke-miterlimit:10;stroke-opacity:1;stroke-dasharray:none" /><path
         d="m 4640.16,259.879 41.43,-52.731"
         inkscape:connector-curvature="0"
         id="path110"
         style="fill:none;stroke:#231f20;stroke-width:3.76637006;stroke-linecap:butt;stroke-linejoin:miter;stroke-miterlimit:10;stroke-opacity:1;stroke-dasharray:none" /><path
         d="m 7905.61,244.812 67.79,-60.261 c 26.37,20.469 52.73,56.039 86.63,63.152 28.89,6.09 48.96,-18.984 62.71,-40.555 32.41,-51.043 46.98,-109.9527 84.17,-158.1871"
         inkscape:connector-curvature="0"
         id="path112"
         style="fill:none;stroke:#231f20;stroke-width:3.76637006;stroke-linecap:butt;stroke-linejoin:miter;stroke-miterlimit:10;stroke-opacity:1;stroke-dasharray:none" /><path
         d="m 10496.9,256.113 c -14.3,-11.742 -31.5,-24.105 -38.1,-42.109 -27.8,-75.481 82.3,-102.246 132.2,-85.949"
         inkscape:connector-curvature="0"
         id="path114"
         style="fill:none;stroke:#231f20;stroke-width:3.76637006;stroke-linecap:butt;stroke-linejoin:miter;stroke-miterlimit:10;stroke-opacity:1;stroke-dasharray:none" /><path
         d="m 6719.2,248.582 22.6,-18.832 -11.3,-86.629"
         inkscape:connector-curvature="0"
         id="path116"
         style="fill:none;stroke:#231f20;stroke-width:3.76637006;stroke-linecap:butt;stroke-linejoin:miter;stroke-miterlimit:10;stroke-opacity:1;stroke-dasharray:none" /><path
         d="m 14026,248.582 c 28.1,-39.352 41.4,-84.859 82.8,-112.992"
         inkscape:connector-curvature="0"
         id="path118"
         style="fill:none;stroke:#231f20;stroke-width:3.76637006;stroke-linecap:butt;stroke-linejoin:miter;stroke-miterlimit:10;stroke-opacity:1;stroke-dasharray:none" /><path
         d="m 7208.83,241.047 -3.77,-52.727"
         inkscape:connector-curvature="0"
         id="path120"
         style="fill:none;stroke:#231f20;stroke-width:3.76637006;stroke-linecap:butt;stroke-linejoin:miter;stroke-miterlimit:10;stroke-opacity:1;stroke-dasharray:none" /><path
         d="m 7792.61,237.281 22.6,-143.1208"
         inkscape:connector-curvature="0"
         id="path122"
         style="fill:none;stroke:#231f20;stroke-width:3.76637006;stroke-linecap:butt;stroke-linejoin:miter;stroke-miterlimit:10;stroke-opacity:1;stroke-dasharray:none" /><path
         d="m 9404.62,237.281 c -30.13,-19.683 -67.11,-39.836 -80.49,-75.328 -11.31,-30.129 7.74,-67.7928 42.83,-64.91 25.23,2.0898 47.92,20.937 67.79,34.781 l 37.66,-56.4959"
         inkscape:connector-curvature="0"
         id="path124"
         style="fill:none;stroke:#231f20;stroke-width:3.76637006;stroke-linecap:butt;stroke-linejoin:miter;stroke-miterlimit:10;stroke-opacity:1;stroke-dasharray:none" /><path
         d="m 9638.13,75.3281 c -2.7,59.9299 -10.9,170.0779 82.87,157.0429 15.7,-2.195 30.49,-8.031 45.19,-13.922"
         inkscape:connector-curvature="0"
         id="path126"
         style="fill:none;stroke:#231f20;stroke-width:3.76637006;stroke-linecap:butt;stroke-linejoin:miter;stroke-miterlimit:10;stroke-opacity:1;stroke-dasharray:none" /><path
         d="m 6741.8,229.75 26.36,0"
         inkscape:connector-curvature="0"
         id="path128"
         style="fill:none;stroke:#231f20;stroke-width:3.76637006;stroke-linecap:butt;stroke-linejoin:miter;stroke-miterlimit:10;stroke-opacity:1;stroke-dasharray:none" /><path
         d="m 8922.52,214.684 -3.76,-37.664"
         inkscape:connector-curvature="0"
         id="path130"
         style="fill:none;stroke:#231f20;stroke-width:3.76637006;stroke-linecap:butt;stroke-linejoin:miter;stroke-miterlimit:10;stroke-opacity:1;stroke-dasharray:none" /><path
         d="m 7973.4,184.551 0,-33.895"
         inkscape:connector-curvature="0"
         id="path132"
         style="fill:none;stroke:#231f20;stroke-width:3.76637006;stroke-linecap:butt;stroke-linejoin:miter;stroke-miterlimit:10;stroke-opacity:1;stroke-dasharray:none" /><path
         d="m 9946.98,184.551 c 0.47,-49.285 8.98,-96.926 26.36,-143.1213"
         inkscape:connector-curvature="0"
         id="path134"
         style="fill:none;stroke:#231f20;stroke-width:3.76637006;stroke-linecap:butt;stroke-linejoin:miter;stroke-miterlimit:10;stroke-opacity:1;stroke-dasharray:none" /><path
         d="m 9430.98,173.254 3.77,-41.43"
         inkscape:connector-curvature="0"
         id="path136"
         style="fill:none;stroke:#231f20;stroke-width:3.76637006;stroke-linecap:butt;stroke-linejoin:miter;stroke-miterlimit:10;stroke-opacity:1;stroke-dasharray:none" /></g></g></svg>