<?xml version="1.0" encoding="UTF-8" standalone="no"?>
<!-- Created with Inkscape (http://www.inkscape.org/) -->

<svg
   xmlns:dc="http://purl.org/dc/elements/1.1/"
   xmlns:cc="http://creativecommons.org/ns#"
   xmlns:rdf="http://www.w3.org/1999/02/22-rdf-syntax-ns#"
   xmlns:svg="http://www.w3.org/2000/svg"
   xmlns="http://www.w3.org/2000/svg"
   xmlns:inkscape="http://www.inkscape.org/namespaces/inkscape"
   version="1.1"
   width="4706.25"
   height="186.25"
   id="svg2"
   xml:space="preserve"><metadata
     id="metadata8"><rdf:RDF><cc:Work
         rdf:about=""><dc:format>image/svg+xml</dc:format><dc:type
           rdf:resource="http://purl.org/dc/dcmitype/StillImage" /></cc:Work></rdf:RDF></metadata><defs
     id="defs6" /><g
     transform="matrix(1.25,0,0,-1.25,0,186.25)"
     id="g10"><g
       transform="scale(0.256646,0.256646)"
       id="g12"><path
         d="m 4036.69,545.5 42.86,-159.754 -109.1,-23.379"
         inkscape:connector-curvature="0"
         id="path14"
         style="fill:none;stroke:#231f20;stroke-width:3.89640999;stroke-linecap:butt;stroke-linejoin:miter;stroke-miterlimit:10;stroke-opacity:1;stroke-dasharray:none" /><path
         d="m 2785.94,537.707 c 51.22,-87.098 -2.01,-197.074 27.27,-292.234"
         inkscape:connector-curvature="0"
         id="path16"
         style="fill:none;stroke:#231f20;stroke-width:3.89640999;stroke-linecap:butt;stroke-linejoin:miter;stroke-miterlimit:10;stroke-opacity:1;stroke-dasharray:none" /><path
         d="m 14420.6,526.016 c 44,-83.067 50.1,-196.59 37.9,-288.336 -6.7,-48.512 -29.7,-100.621 -88.5,-90.285 -81.5,14.312 -120.3,150.75 -11.7,137.043"
         inkscape:connector-curvature="0"
         id="path18"
         style="fill:none;stroke:#231f20;stroke-width:3.89640999;stroke-linecap:butt;stroke-linejoin:miter;stroke-miterlimit:10;stroke-opacity:1;stroke-dasharray:none" /><path
         d="m 12799.7,514.328 11.7,-11.691"
         inkscape:connector-curvature="0"
         id="path20"
         style="fill:none;stroke:#231f20;stroke-width:3.89640999;stroke-linecap:butt;stroke-linejoin:miter;stroke-miterlimit:10;stroke-opacity:1;stroke-dasharray:none" /><path
         d="m 13516.7,494.844 c 3.9,-93.512 -7.1,-223.992 66.2,-292.231 14.9,9.086 30.1,19.481 46.8,24.664 11.6,3.633 23.3,4.344 34.6,0.813 95.7,-29.371 14.8,-181.3322 -45.8,-94.32 -14,20.046 -23.1,43.894 -35.6,64.949"
         inkscape:connector-curvature="0"
         id="path22"
         style="fill:none;stroke:#231f20;stroke-width:3.89640999;stroke-linecap:butt;stroke-linejoin:miter;stroke-miterlimit:10;stroke-opacity:1;stroke-dasharray:none" /><path
         d="m 6429.09,475.363 c 40.35,-59.461 43.8,-129.558 54.54,-198.718 l -70.13,7.793"
         inkscape:connector-curvature="0"
         id="path24"
         style="fill:none;stroke:#231f20;stroke-width:3.89640999;stroke-linecap:butt;stroke-linejoin:miter;stroke-miterlimit:10;stroke-opacity:1;stroke-dasharray:none" /><path
         d="m 4967.93,471.465 c 23.38,-45.317 26.34,-94.133 19.48,-144.164 l 93.52,-7.793"
         inkscape:connector-curvature="0"
         id="path26"
         style="fill:none;stroke:#231f20;stroke-width:3.89640999;stroke-linecap:butt;stroke-linejoin:miter;stroke-miterlimit:10;stroke-opacity:1;stroke-dasharray:none" /><path
         d="m 3265.2,249.371 c 68.8,60.574 -7.8,88.856 -22.81,151.961 -12.7,52.531 41.33,66.238 81.25,58.445"
         inkscape:connector-curvature="0"
         id="path28"
         style="fill:none;stroke:#231f20;stroke-width:3.89640999;stroke-linecap:butt;stroke-linejoin:miter;stroke-miterlimit:10;stroke-opacity:1;stroke-dasharray:none" /><path
         d="m 3557.43,190.926 c 11.69,8.16 23.8,16.324 34.31,26.293 63.1,59.426 -7.04,101.707 -53.79,138.941 -36.16,28.75 -71.46,72.445 -19.49,103.617"
         inkscape:connector-curvature="0"
         id="path30"
         style="fill:none;stroke:#231f20;stroke-width:3.89640999;stroke-linecap:butt;stroke-linejoin:miter;stroke-miterlimit:10;stroke-opacity:1;stroke-dasharray:none" /><path
         d="m 210.406,327.301 c 8.176,38.328 14.231,69.695 38.965,101.304 24.652,-14.171 52.625,-38.589 81.824,-40.867 45.739,-3.558 88.789,49.961 128.582,68.141 l 74.032,-198.715"
         inkscape:connector-curvature="0"
         id="path32"
         style="fill:none;stroke:#231f20;stroke-width:3.89640999;stroke-linecap:butt;stroke-linejoin:miter;stroke-miterlimit:10;stroke-opacity:1;stroke-dasharray:none" /><path
         d="m 249.371,448.086 0,-15.582"
         inkscape:connector-curvature="0"
         id="path34"
         style="fill:none;stroke:#231f20;stroke-width:3.89640999;stroke-linecap:butt;stroke-linejoin:miter;stroke-miterlimit:10;stroke-opacity:1;stroke-dasharray:none" /><path
         d="m 8848.76,444.191 53.14,-101.308 32.58,-124.684 c 19.48,10.5 38.42,22.938 58.45,32.485 34.68,16.515 61.3,0.789 76.27,-32.485 21.14,-46.758 19.19,-117.722 71.79,-140.2693"
         inkscape:connector-curvature="0"
         id="path36"
         style="fill:none;stroke:#231f20;stroke-width:3.89640999;stroke-linecap:butt;stroke-linejoin:miter;stroke-miterlimit:10;stroke-opacity:1;stroke-dasharray:none" /><path
         d="m 11443.8,444.191 c 42.8,-54.066 50.2,-107.445 77.9,-167.546 25.2,8.875 57,33.945 84.2,31.171 42.3,-4.871 54.3,-93.511 71.7,-124.683"
         inkscape:connector-curvature="0"
         id="path38"
         style="fill:none;stroke:#231f20;stroke-width:3.89640999;stroke-linecap:butt;stroke-linejoin:miter;stroke-miterlimit:10;stroke-opacity:1;stroke-dasharray:none" /><path
         d="m 12277.6,444.191 39,-179.234 c 25.6,6.785 54.5,22.113 81.8,19.941 60.5,-4.898 62.7,-96.957 74,-140.73"
         inkscape:connector-curvature="0"
         id="path40"
         style="fill:none;stroke:#231f20;stroke-width:3.89640999;stroke-linecap:butt;stroke-linejoin:miter;stroke-miterlimit:10;stroke-opacity:1;stroke-dasharray:none" /><path
         d="m 2992.45,338.988 c -33.07,45.66 32.1,129.004 71.47,81.25 10,-12.121 6.91,-28.672 -0.92,-41.011 -14.55,-22.957 -47.18,-24.653 -60.31,-45.829 -24.21,-39.46 37.83,-67.773 67.69,-64.039 14.63,1.856 28.78,6.536 42.85,11.184"
         inkscape:connector-curvature="0"
         id="path42"
         style="fill:none;stroke:#231f20;stroke-width:3.89640999;stroke-linecap:butt;stroke-linejoin:miter;stroke-miterlimit:10;stroke-opacity:1;stroke-dasharray:none" /><path
         d="m 1940.41,432.504 c -0.89,-48.934 -17.77,-107.633 11.26,-151.414 33.22,-50.113 96.62,-45.676 127.99,4.101 16.61,26.079 16.05,59.09 16.61,88.864"
         inkscape:connector-curvature="0"
         id="path44"
         style="fill:none;stroke:#231f20;stroke-width:3.89640999;stroke-linecap:butt;stroke-linejoin:miter;stroke-miterlimit:10;stroke-opacity:1;stroke-dasharray:none" /><path
         d="m 1126.06,253.266 -31.17,101.308 c 63.38,57.383 116.9,89.617 202.62,58.446"
         inkscape:connector-curvature="0"
         id="path46"
         style="fill:none;stroke:#231f20;stroke-width:3.89640999;stroke-linecap:butt;stroke-linejoin:miter;stroke-miterlimit:10;stroke-opacity:1;stroke-dasharray:none" /><path
         d="m 2485.91,342.883 c 2.95,17.062 5.78,34.637 15.59,49.394 42.32,64.297 122.11,-8.074 46.37,-37.703 -20.18,-7.793 -41.6,-11.691 -61.96,-19.484 22.61,-87.703 94.12,-100.676 167.55,-58.445"
         inkscape:connector-curvature="0"
         id="path48"
         style="fill:none;stroke:#231f20;stroke-width:3.89640999;stroke-linecap:butt;stroke-linejoin:miter;stroke-miterlimit:10;stroke-opacity:1;stroke-dasharray:none" /><path
         d="m 1484.54,335.09 c -4.94,10.207 -9.8,20.074 -10.98,31.527 -8.51,82.242 104.49,26.922 40.69,-15.941 -9.25,-6.305 -19.73,-10.766 -29.71,-15.586"
         inkscape:connector-curvature="0"
         id="path50"
         style="fill:none;stroke:#231f20;stroke-width:3.89640999;stroke-linecap:butt;stroke-linejoin:miter;stroke-miterlimit:10;stroke-opacity:1;stroke-dasharray:none" /><path
         d="m 2232.64,233.785 c 82.24,29.067 34.09,74.031 2.08,124.684 -20.14,31.672 -8.03,57.566 29.1,58.449"
         inkscape:connector-curvature="0"
         id="path52"
         style="fill:none;stroke:#231f20;stroke-width:3.89640999;stroke-linecap:butt;stroke-linejoin:miter;stroke-miterlimit:10;stroke-opacity:1;stroke-dasharray:none" /><path
         d="m 6686.25,420.812 c 33.07,-52.746 45.59,-105.695 46.75,-167.546 l -74.03,3.898"
         inkscape:connector-curvature="0"
         id="path54"
         style="fill:none;stroke:#231f20;stroke-width:3.89640999;stroke-linecap:butt;stroke-linejoin:miter;stroke-miterlimit:10;stroke-opacity:1;stroke-dasharray:none" /><path
         d="m 4344.5,323.402 c -3.09,7.793 -6.45,15.586 -7.79,23.969 -8.45,68.883 92.68,17.637 34.09,-13.535 -8.3,-4.41 -17.49,-7.25 -26.3,-10.434"
         inkscape:connector-curvature="0"
         id="path56"
         style="fill:none;stroke:#231f20;stroke-width:3.89640999;stroke-linecap:butt;stroke-linejoin:miter;stroke-miterlimit:10;stroke-opacity:1;stroke-dasharray:none" /><path
         d="m 779.281,385.746 c 20.301,-6.769 40.344,-14.16 58.031,-26.512 13.743,-9.597 25.762,-21.691 34.372,-35.832 51.41,-86.59 -69.024,-131.347 -104.09,-38.964 -5.5,14.867 -7.446,31.171 -6.91,46.757 0.711,20.746 7.929,37.082 18.597,54.551"
         inkscape:connector-curvature="0"
         id="path58"
         style="fill:none;stroke:#231f20;stroke-width:3.89640999;stroke-linecap:butt;stroke-linejoin:miter;stroke-miterlimit:10;stroke-opacity:1;stroke-dasharray:none" /><path
         d="m 4079.55,385.746 19.48,0"
         inkscape:connector-curvature="0"
         id="path60"
         style="fill:none;stroke:#231f20;stroke-width:3.89640999;stroke-linecap:butt;stroke-linejoin:miter;stroke-miterlimit:10;stroke-opacity:1;stroke-dasharray:none" /><path
         d="m 1048.14,374.055 46.75,-23.379"
         inkscape:connector-curvature="0"
         id="path62"
         style="fill:none;stroke:#231f20;stroke-width:3.89640999;stroke-linecap:butt;stroke-linejoin:miter;stroke-miterlimit:10;stroke-opacity:1;stroke-dasharray:none" /><path
         d="m 4071.75,370.16 c 10.13,-51.523 -0.41,-108.211 -7.79,-159.754"
         inkscape:connector-curvature="0"
         id="path64"
         style="fill:none;stroke:#231f20;stroke-width:3.89640999;stroke-linecap:butt;stroke-linejoin:miter;stroke-miterlimit:10;stroke-opacity:1;stroke-dasharray:none" /><path
         d="m 13041.3,198.719 c 123.2,-8.336 -56.2,151.957 54.6,163.648"
         inkscape:connector-curvature="0"
         id="path66"
         style="fill:none;stroke:#231f20;stroke-width:3.89640999;stroke-linecap:butt;stroke-linejoin:miter;stroke-miterlimit:10;stroke-opacity:1;stroke-dasharray:none" /><path
         d="m 6004.38,179.234 c -27.75,65.395 -5.38,159.754 74.03,171.442"
         inkscape:connector-curvature="0"
         id="path68"
         style="fill:none;stroke:#231f20;stroke-width:3.89640999;stroke-linecap:butt;stroke-linejoin:miter;stroke-miterlimit:10;stroke-opacity:1;stroke-dasharray:none" /><path
         d="m 6974.58,225.992 c -6.56,12.61 -12.39,24.688 -13.06,38.965 -0.54,11.688 1.37,23.773 6.18,34.535 37.52,90.149 140.08,-16.847 53.22,-55.844 -14.57,-6.546 -30.75,-9.398 -46.34,-13.761 22.21,-87.242 126.06,-97.41 187.03,-42.86"
         inkscape:connector-curvature="0"
         id="path70"
         style="fill:none;stroke:#231f20;stroke-width:3.89640999;stroke-linecap:butt;stroke-linejoin:miter;stroke-miterlimit:10;stroke-opacity:1;stroke-dasharray:none" /><path
         d="m 4710.77,335.09 -58.45,-54.547 -38.96,38.965"
         inkscape:connector-curvature="0"
         id="path72"
         style="fill:none;stroke:#231f20;stroke-width:3.89640999;stroke-linecap:butt;stroke-linejoin:miter;stroke-miterlimit:10;stroke-opacity:1;stroke-dasharray:none" /><path
         d="m 1484.54,331.195 -31.18,-19.48"
         inkscape:connector-curvature="0"
         id="path74"
         style="fill:none;stroke:#231f20;stroke-width:3.89640999;stroke-linecap:butt;stroke-linejoin:miter;stroke-miterlimit:10;stroke-opacity:1;stroke-dasharray:none" /><path
         d="m 4901.69,331.195 81.83,-7.793"
         inkscape:connector-curvature="0"
         id="path76"
         style="fill:none;stroke:#231f20;stroke-width:3.89640999;stroke-linecap:butt;stroke-linejoin:miter;stroke-miterlimit:10;stroke-opacity:1;stroke-dasharray:none" /><path
         d="m 1480.64,327.301 c 28.23,-45.34 52.85,-74.035 109.1,-74.035"
         inkscape:connector-curvature="0"
         id="path78"
         style="fill:none;stroke:#231f20;stroke-width:3.89640999;stroke-linecap:butt;stroke-linejoin:miter;stroke-miterlimit:10;stroke-opacity:1;stroke-dasharray:none" /><path
         d="m 10002.1,316.852 c 77.2,26.031 127.8,-96.93 42.9,-125.926 -25.9,-8.68 -63.65,-11.004 -84.9,9.125 -38.12,36.117 0.8,102.801 42,116.801"
         inkscape:connector-curvature="0"
         id="path80"
         style="fill:none;stroke:#231f20;stroke-width:3.89640999;stroke-linecap:butt;stroke-linejoin:miter;stroke-miterlimit:10;stroke-opacity:1;stroke-dasharray:none" /><path
         d="m 14023.2,237.68 c -21.2,-10.188 -39,-23.758 -58.4,-36.598 -45.1,-29.641 -77.4,9.684 -60.4,56.082 12.5,33.867 86.3,92.609 117.7,46.758 12.1,-18.195 3.6,-46.758 1.1,-66.242"
         inkscape:connector-curvature="0"
         id="path82"
         style="fill:none;stroke:#231f20;stroke-width:3.89640999;stroke-linecap:butt;stroke-linejoin:miter;stroke-miterlimit:10;stroke-opacity:1;stroke-dasharray:none" /><path
         d="m 4344.5,319.508 c 14.59,-48.149 37.43,-74.992 89.62,-77.93"
         inkscape:connector-curvature="0"
         id="path84"
         style="fill:none;stroke:#231f20;stroke-width:3.89640999;stroke-linecap:butt;stroke-linejoin:miter;stroke-miterlimit:10;stroke-opacity:1;stroke-dasharray:none" /><path
         d="m 5762.8,319.508 c 13.49,-32.02 77.05,-127.344 28.2,-153.285 -34.68,-18.161 -106.13,26.254 -141.2,36.39 -16.91,-23.379 -33.37,-50.078 -62.34,-59.375 -90.41,-28.711 -114.48,88.844 -85.72,148.992"
         inkscape:connector-curvature="0"
         id="path86"
         style="fill:none;stroke:#231f20;stroke-width:3.89640999;stroke-linecap:butt;stroke-linejoin:miter;stroke-miterlimit:10;stroke-opacity:1;stroke-dasharray:none" /><path
         d="m 4991.31,315.609 19.48,-112.996"
         inkscape:connector-curvature="0"
         id="path88"
         style="fill:none;stroke:#231f20;stroke-width:3.89640999;stroke-linecap:butt;stroke-linejoin:miter;stroke-miterlimit:10;stroke-opacity:1;stroke-dasharray:none" /><path
         d="m 11365.8,311.715 c -3.9,-45.043 2.8,-118.66 -37.7,-149.223 -21.3,-16.066 -47.3,-8.558 -71.4,-15.219 -41.9,-11.617 -70.1,-40.781 -116.9,-36.355 -96.9,9.176 -131.3,120.105 -89.6,196.898"
         inkscape:connector-curvature="0"
         id="path90"
         style="fill:none;stroke:#231f20;stroke-width:3.89640999;stroke-linecap:butt;stroke-linejoin:miter;stroke-miterlimit:10;stroke-opacity:1;stroke-dasharray:none" /><path
         d="m 12807.5,300.023 0,-62.343"
         inkscape:connector-curvature="0"
         id="path92"
         style="fill:none;stroke:#231f20;stroke-width:3.89640999;stroke-linecap:butt;stroke-linejoin:miter;stroke-miterlimit:10;stroke-opacity:1;stroke-dasharray:none" /><path
         d="m 8739.66,292.23 c -25.17,-12.363 -55.16,-22.64 -73.37,-45.062 -31.84,-39.563 -2.22,-99.106 22.71,-134.172"
         inkscape:connector-curvature="0"
         id="path94"
         style="fill:none;stroke:#231f20;stroke-width:3.89640999;stroke-linecap:butt;stroke-linejoin:miter;stroke-miterlimit:10;stroke-opacity:1;stroke-dasharray:none" /><path
         d="m 11810,292.23 c 21.8,-38.964 29.6,-76.796 35.1,-120.789"
         inkscape:connector-curvature="0"
         id="path96"
         style="fill:none;stroke:#231f20;stroke-width:3.89640999;stroke-linecap:butt;stroke-linejoin:miter;stroke-miterlimit:10;stroke-opacity:1;stroke-dasharray:none" /><path
         d="m 12145.1,292.23 c -19.9,-15.585 -42.1,-33.171 -50,-58.445 -20.7,-66.238 61.7,-75.226 104.6,-62.344"
         inkscape:connector-curvature="0"
         id="path98"
         style="fill:none;stroke:#231f20;stroke-width:3.89640999;stroke-linecap:butt;stroke-linejoin:miter;stroke-miterlimit:10;stroke-opacity:1;stroke-dasharray:none" /><path
         d="m 4652.32,280.543 c -26.78,-33.227 -62.34,-48.145 -101.31,-62.344"
         inkscape:connector-curvature="0"
         id="path100"
         style="fill:none;stroke:#231f20;stroke-width:3.89640999;stroke-linecap:butt;stroke-linejoin:miter;stroke-miterlimit:10;stroke-opacity:1;stroke-dasharray:none" /><path
         d="m 6179.71,280.543 38.97,-89.617"
         inkscape:connector-curvature="0"
         id="path102"
         style="fill:none;stroke:#231f20;stroke-width:3.89640999;stroke-linecap:butt;stroke-linejoin:miter;stroke-miterlimit:10;stroke-opacity:1;stroke-dasharray:none" /><path
         d="m 7188.89,276.645 35.06,-35.067 -7.79,-54.551"
         inkscape:connector-curvature="0"
         id="path104"
         style="fill:none;stroke:#231f20;stroke-width:3.89640999;stroke-linecap:butt;stroke-linejoin:miter;stroke-miterlimit:10;stroke-opacity:1;stroke-dasharray:none" /><path
         d="m 11521.7,276.645 -7.8,-62.34"
         inkscape:connector-curvature="0"
         id="path106"
         style="fill:none;stroke:#231f20;stroke-width:3.89640999;stroke-linecap:butt;stroke-linejoin:miter;stroke-miterlimit:10;stroke-opacity:1;stroke-dasharray:none" /><path
         d="m 6487.53,272.75 27.27,-3.898"
         inkscape:connector-curvature="0"
         id="path108"
         style="fill:none;stroke:#231f20;stroke-width:3.89640999;stroke-linecap:butt;stroke-linejoin:miter;stroke-miterlimit:10;stroke-opacity:1;stroke-dasharray:none" /><path
         d="m 4652.32,268.852 38.97,-54.547"
         inkscape:connector-curvature="0"
         id="path110"
         style="fill:none;stroke:#231f20;stroke-width:3.89640999;stroke-linecap:butt;stroke-linejoin:miter;stroke-miterlimit:10;stroke-opacity:1;stroke-dasharray:none" /><path
         d="m 6499.22,268.852 c -8.14,-31.723 -3.9,-59.407 7.79,-89.618"
         inkscape:connector-curvature="0"
         id="path112"
         style="fill:none;stroke:#231f20;stroke-width:3.89640999;stroke-linecap:butt;stroke-linejoin:miter;stroke-miterlimit:10;stroke-opacity:1;stroke-dasharray:none" /><path
         d="m 10255.4,268.852 c 5.4,-39.875 5.4,-78.555 -7.8,-116.891"
         inkscape:connector-curvature="0"
         id="path114"
         style="fill:none;stroke:#231f20;stroke-width:3.89640999;stroke-linecap:butt;stroke-linejoin:miter;stroke-miterlimit:10;stroke-opacity:1;stroke-dasharray:none" /><path
         d="M 7223.95,245.473 C 7334.91,289.906 7364.9,128.219 7407.09,54.5508"
         inkscape:connector-curvature="0"
         id="path116"
         style="fill:none;stroke:#231f20;stroke-width:3.89640999;stroke-linecap:butt;stroke-linejoin:miter;stroke-miterlimit:10;stroke-opacity:1;stroke-dasharray:none" /><path
         d="m 12316.6,264.957 0,-11.691"
         inkscape:connector-curvature="0"
         id="path118"
         style="fill:none;stroke:#231f20;stroke-width:3.89640999;stroke-linecap:butt;stroke-linejoin:miter;stroke-miterlimit:10;stroke-opacity:1;stroke-dasharray:none" /><path
         d="m 7917.52,245.473 66.23,-58.446 c 26.34,20.035 55.55,56.309 89.62,61.782 26.91,4.457 46.76,-18.336 59.96,-38.403 33.56,-50.652 48.47,-110.168 84.21,-159.7537"
         inkscape:connector-curvature="0"
         id="path120"
         style="fill:none;stroke:#231f20;stroke-width:3.89640999;stroke-linecap:butt;stroke-linejoin:miter;stroke-miterlimit:10;stroke-opacity:1;stroke-dasharray:none" /><path
         d="m 10504.7,257.164 c -14,-12.602 -32.1,-25.824 -38.9,-44.148 -29,-78.344 86.3,-101.211 136.3,-88.332"
         inkscape:connector-curvature="0"
         id="path122"
         style="fill:none;stroke:#231f20;stroke-width:3.89640999;stroke-linecap:butt;stroke-linejoin:miter;stroke-miterlimit:10;stroke-opacity:1;stroke-dasharray:none" /><path
         d="m 6733,253.266 23.38,-19.481 -15.58,-89.617"
         inkscape:connector-curvature="0"
         id="path124"
         style="fill:none;stroke:#231f20;stroke-width:3.89640999;stroke-linecap:butt;stroke-linejoin:miter;stroke-miterlimit:10;stroke-opacity:1;stroke-dasharray:none" /><path
         d="m 9417.63,241.578 c -29.1,-21.125 -65.53,-39.93 -81.09,-74.031 -13.51,-29.945 0.75,-71.6564 38.23,-70.1368 25.16,0.8632 48.98,19.4808 70.14,31.1718 l -3.9,42.859"
         inkscape:connector-curvature="0"
         id="path126"
         style="fill:none;stroke:#231f20;stroke-width:3.89640999;stroke-linecap:butt;stroke-linejoin:miter;stroke-miterlimit:10;stroke-opacity:1;stroke-dasharray:none" /><path
         d="M 7804.52,237.68 7824,109.102"
         inkscape:connector-curvature="0"
         id="path128"
         style="fill:none;stroke:#231f20;stroke-width:3.89640999;stroke-linecap:butt;stroke-linejoin:miter;stroke-miterlimit:10;stroke-opacity:1;stroke-dasharray:none" /><path
         d="m 14023.2,237.68 74,-109.098"
         inkscape:connector-curvature="0"
         id="path130"
         style="fill:none;stroke:#231f20;stroke-width:3.89640999;stroke-linecap:butt;stroke-linejoin:miter;stroke-miterlimit:10;stroke-opacity:1;stroke-dasharray:none" /><path
         d="m 6756.38,233.785 27.28,0"
         inkscape:connector-curvature="0"
         id="path132"
         style="fill:none;stroke:#231f20;stroke-width:3.89640999;stroke-linecap:butt;stroke-linejoin:miter;stroke-miterlimit:10;stroke-opacity:1;stroke-dasharray:none" /><path
         d="m 9647.52,77.9297 c -4.34,61.0003 -9.57,163.6483 81.83,153.3203 15.03,-1.73 28.9,-7.207 42.86,-13.051"
         inkscape:connector-curvature="0"
         id="path134"
         style="fill:none;stroke:#231f20;stroke-width:3.89640999;stroke-linecap:butt;stroke-linejoin:miter;stroke-miterlimit:10;stroke-opacity:1;stroke-dasharray:none" /><path
         d="m 8930.58,214.305 -3.89,-31.172"
         inkscape:connector-curvature="0"
         id="path136"
         style="fill:none;stroke:#231f20;stroke-width:3.89640999;stroke-linecap:butt;stroke-linejoin:miter;stroke-miterlimit:10;stroke-opacity:1;stroke-dasharray:none" /><path
         d="m 9955.34,187.027 c 0.49,-51.359 9.72,-99.7926 27.27,-148.0622"
         inkscape:connector-curvature="0"
         id="path138"
         style="fill:none;stroke:#231f20;stroke-width:3.89640999;stroke-linecap:butt;stroke-linejoin:miter;stroke-miterlimit:10;stroke-opacity:1;stroke-dasharray:none" /><path
         d="m 7983.75,183.133 0,-27.278"
         inkscape:connector-curvature="0"
         id="path140"
         style="fill:none;stroke:#231f20;stroke-width:3.89640999;stroke-linecap:butt;stroke-linejoin:miter;stroke-miterlimit:10;stroke-opacity:1;stroke-dasharray:none" /><path
         d="m 9444.91,128.582 38.97,-66.2382"
         inkscape:connector-curvature="0"
         id="path142"
         style="fill:none;stroke:#231f20;stroke-width:3.89640999;stroke-linecap:butt;stroke-linejoin:miter;stroke-miterlimit:10;stroke-opacity:1;stroke-dasharray:none" /></g></g></svg>