<?xml version="1.0" encoding="UTF-8" standalone="no"?>
<!-- Created with Inkscape (http://www.inkscape.org/) -->

<svg
   xmlns:dc="http://purl.org/dc/elements/1.1/"
   xmlns:cc="http://creativecommons.org/ns#"
   xmlns:rdf="http://www.w3.org/1999/02/22-rdf-syntax-ns#"
   xmlns:svg="http://www.w3.org/2000/svg"
   xmlns="http://www.w3.org/2000/svg"
   xmlns:inkscape="http://www.inkscape.org/namespaces/inkscape"
   version="1.1"
   width="4806.25"
   height="252.5"
   id="svg2"
   xml:space="preserve"><metadata
     id="metadata8"><rdf:RDF><cc:Work
         rdf:about=""><dc:format>image/svg+xml</dc:format><dc:type
           rdf:resource="http://purl.org/dc/dcmitype/StillImage" /></cc:Work></rdf:RDF></metadata><defs
     id="defs6" /><g
     transform="matrix(1.25,0,0,-1.25,0,252.5)"
     id="g10"><g
       transform="scale(0.2621,0.2621)"
       id="g12"><path
         d="m 12678.4,732.547 c 58.5,-112.297 35,-266.625 34.3,-389.164"
         inkscape:connector-curvature="0"
         id="path14"
         style="fill:none;stroke:#231f20;stroke-width:3.81534004;stroke-linecap:butt;stroke-linejoin:miter;stroke-miterlimit:10;stroke-opacity:1;stroke-dasharray:none" /><path
         d="m 583.746,53.4141 -5.035,198.3979 -36.559,87.754 -42.343,335.75 164.062,30.524"
         inkscape:connector-curvature="0"
         id="path16"
         style="fill:none;stroke:#231f20;stroke-width:3.81534004;stroke-linecap:butt;stroke-linejoin:miter;stroke-miterlimit:10;stroke-opacity:1;stroke-dasharray:none" /><path
         d="m 209.844,671.5 c 93.465,-22.891 194.097,22.895 289.965,3.816"
         inkscape:connector-curvature="0"
         id="path18"
         style="fill:none;stroke:#231f20;stroke-width:3.81534004;stroke-linecap:butt;stroke-linejoin:miter;stroke-miterlimit:10;stroke-opacity:1;stroke-dasharray:none" /><path
         d="m 12064.1,682.945 53.4,-99.199 34.4,-160.242 c 35,19.879 64.2,54.223 103,66.605 34.3,10.996 57.6,-8.699 69.8,-39.898 20,-51.41 19.5,-108.16 37,-160.246"
         inkscape:connector-curvature="0"
         id="path20"
         style="fill:none;stroke:#231f20;stroke-width:3.81534004;stroke-linecap:butt;stroke-linejoin:miter;stroke-miterlimit:10;stroke-opacity:1;stroke-dasharray:none" /><path
         d="m 9614.67,495.996 c -48.62,-30.523 -103.94,-40.777 -160.24,-48.844 -18.34,-2.629 -46.48,-10.375 -61.05,5.16 -19.08,19.723 -11.05,61.579 -7.63,85.653 11.93,93.594 64.11,146.973 160.24,133.535"
         inkscape:connector-curvature="0"
         id="path22"
         style="fill:none;stroke:#231f20;stroke-width:3.81534004;stroke-linecap:butt;stroke-linejoin:miter;stroke-miterlimit:10;stroke-opacity:1;stroke-dasharray:none" /><path
         d="m 904.238,675.316 c 0,-86.175 16.18,-167.543 32.934,-251.812 8.437,-42.449 11.402,-87.246 31.926,-125.906 35.382,22.89 60.302,66.23 103.012,76.304 99.59,22.895 91.57,-131.941 76.31,-190.765"
         inkscape:connector-curvature="0"
         id="path24"
         style="fill:none;stroke:#231f20;stroke-width:3.81534004;stroke-linecap:butt;stroke-linejoin:miter;stroke-miterlimit:10;stroke-opacity:1;stroke-dasharray:none" /><path
         d="m 8863.05,663.871 c 43.36,-110.644 33.03,-265.551 19.07,-381.535"
         inkscape:connector-curvature="0"
         id="path26"
         style="fill:none;stroke:#231f20;stroke-width:3.81534004;stroke-linecap:butt;stroke-linejoin:miter;stroke-miterlimit:10;stroke-opacity:1;stroke-dasharray:none" /><path
         d="m 13578.8,450.211 c -14.1,43.019 -15.7,137.008 19.9,171.277 48.8,46.996 90.8,-51.371 95.4,-87.34 4.5,-37.101 -12.9,-72.851 -50.4,-83.468 -19.8,-5.555 -52.4,-0.102 -62.5,-22.719 -10,-23.535 0.6,-56.949 4.3,-80.766 10.7,-67.636 30.4,-129.39 50.5,-194.582"
         inkscape:connector-curvature="0"
         id="path28"
         style="fill:none;stroke:#231f20;stroke-width:3.81534004;stroke-linecap:butt;stroke-linejoin:miter;stroke-miterlimit:10;stroke-opacity:1;stroke-dasharray:none" /><path
         d="m 4986.66,629.531 c 46.12,-73.91 37,-153 61.04,-232.734 l -34.34,-186.953"
         inkscape:connector-curvature="0"
         id="path30"
         style="fill:none;stroke:#231f20;stroke-width:3.81534004;stroke-linecap:butt;stroke-linejoin:miter;stroke-miterlimit:10;stroke-opacity:1;stroke-dasharray:none" /><path
         d="m 9996.2,602.824 c 39.9,-93.586 26.3,-195.32 19.1,-293.781"
         inkscape:connector-curvature="0"
         id="path32"
         style="fill:none;stroke:#231f20;stroke-width:3.81534004;stroke-linecap:butt;stroke-linejoin:miter;stroke-miterlimit:10;stroke-opacity:1;stroke-dasharray:none" /><path
         d="m 9820.7,595.195 c 35.27,-101.097 5.28,-198.398 3.81,-301.414"
         inkscape:connector-curvature="0"
         id="path34"
         style="fill:none;stroke:#231f20;stroke-width:3.81534004;stroke-linecap:butt;stroke-linejoin:miter;stroke-miterlimit:10;stroke-opacity:1;stroke-dasharray:none" /><path
         d="m 2228.16,587.562 34.34,-34.335"
         inkscape:connector-curvature="0"
         id="path36"
         style="fill:none;stroke:#231f20;stroke-width:3.81534004;stroke-linecap:butt;stroke-linejoin:miter;stroke-miterlimit:10;stroke-opacity:1;stroke-dasharray:none" /><path
         d="m 10641,587.562 c 40.3,-112.82 6.8,-245.242 22.9,-362.457"
         inkscape:connector-curvature="0"
         id="path38"
         style="fill:none;stroke:#231f20;stroke-width:3.81534004;stroke-linecap:butt;stroke-linejoin:miter;stroke-miterlimit:10;stroke-opacity:1;stroke-dasharray:none" /><path
         d="m 10774.5,583.746 c 46.7,-64.098 33.3,-131.812 57.3,-202.211 24.6,11.445 58.5,38.153 86.8,34.336 67,-8.086 65.8,-143.187 65.8,-190.766"
         inkscape:connector-curvature="0"
         id="path40"
         style="fill:none;stroke:#231f20;stroke-width:3.81534004;stroke-linecap:butt;stroke-linejoin:miter;stroke-miterlimit:10;stroke-opacity:1;stroke-dasharray:none" /><path
         d="m 7127.06,579.934 57.23,-305.231"
         inkscape:connector-curvature="0"
         id="path42"
         style="fill:none;stroke:#231f20;stroke-width:3.81534004;stroke-linecap:butt;stroke-linejoin:miter;stroke-miterlimit:10;stroke-opacity:1;stroke-dasharray:none" /><path
         d="m 13902.3,547.754 c 32.7,-2.848 34.5,-41.758 22.8,-65.453 -13,-26.399 -57.4,-45.903 -86,-41.781 -28,4.019 -34.5,33.027 -22.8,55.476 15.2,28.836 52.5,54.707 86,51.758"
         inkscape:connector-curvature="0"
         id="path44"
         style="fill:none;stroke:#231f20;stroke-width:3.81534004;stroke-linecap:butt;stroke-linejoin:miter;stroke-miterlimit:10;stroke-opacity:1;stroke-dasharray:none" /><path
         d="m 14158.7,537.965 c -29.3,-20.238 -83.9,-38.656 -88.5,-79.711 -3.7,-34.301 44.7,-48.008 60.3,-73.649 34.2,-56.484 32.9,-149.867 -3,-204.777 -63.5,-96.8046 -167.7,8.043 -136.6,94.875"
         inkscape:connector-curvature="0"
         id="path46"
         style="fill:none;stroke:#231f20;stroke-width:3.81534004;stroke-linecap:butt;stroke-linejoin:miter;stroke-miterlimit:10;stroke-opacity:1;stroke-dasharray:none" /><path
         d="m 12464.7,511.258 c 56.3,-0.504 115.5,-52.028 141.8,-99.199 16.5,-29.664 20.9,-66.301 -9.9,-88.442 -45.3,-32.476 -114.5,-0.656 -121.1,54.102 -5,41.969 23.6,75.097 46.5,106.828"
         inkscape:connector-curvature="0"
         id="path48"
         style="fill:none;stroke:#231f20;stroke-width:3.81534004;stroke-linecap:butt;stroke-linejoin:miter;stroke-miterlimit:10;stroke-opacity:1;stroke-dasharray:none" /><path
         d="m 14288.5,404.426 c 9.7,41.25 29.3,76.308 72.5,89.285 20.5,6.098 81.7,6.762 70.5,-30.773 -8.4,-27.989 -58.6,-34.376 -82,-43.25 -20.3,-8.149 -39.1,-14.075 -61,-15.262"
         inkscape:connector-curvature="0"
         id="path50"
         style="fill:none;stroke:#231f20;stroke-width:3.81534004;stroke-linecap:butt;stroke-linejoin:miter;stroke-miterlimit:10;stroke-opacity:1;stroke-dasharray:none" /><path
         d="m 1354.45,495.996 30.52,-22.894"
         inkscape:connector-curvature="0"
         id="path52"
         style="fill:none;stroke:#231f20;stroke-width:3.81534004;stroke-linecap:butt;stroke-linejoin:miter;stroke-miterlimit:10;stroke-opacity:1;stroke-dasharray:none" /><path
         d="m 12014.5,495.996 c -18.3,-41.969 -8.1,-96.844 -34.9,-134.859 -13.5,-19.172 -36.5,-27 -56.6,-36.832 -44.4,-22.043 -104.6,-58.891 -141.2,-2.918 -29,44.535 -16.7,109.004 -26.7,159.347"
         inkscape:connector-curvature="0"
         id="path54"
         style="fill:none;stroke:#231f20;stroke-width:3.81534004;stroke-linecap:butt;stroke-linejoin:miter;stroke-miterlimit:10;stroke-opacity:1;stroke-dasharray:none" /><path
         d="m 12918.8,392.98 c -6.1,25.938 -6.2,55.282 13.3,76.309 9.5,9.84 28.6,19.074 40.1,7.629 16.5,-15.606 0.6,-44.262 -11.5,-56.574 -32.4,-31.86 -79.7,-46.442 -122.1,-57.887"
         inkscape:connector-curvature="0"
         id="path56"
         style="fill:none;stroke:#231f20;stroke-width:3.81534004;stroke-linecap:butt;stroke-linejoin:miter;stroke-miterlimit:10;stroke-opacity:1;stroke-dasharray:none" /><path
         d="m 11228.6,358.641 c 1.8,41.019 45.4,166.066 105.3,102.433 61.2,-64.961 -63,-101.769 -105.3,-102.433"
         inkscape:connector-curvature="0"
         id="path58"
         style="fill:none;stroke:#231f20;stroke-width:3.81534004;stroke-linecap:butt;stroke-linejoin:miter;stroke-miterlimit:10;stroke-opacity:1;stroke-dasharray:none" /><path
         d="m 8706.62,473.102 175.5,-19.075"
         inkscape:connector-curvature="0"
         id="path60"
         style="fill:none;stroke:#231f20;stroke-width:3.81534004;stroke-linecap:butt;stroke-linejoin:miter;stroke-miterlimit:10;stroke-opacity:1;stroke-dasharray:none" /><path
         d="m 13922.2,465.473 26.7,-61.047"
         inkscape:connector-curvature="0"
         id="path62"
         style="fill:none;stroke:#231f20;stroke-width:3.81534004;stroke-linecap:butt;stroke-linejoin:miter;stroke-miterlimit:10;stroke-opacity:1;stroke-dasharray:none" /><path
         d="m 6047.32,194.582 c -103.91,22.895 -108.09,126.535 -50.67,202.215 30.51,39.957 75.25,74.246 123.16,41.969"
         inkscape:connector-curvature="0"
         id="path64"
         style="fill:none;stroke:#231f20;stroke-width:3.81534004;stroke-linecap:butt;stroke-linejoin:miter;stroke-miterlimit:10;stroke-opacity:1;stroke-dasharray:none" /><path
         d="m 7737.52,240.367 -7.63,133.535 c 30.93,24.731 71.01,87.09 117.42,65.778 25.56,-11.739 44.09,-40.407 65.71,-58.145 22.1,24.313 45.79,62.731 80.13,70.211 85.06,18.578 94.08,-125.855 80.12,-177.043"
         inkscape:connector-curvature="0"
         id="path66"
         style="fill:none;stroke:#231f20;stroke-width:3.81534004;stroke-linecap:butt;stroke-linejoin:miter;stroke-miterlimit:10;stroke-opacity:1;stroke-dasharray:none" /><path
         d="m 5211.76,362.457 c 7.63,41.969 26.14,70.723 68.68,82.832 21.15,6.008 64.86,10.668 64.37,-22.824 -0.41,-19.977 -17.6,-36.125 -34.29,-44.387 -29.3,-14.492 -80.02,-4.176 -103.38,-27.066 -44.41,-43.383 26.88,-125.578 73.3,-125.907"
         inkscape:connector-curvature="0"
         id="path68"
         style="fill:none;stroke:#231f20;stroke-width:3.81534004;stroke-linecap:butt;stroke-linejoin:miter;stroke-miterlimit:10;stroke-opacity:1;stroke-dasharray:none" /><path
         d="m 8893.57,450.211 41.97,3.816"
         inkscape:connector-curvature="0"
         id="path70"
         style="fill:none;stroke:#231f20;stroke-width:3.81534004;stroke-linecap:butt;stroke-linejoin:miter;stroke-miterlimit:10;stroke-opacity:1;stroke-dasharray:none" /><path
         d="m 2556.28,225.105 c 41.97,-5.054 116.07,19.442 75.02,74.508 -26.91,36.137 -77.09,47.157 -103.23,83.942 -27.79,39.105 12.26,60.351 47.29,59.023"
         inkscape:connector-curvature="0"
         id="path72"
         style="fill:none;stroke:#231f20;stroke-width:3.81534004;stroke-linecap:butt;stroke-linejoin:miter;stroke-miterlimit:10;stroke-opacity:1;stroke-dasharray:none" /><path
         d="m 8546.37,278.52 c 24.3,-19.075 91.99,-35.692 80.13,19.078 -9.11,40.59 -55.92,63.714 -59.12,106.445 -5.18,69.059 88.8,27.09 112.53,4.199"
         inkscape:connector-curvature="0"
         id="path74"
         style="fill:none;stroke:#231f20;stroke-width:3.81534004;stroke-linecap:butt;stroke-linejoin:miter;stroke-miterlimit:10;stroke-opacity:1;stroke-dasharray:none" /><path
         d="m 4280.82,354.828 c 3.19,14.418 6.51,28.762 13.73,41.969 4.86,8.617 11.07,16.641 18.6,23.301 59.71,53.004 81.22,-42.719 9.64,-63.481 -13.98,-4.07 -27.65,-3.379 -41.97,-1.789 -30.89,-43.48 -30.13,-108.496 30.52,-127.051 25,-7.586 51.86,-0.996 76.31,4.957"
         inkscape:connector-curvature="0"
         id="path76"
         style="fill:none;stroke:#231f20;stroke-width:3.81534004;stroke-linecap:butt;stroke-linejoin:miter;stroke-miterlimit:10;stroke-opacity:1;stroke-dasharray:none" /><path
         d="m 6405.96,206.027 c -58.25,-8.097 -115.76,0.645 -164.06,36.703 -64.86,48.684 -62.15,118.887 7.64,160.786 35.72,21.41 80.12,37.281 122.08,38.136 18.48,0.379 43.61,-2.488 49.61,-23.804 14.06,-53.735 -71.82,-85.914 -106.84,-104.989"
         inkscape:connector-curvature="0"
         id="path78"
         style="fill:none;stroke:#231f20;stroke-width:3.81534004;stroke-linecap:butt;stroke-linejoin:miter;stroke-miterlimit:10;stroke-opacity:1;stroke-dasharray:none" /><path
         d="m 5505.54,370.09 30.53,-45.785 c 45.78,35.808 82.69,100.371 144.98,108.89 101.77,13.926 111.35,-153.797 83.93,-215.718"
         inkscape:connector-curvature="0"
         id="path80"
         style="fill:none;stroke:#231f20;stroke-width:3.81534004;stroke-linecap:butt;stroke-linejoin:miter;stroke-miterlimit:10;stroke-opacity:1;stroke-dasharray:none" /><path
         d="m 7672.66,438.766 57.23,-64.864"
         inkscape:connector-curvature="0"
         id="path82"
         style="fill:none;stroke:#231f20;stroke-width:3.81534004;stroke-linecap:butt;stroke-linejoin:miter;stroke-miterlimit:10;stroke-opacity:1;stroke-dasharray:none" /><path
         d="m 9393.38,438.766 c 0,-71.762 19.67,-138.262 41.97,-206.032"
         inkscape:connector-curvature="0"
         id="path84"
         style="fill:none;stroke:#231f20;stroke-width:3.81534004;stroke-linecap:butt;stroke-linejoin:miter;stroke-miterlimit:10;stroke-opacity:1;stroke-dasharray:none" /><path
         d="m 4044.27,236.551 c 66.89,40.183 -37.64,91.129 -61.05,119.965 -26.71,32.648 -0.92,63.789 34.34,71.886 16.19,3.715 33.14,4.582 49.6,6.547"
         inkscape:connector-curvature="0"
         id="path86"
         style="fill:none;stroke:#231f20;stroke-width:3.81534004;stroke-linecap:butt;stroke-linejoin:miter;stroke-miterlimit:10;stroke-opacity:1;stroke-dasharray:none" /><path
         d="m 1606.26,206.027 c 29.06,-6.89 117.25,-6.062 72.09,45.176 -26.8,30.391 -169.23,88.363 -100.53,142.668 7.4,5.844 16.04,9.981 24.63,13.457 13.55,5.371 27.73,9.227 41.96,11.801 19.08,3.5 38.16,3.117 57.23,0.559"
         inkscape:connector-curvature="0"
         id="path88"
         style="fill:none;stroke:#231f20;stroke-width:3.81534004;stroke-linecap:butt;stroke-linejoin:miter;stroke-miterlimit:10;stroke-opacity:1;stroke-dasharray:none" /><path
         d="m 8195.36,423.504 c 14.17,-50.27 49.95,-196.93 130.89,-122.09 28,25.617 34.48,68.281 56.06,99.195"
         inkscape:connector-curvature="0"
         id="path90"
         style="fill:none;stroke:#231f20;stroke-width:3.81534004;stroke-linecap:butt;stroke-linejoin:miter;stroke-miterlimit:10;stroke-opacity:1;stroke-dasharray:none" /><path
         d="m 12151.9,423.504 -3.8,-64.863"
         inkscape:connector-curvature="0"
         id="path92"
         style="fill:none;stroke:#231f20;stroke-width:3.81534004;stroke-linecap:butt;stroke-linejoin:miter;stroke-miterlimit:10;stroke-opacity:1;stroke-dasharray:none" /><path
         d="m 9633.75,419.688 c 20.44,-44.872 26.27,-88.7 30.52,-137.352"
         inkscape:connector-curvature="0"
         id="path94"
         style="fill:none;stroke:#231f20;stroke-width:3.81534004;stroke-linecap:butt;stroke-linejoin:miter;stroke-miterlimit:10;stroke-opacity:1;stroke-dasharray:none" /><path
         d="m 7165.22,400.609 103.01,15.262"
         inkscape:connector-curvature="0"
         id="path96"
         style="fill:none;stroke:#231f20;stroke-width:3.81534004;stroke-linecap:butt;stroke-linejoin:miter;stroke-miterlimit:10;stroke-opacity:1;stroke-dasharray:none" /><path
         d="m 4574.6,263.258 c 0,50.066 15.26,77.375 49.6,113.722 16.45,17.379 38.84,35.079 63.94,24.274 50.52,-22.098 72,-104.09 77.23,-153.258"
         inkscape:connector-curvature="0"
         id="path98"
         style="fill:none;stroke:#231f20;stroke-width:3.81534004;stroke-linecap:butt;stroke-linejoin:miter;stroke-miterlimit:10;stroke-opacity:1;stroke-dasharray:none" /><path
         d="m 7001.16,404.426 19.07,-144.981"
         inkscape:connector-curvature="0"
         id="path100"
         style="fill:none;stroke:#231f20;stroke-width:3.81534004;stroke-linecap:butt;stroke-linejoin:miter;stroke-miterlimit:10;stroke-opacity:1;stroke-dasharray:none" /><path
         d="m 4891.27,377.719 144.98,22.89"
         inkscape:connector-curvature="0"
         id="path102"
         style="fill:none;stroke:#231f20;stroke-width:3.81534004;stroke-linecap:butt;stroke-linejoin:miter;stroke-miterlimit:10;stroke-opacity:1;stroke-dasharray:none" /><path
         d="m 10522.7,400.609 129.7,-15.257"
         inkscape:connector-curvature="0"
         id="path104"
         style="fill:none;stroke:#231f20;stroke-width:3.81534004;stroke-linecap:butt;stroke-linejoin:miter;stroke-miterlimit:10;stroke-opacity:1;stroke-dasharray:none" /><path
         d="m 3418.55,202.215 -72.49,76.305 c -15.88,-11.055 -31.7,-23.743 -49.6,-31.329 -33.72,-14.457 -61.71,6.926 -61.05,42.774 1.04,73.996 66.47,122.094 133.54,91.57"
         inkscape:connector-curvature="0"
         id="path106"
         style="fill:none;stroke:#231f20;stroke-width:3.81534004;stroke-linecap:butt;stroke-linejoin:miter;stroke-miterlimit:10;stroke-opacity:1;stroke-dasharray:none" /><path
         d="m 5047.7,396.797 41.97,0"
         inkscape:connector-curvature="0"
         id="path108"
         style="fill:none;stroke:#231f20;stroke-width:3.81534004;stroke-linecap:butt;stroke-linejoin:miter;stroke-miterlimit:10;stroke-opacity:1;stroke-dasharray:none" /><path
         d="m 14299.9,396.797 c 3.8,-66.168 44,-117.465 114.5,-110.645"
         inkscape:connector-curvature="0"
         id="path110"
         style="fill:none;stroke:#231f20;stroke-width:3.81534004;stroke-linecap:butt;stroke-linejoin:miter;stroke-miterlimit:10;stroke-opacity:1;stroke-dasharray:none" /><path
         d="m 12914.9,389.164 c 39.7,-74.019 85.1,-110.141 167.9,-125.906"
         inkscape:connector-curvature="0"
         id="path112"
         style="fill:none;stroke:#231f20;stroke-width:3.81534004;stroke-linecap:butt;stroke-linejoin:miter;stroke-miterlimit:10;stroke-opacity:1;stroke-dasharray:none" /><path
         d="m 7913.02,381.535 0,-91.57"
         inkscape:connector-curvature="0"
         id="path114"
         style="fill:none;stroke:#231f20;stroke-width:3.81534004;stroke-linecap:butt;stroke-linejoin:miter;stroke-miterlimit:10;stroke-opacity:1;stroke-dasharray:none" /><path
         d="m 2304.47,377.719 7.63,-129.723"
         inkscape:connector-curvature="0"
         id="path116"
         style="fill:none;stroke:#231f20;stroke-width:3.81534004;stroke-linecap:butt;stroke-linejoin:miter;stroke-miterlimit:10;stroke-opacity:1;stroke-dasharray:none" /><path
         d="m 10827.9,377.719 -7.6,-114.461"
         inkscape:connector-curvature="0"
         id="path118"
         style="fill:none;stroke:#231f20;stroke-width:3.81534004;stroke-linecap:butt;stroke-linejoin:miter;stroke-miterlimit:10;stroke-opacity:1;stroke-dasharray:none" /><path
         d="m 11228.6,358.641 c -54.4,-70.59 6.3,-144.016 76.3,-171.688"
         inkscape:connector-curvature="0"
         id="path120"
         style="fill:none;stroke:#231f20;stroke-width:3.81534004;stroke-linecap:butt;stroke-linejoin:miter;stroke-miterlimit:10;stroke-opacity:1;stroke-dasharray:none" /><path
         d="m 4555.52,347.195 22.89,-19.074"
         inkscape:connector-curvature="0"
         id="path122"
         style="fill:none;stroke:#231f20;stroke-width:3.81534004;stroke-linecap:butt;stroke-linejoin:miter;stroke-miterlimit:10;stroke-opacity:1;stroke-dasharray:none" /><path
         d="m 1381.16,331.934 11.44,-186.95"
         inkscape:connector-curvature="0"
         id="path124"
         style="fill:none;stroke:#231f20;stroke-width:3.81534004;stroke-linecap:butt;stroke-linejoin:miter;stroke-miterlimit:10;stroke-opacity:1;stroke-dasharray:none" /><path
         d="m 5536.07,324.305 -7.64,-103.016"
         inkscape:connector-curvature="0"
         id="path126"
         style="fill:none;stroke:#231f20;stroke-width:3.81534004;stroke-linecap:butt;stroke-linejoin:miter;stroke-miterlimit:10;stroke-opacity:1;stroke-dasharray:none" /><path
         d="M 545.594,305.227 C 522.703,271.238 525.184,241.617 526.52,202.215"
         inkscape:connector-curvature="0"
         id="path128"
         style="fill:none;stroke:#231f20;stroke-width:3.81534004;stroke-linecap:butt;stroke-linejoin:miter;stroke-miterlimit:10;stroke-opacity:1;stroke-dasharray:none" /><path
         d="m 969.098,297.598 3.816,-129.723"
         inkscape:connector-curvature="0"
         id="path130"
         style="fill:none;stroke:#231f20;stroke-width:3.81534004;stroke-linecap:butt;stroke-linejoin:miter;stroke-miterlimit:10;stroke-opacity:1;stroke-dasharray:none" /><path
         d="m 3346.06,286.152 0,-7.632"
         inkscape:connector-curvature="0"
         id="path132"
         style="fill:none;stroke:#231f20;stroke-width:3.81534004;stroke-linecap:butt;stroke-linejoin:miter;stroke-miterlimit:10;stroke-opacity:1;stroke-dasharray:none" /></g></g></svg>