<?xml version="1.0" encoding="UTF-8" standalone="no"?>
<!-- Created with Inkscape (http://www.inkscape.org/) -->

<svg
   xmlns:dc="http://purl.org/dc/elements/1.1/"
   xmlns:cc="http://creativecommons.org/ns#"
   xmlns:rdf="http://www.w3.org/1999/02/22-rdf-syntax-ns#"
   xmlns:svg="http://www.w3.org/2000/svg"
   xmlns="http://www.w3.org/2000/svg"
   xmlns:inkscape="http://www.inkscape.org/namespaces/inkscape"
   version="1.1"
   width="3780"
   height="1202.5"
   id="svg2"
   xml:space="preserve"><metadata
     id="metadata8"><rdf:RDF><cc:Work
         rdf:about=""><dc:format>image/svg+xml</dc:format><dc:type
           rdf:resource="http://purl.org/dc/dcmitype/StillImage" /></cc:Work></rdf:RDF></metadata><defs
     id="defs6" /><g
     transform="matrix(1.25,0,0,-1.25,0,1202.5)"
     id="g10"><g
       transform="scale(0.206135,0.206135)"
       id="g12"><path
         d="m 10764.8,3623.84 c 145.5,145.54 389.9,77.62 427.5,-130.98 17,-93.98 -23.1,-189.2 -52.9,-276.52 -30.8,-89.72 -52,-179.5 -73.8,-271.67 105.3,-52.28 250.5,-28.06 363.8,-21.02 76,4.71 152,-2.62 228,-3.23"
         inkscape:connector-curvature="0"
         id="path14"
         style="fill:none;stroke:#231f20;stroke-width:4.85119009;stroke-linecap:butt;stroke-linejoin:miter;stroke-miterlimit:10;stroke-opacity:1;stroke-dasharray:none" /><path
         d="m 3662.65,3269.7 c 27.35,92.18 102.51,131.96 194.05,146.05 49.91,7.69 98.38,6.47 128.2,-40.2 88.49,-138.49 -165.5,-377.06 56.14,-435.73 31.77,-8.02 64.57,-14.55 97.03,-19.4 41.95,-6.92 83.86,-6.22 126.13,-4.85"
         inkscape:connector-curvature="0"
         id="path16"
         style="fill:none;stroke:#231f20;stroke-width:4.85119009;stroke-linecap:butt;stroke-linejoin:miter;stroke-miterlimit:10;stroke-opacity:1;stroke-dasharray:none" /><path
         d="m 6675.24,3313.36 c 69.9,57.56 279.29,115.95 302.38,-24.25 20.29,-123.33 -156.85,-362.01 51.76,-397.27 27.39,-4.63 54.91,-2.11 82.46,-1.12 39.42,1.41 77.62,3.57 116.43,10.29"
         inkscape:connector-curvature="0"
         id="path18"
         style="fill:none;stroke:#231f20;stroke-width:4.85119009;stroke-linecap:butt;stroke-linejoin:miter;stroke-miterlimit:10;stroke-opacity:1;stroke-dasharray:none" /><path
         d="m 5937.86,2998.04 c -17.06,-60.5 -12.89,-122.26 -15.19,-184.35 -4.64,-125.11 -4.83,-248.55 3.54,-373.54 4.88,-72.77 -4.45,-148.59 21.35,-218.31 291.88,46.62 537.26,-139.84 716.81,-349.91 79.38,-92.89 172.42,-232.23 114.55,-358.36 -80.04,-174.2 -279.51,-233.39 -452.97,-251.46 -110.37,-11.49 -228.75,2.92 -305.18,94.45 -39.25,47.33 -46.8,112.83 -50.55,171.56 -5.99,93.67 -4.15,187.72 -9.43,281.38 -3.53,64.34 1.32,130.04 -5.11,194.04 -8.12,79.74 -33.86,138.16 -3.27,218.3"
         inkscape:connector-curvature="0"
         id="path20"
         style="fill:none;stroke:#231f20;stroke-width:4.85119009;stroke-linecap:butt;stroke-linejoin:miter;stroke-miterlimit:10;stroke-opacity:1;stroke-dasharray:none" /><path
         d="m 3929.46,1382.59 c -20.35,100.15 -67.25,192.8 -94.96,291.07 -21.46,77.62 -19.48,147.9 -89.38,198.9 -61.71,-71.54 -72.77,-179.97 -107.14,-266.82 -64.47,-162.06 -210.61,-338 -387.68,-376.19 -158.4,-34.16 -283.28,87.16 -346.7,220.96 -39.56,83.47 -50.02,166.36 -61.82,257.11 -24.45,188.09 -21.96,380.2 99.81,538.48 92.66,120.41 222.19,151.05 362.07,184.78 108.38,26.14 218.3,51.32 329.88,54.67 65.18,1.95 81.37,-28.66 126.13,-67.4 22.78,-19.98 55.47,-25.6 76.79,-47.51 27.27,-28.01 15.38,-71.18 10.54,-105.13"
         inkscape:connector-curvature="0"
         id="path22"
         style="fill:none;stroke:#231f20;stroke-width:4.85119009;stroke-linecap:butt;stroke-linejoin:miter;stroke-miterlimit:10;stroke-opacity:1;stroke-dasharray:none" /><path
         d="m 10638.7,1401.99 c -17.8,-35.38 -35,-71.12 -64.6,-98.36 -75.5,-69.56 -160,-52.51 -245.9,-17.27 -104.2,42.87 -196.2,97.18 -286.2,165.1 -61.16,46.15 -132.46,99.95 -168.87,168.84 -114.31,216.46 48.31,420.67 186.57,577.29 67.2,76.15 143,150.39 234.5,196.83 87.3,44.4 181,60.28 271.7,94.24"
         inkscape:connector-curvature="0"
         id="path24"
         style="fill:none;stroke:#231f20;stroke-width:4.85119009;stroke-linecap:butt;stroke-linejoin:miter;stroke-miterlimit:10;stroke-opacity:1;stroke-dasharray:none" /><path
         d="m 5118.01,2415.89 c 32.56,-105.79 29.1,-234.19 33.95,-344.43 l -436.6,0"
         inkscape:connector-curvature="0"
         id="path26"
         style="fill:none;stroke:#231f20;stroke-width:4.85119009;stroke-linecap:butt;stroke-linejoin:miter;stroke-miterlimit:10;stroke-opacity:1;stroke-dasharray:none" /><path
         d="m 3749.97,2411.04 c -22.85,-55.68 -14.55,-120.38 -14.55,-179.49 0,-120 7.49,-239.16 9.7,-358.99"
         inkscape:connector-curvature="0"
         id="path28"
         style="fill:none;stroke:#231f20;stroke-width:4.85119009;stroke-linecap:butt;stroke-linejoin:miter;stroke-miterlimit:10;stroke-opacity:1;stroke-dasharray:none" /><path
         d="m 8232.47,2299.46 c 57.28,2.45 113.07,20.08 169.79,28.24 121.28,17.45 241.73,26.06 363.84,11.01 61.52,-7.57 144.15,-5.29 184.35,-58.65"
         inkscape:connector-curvature="0"
         id="path30"
         style="fill:none;stroke:#231f20;stroke-width:4.85119009;stroke-linecap:butt;stroke-linejoin:miter;stroke-miterlimit:10;stroke-opacity:1;stroke-dasharray:none" /><path
         d="m 5156.82,2066.61 14.55,-412.35"
         inkscape:connector-curvature="0"
         id="path32"
         style="fill:none;stroke:#231f20;stroke-width:4.85119009;stroke-linecap:butt;stroke-linejoin:miter;stroke-miterlimit:10;stroke-opacity:1;stroke-dasharray:none" /><path
         d="m 5166.52,2052.05 c 83.27,-2.87 169.06,-8.65 247.41,-38.8"
         inkscape:connector-curvature="0"
         id="path34"
         style="fill:none;stroke:#231f20;stroke-width:4.85119009;stroke-linecap:butt;stroke-linejoin:miter;stroke-miterlimit:10;stroke-opacity:1;stroke-dasharray:none" /><path
         d="m 7951.1,1736.73 c 55.08,-23.43 107.29,-25.71 164.94,-37.52 195.51,-40.1 392.95,-42.73 591.85,-55.55 214.1,-13.66 424.82,-67.02 640.36,-67.02"
         inkscape:connector-curvature="0"
         id="path36"
         style="fill:none;stroke:#231f20;stroke-width:4.85119009;stroke-linecap:butt;stroke-linejoin:miter;stroke-miterlimit:10;stroke-opacity:1;stroke-dasharray:none" /></g></g></svg>