<?xml version="1.0" encoding="UTF-8" standalone="no"?>
<!-- Created with Inkscape (http://www.inkscape.org/) -->

<svg
   xmlns:dc="http://purl.org/dc/elements/1.1/"
   xmlns:cc="http://creativecommons.org/ns#"
   xmlns:rdf="http://www.w3.org/1999/02/22-rdf-syntax-ns#"
   xmlns:svg="http://www.w3.org/2000/svg"
   xmlns="http://www.w3.org/2000/svg"
   xmlns:inkscape="http://www.inkscape.org/namespaces/inkscape"
   version="1.1"
   width="4435"
   height="190"
   id="svg2"
   xml:space="preserve"><metadata
     id="metadata8"><rdf:RDF><cc:Work
         rdf:about=""><dc:format>image/svg+xml</dc:format><dc:type
           rdf:resource="http://purl.org/dc/dcmitype/StillImage" /></cc:Work></rdf:RDF></metadata><defs
     id="defs6" /><g
     transform="matrix(1.25,0,0,-1.25,0,190)"
     id="g10"><g
       transform="scale(0.241854,0.241854)"
       id="g12"><path
         d="m 13495.7,603.668 c 41.4,-126.156 25.4,-230.617 24.8,-359.719"
         inkscape:connector-curvature="0"
         id="path14"
         style="fill:none;stroke:#231f20;stroke-width:4.13471985;stroke-linecap:butt;stroke-linejoin:miter;stroke-miterlimit:10;stroke-opacity:1;stroke-dasharray:none" /><path
         d="m 12230.5,578.863 45.5,-272.894 c 32.7,18.219 69.7,60.765 107.5,65.074 71.1,8.191 72.1,-132.43 70.3,-176.711"
         inkscape:connector-curvature="0"
         id="path16"
         style="fill:none;stroke:#231f20;stroke-width:4.13471985;stroke-linecap:butt;stroke-linejoin:miter;stroke-miterlimit:10;stroke-opacity:1;stroke-dasharray:none" /><path
         d="m 12780.4,574.727 24.8,-215.004 4.2,-173.661"
         inkscape:connector-curvature="0"
         id="path18"
         style="fill:none;stroke:#231f20;stroke-width:4.13471985;stroke-linecap:butt;stroke-linejoin:miter;stroke-miterlimit:10;stroke-opacity:1;stroke-dasharray:none" /><path
         d="m 9931.61,558.188 c 27.19,-71.165 50.09,-147.204 57.88,-223.274 3.15,-30.035 -0.93,-91.57 23.51,-113.344 19.5,-17.402 43.3,12.133 57.4,23.035 30.1,23.231 57.6,12.258 77.4,-17.832 38,-57.878 5.5,-187.1246 -79.7,-135.8082"
         inkscape:connector-curvature="0"
         id="path20"
         style="fill:none;stroke:#231f20;stroke-width:4.13471985;stroke-linecap:butt;stroke-linejoin:miter;stroke-miterlimit:10;stroke-opacity:1;stroke-dasharray:none" /><path
         d="m 508.57,206.734 c 0,102.403 9.547,216.258 -24.808,314.243 l 107.504,28.941"
         inkscape:connector-curvature="0"
         id="path22"
         style="fill:none;stroke:#231f20;stroke-width:4.13471985;stroke-linecap:butt;stroke-linejoin:miter;stroke-miterlimit:10;stroke-opacity:1;stroke-dasharray:none" /><path
         d="m 694.633,541.648 c 22.711,-43.531 39.465,-87.644 46.594,-136.445 7.847,-53.75 5.41,-110.887 27.832,-161.254 l 128.175,99.235 C 942.719,286.59 925.82,220.293 950.988,157.121"
         inkscape:connector-curvature="0"
         id="path24"
         style="fill:none;stroke:#231f20;stroke-width:4.13471985;stroke-linecap:butt;stroke-linejoin:miter;stroke-miterlimit:10;stroke-opacity:1;stroke-dasharray:none" /><path
         d="m 4792.14,525.109 c 48.51,-71.558 45.48,-156.265 45.48,-239.812 -55.81,0 -114.42,5.812 -165.38,-20.676"
         inkscape:connector-curvature="0"
         id="path26"
         style="fill:none;stroke:#231f20;stroke-width:4.13471985;stroke-linecap:butt;stroke-linejoin:miter;stroke-miterlimit:10;stroke-opacity:1;stroke-dasharray:none" /><path
         d="m 235.68,450.684 c 80.164,32 161.254,62.773 248.082,70.293"
         inkscape:connector-curvature="0"
         id="path28"
         style="fill:none;stroke:#231f20;stroke-width:4.13471985;stroke-linecap:butt;stroke-linejoin:miter;stroke-miterlimit:10;stroke-opacity:1;stroke-dasharray:none" /><path
         d="m 5590.15,508.57 c 45.48,-56.562 51.07,-125.371 66.15,-194.332 -37.83,-10.707 -78.56,-2.527 -115.77,-15.972 -51.92,-19.004 -101.73,-73.446 -144.71,-108.067 l -70.3,136.446"
         inkscape:connector-curvature="0"
         id="path30"
         style="fill:none;stroke:#231f20;stroke-width:4.13471985;stroke-linecap:butt;stroke-linejoin:miter;stroke-miterlimit:10;stroke-opacity:1;stroke-dasharray:none" /><path
         d="m 6586.61,500.301 49.62,-305.969 c 42.14,18.523 79.36,61.059 124.04,70.711 92.97,20.254 105.62,-142.91 128.18,-198.8868"
         inkscape:connector-curvature="0"
         id="path32"
         style="fill:none;stroke:#231f20;stroke-width:4.13471985;stroke-linecap:butt;stroke-linejoin:miter;stroke-miterlimit:10;stroke-opacity:1;stroke-dasharray:none" /><path
         d="m 7483.85,496.168 c 42.99,-78.563 30.51,-154.824 41.35,-239.816 l 41.34,0"
         inkscape:connector-curvature="0"
         id="path34"
         style="fill:none;stroke:#231f20;stroke-width:4.13471985;stroke-linecap:butt;stroke-linejoin:miter;stroke-miterlimit:10;stroke-opacity:1;stroke-dasharray:none" /><path
         d="m 6470.84,475.492 12.41,-248.082 136.44,-4.137"
         inkscape:connector-curvature="0"
         id="path36"
         style="fill:none;stroke:#231f20;stroke-width:4.13471985;stroke-linecap:butt;stroke-linejoin:miter;stroke-miterlimit:10;stroke-opacity:1;stroke-dasharray:none" /><path
         d="m 1901.97,442.414 37.21,-28.941"
         inkscape:connector-curvature="0"
         id="path38"
         style="fill:none;stroke:#231f20;stroke-width:4.13471985;stroke-linecap:butt;stroke-linejoin:miter;stroke-miterlimit:10;stroke-opacity:1;stroke-dasharray:none" /><path
         d="m 12152,442.414 c -21.5,-59.918 -5.6,-124.926 -24.9,-186.062 -7.1,-21.426 -16.5,-54.579 -42.9,-58.278 -24.8,-3.742 -54.1,13.196 -77,21.067 -11.8,-19.368 -23.3,-40.926 -43,-53.352 -49.3,-30.969 -123.7,5.578 -146.8,53.352 -14.1,29.617 -12.8,63.609 -8.6,95.097"
         inkscape:connector-curvature="0"
         id="path40"
         style="fill:none;stroke:#231f20;stroke-width:4.13471985;stroke-linecap:butt;stroke-linejoin:miter;stroke-miterlimit:10;stroke-opacity:1;stroke-dasharray:none" /><path
         d="m 1021.28,425.875 28.94,-62.02"
         inkscape:connector-curvature="0"
         id="path42"
         style="fill:none;stroke:#231f20;stroke-width:4.13471985;stroke-linecap:butt;stroke-linejoin:miter;stroke-miterlimit:10;stroke-opacity:1;stroke-dasharray:none" /><path
         d="m 12644,425.875 c -17.2,-20.672 -31.7,-37.211 -57.9,-45.48 -7.1,-33.641 -20.7,-76.911 -10.5,-110.907 16,-51.754 94.8,-49.07 107.2,3.821 10.8,46.273 -36.4,82.277 -67.8,107.086"
         inkscape:connector-curvature="0"
         id="path44"
         style="fill:none;stroke:#231f20;stroke-width:4.13471985;stroke-linecap:butt;stroke-linejoin:miter;stroke-miterlimit:10;stroke-opacity:1;stroke-dasharray:none" /><path
         d="m 9274.19,417.605 c 38.43,-60.855 48.99,-123.332 49.61,-194.332 l -144.71,8.27"
         inkscape:connector-curvature="0"
         id="path46"
         style="fill:none;stroke:#231f20;stroke-width:4.13471985;stroke-linecap:butt;stroke-linejoin:miter;stroke-miterlimit:10;stroke-opacity:1;stroke-dasharray:none" /><path
         d="m 14219.3,285.297 c -9.3,38.242 16.6,117.945 70.7,103.367 43.3,-12.402 -8.1,-70.289 -25.2,-80.809 -14.3,-8.437 -30,-13.32 -45.5,-18.425 21.3,-107.5 126.8,-161.883 227.4,-128.176"
         inkscape:connector-curvature="0"
         id="path48"
         style="fill:none;stroke:#231f20;stroke-width:4.13471985;stroke-linecap:butt;stroke-linejoin:miter;stroke-miterlimit:10;stroke-opacity:1;stroke-dasharray:none" /><path
         d="m 5081.57,264.621 -28.94,0 c -4.13,32.102 -15.59,80.512 7.23,107.945 31.3,37.622 93.5,-9.121 90.28,-49.546 -2.41,-33.59 -43.2,-45.993 -68.57,-58.399 19.55,-57.391 59.29,-75.992 115.78,-86.828"
         inkscape:connector-curvature="0"
         id="path50"
         style="fill:none;stroke:#231f20;stroke-width:4.13471985;stroke-linecap:butt;stroke-linejoin:miter;stroke-miterlimit:10;stroke-opacity:1;stroke-dasharray:none" /><path
         d="m 13847.2,392.797 28.9,-33.074 -4.1,-74.426"
         inkscape:connector-curvature="0"
         id="path52"
         style="fill:none;stroke:#231f20;stroke-width:4.13471985;stroke-linecap:butt;stroke-linejoin:miter;stroke-miterlimit:10;stroke-opacity:1;stroke-dasharray:none" /><path
         d="m 13925.8,392.797 c 24.8,-48.586 40.6,-95.098 49.6,-148.848"
         inkscape:connector-curvature="0"
         id="path54"
         style="fill:none;stroke:#231f20;stroke-width:4.13471985;stroke-linecap:butt;stroke-linejoin:miter;stroke-miterlimit:10;stroke-opacity:1;stroke-dasharray:none" /><path
         d="m 12544.8,384.531 37.2,0"
         inkscape:connector-curvature="0"
         id="path56"
         style="fill:none;stroke:#231f20;stroke-width:4.13471985;stroke-linecap:butt;stroke-linejoin:miter;stroke-miterlimit:10;stroke-opacity:1;stroke-dasharray:none" /><path
         d="m 13690.1,380.395 20.6,-132.313"
         inkscape:connector-curvature="0"
         id="path58"
         style="fill:none;stroke:#231f20;stroke-width:4.13471985;stroke-linecap:butt;stroke-linejoin:miter;stroke-miterlimit:10;stroke-opacity:1;stroke-dasharray:none" /><path
         d="m 13876.1,363.855 45.5,16.54"
         inkscape:connector-curvature="0"
         id="path60"
         style="fill:none;stroke:#231f20;stroke-width:4.13471985;stroke-linecap:butt;stroke-linejoin:miter;stroke-miterlimit:10;stroke-opacity:1;stroke-dasharray:none" /><path
         d="m 13086.4,376.262 c -21.1,-95.102 -59.5,-126.172 -153,-144.719"
         inkscape:connector-curvature="0"
         id="path62"
         style="fill:none;stroke:#231f20;stroke-width:4.13471985;stroke-linecap:butt;stroke-linejoin:miter;stroke-miterlimit:10;stroke-opacity:1;stroke-dasharray:none" /><path
         d="m 2179,95.0977 c 62.02,20.6753 133.81,35.6013 177.79,86.8323 -33.08,40.343 -89.43,60.179 -117.1,104.156 -44.15,69.926 69.98,71.316 108.83,61.23"
         inkscape:connector-curvature="0"
         id="path64"
         style="fill:none;stroke:#231f20;stroke-width:4.13471985;stroke-linecap:butt;stroke-linejoin:miter;stroke-miterlimit:10;stroke-opacity:1;stroke-dasharray:none" /><path
         d="m 11304.3,231.543 c -24.8,-15.91 -47.9,-36.137 -74.4,-49.152 -49.6,-24.184 -157.1,4.574 -127,77.5 42.1,102.234 193.5,82.394 201.4,-28.348"
         inkscape:connector-curvature="0"
         id="path66"
         style="fill:none;stroke:#231f20;stroke-width:4.13471985;stroke-linecap:butt;stroke-linejoin:miter;stroke-miterlimit:10;stroke-opacity:1;stroke-dasharray:none" /><path
         d="m 5652.17,310.105 90.96,-28.945"
         inkscape:connector-curvature="0"
         id="path68"
         style="fill:none;stroke:#231f20;stroke-width:4.13471985;stroke-linecap:butt;stroke-linejoin:miter;stroke-miterlimit:10;stroke-opacity:1;stroke-dasharray:none" /><path
         d="m 5466.11,305.969 41.34,-20.672"
         inkscape:connector-curvature="0"
         id="path70"
         style="fill:none;stroke:#231f20;stroke-width:4.13471985;stroke-linecap:butt;stroke-linejoin:miter;stroke-miterlimit:10;stroke-opacity:1;stroke-dasharray:none" /><path
         d="m 1376.86,301.836 c -17.92,-8.27 -48.28,-16.539 -51.97,-39.246 -7.6,-47 121.58,-116.793 42.22,-158.094 -7.25,-3.769 -15.06,-6.0233 -23.32,-7.5272 -13.63,-2.586 -27.47,-2.2813 -41.35,-1.8711"
         inkscape:connector-curvature="0"
         id="path72"
         style="fill:none;stroke:#231f20;stroke-width:4.13471985;stroke-linecap:butt;stroke-linejoin:miter;stroke-miterlimit:10;stroke-opacity:1;stroke-dasharray:none" /><path
         d="m 12271.9,301.836 -12.4,-57.887"
         inkscape:connector-curvature="0"
         id="path74"
         style="fill:none;stroke:#231f20;stroke-width:4.13471985;stroke-linecap:butt;stroke-linejoin:miter;stroke-miterlimit:10;stroke-opacity:1;stroke-dasharray:none" /><path
         d="m 1083.3,297.699 c 18.54,-63.523 28.94,-128.176 28.94,-194.332"
         inkscape:connector-curvature="0"
         id="path76"
         style="fill:none;stroke:#231f20;stroke-width:4.13471985;stroke-linecap:butt;stroke-linejoin:miter;stroke-miterlimit:10;stroke-opacity:1;stroke-dasharray:none" /><path
         d="m 2960.46,74.4258 0,140.5782 c 23.23,20.676 41.35,57.148 68.53,71.598 49.98,26.269 95.58,-50.922 129.94,-75.731 15.34,19.477 31.21,48.859 55.2,58.617 26.92,10.95 50.96,-13.883 64.71,-33.808 33.07,-49.618 43.8,-115.774 49.61,-173.6605"
         inkscape:connector-curvature="0"
         id="path78"
         style="fill:none;stroke:#231f20;stroke-width:4.13471985;stroke-linecap:butt;stroke-linejoin:miter;stroke-miterlimit:10;stroke-opacity:1;stroke-dasharray:none" /><path
         d="m 4047.89,297.699 c -0.81,-13.781 -1.46,-27.664 -3.64,-41.347 -17.94,-112.524 -135.98,22.82 -182.42,19.894 -41.35,-2.641 -67.9,-69.98 -90.96,-98.453 l -74.43,70.289"
         inkscape:connector-curvature="0"
         id="path80"
         style="fill:none;stroke:#231f20;stroke-width:4.13471985;stroke-linecap:butt;stroke-linejoin:miter;stroke-miterlimit:10;stroke-opacity:1;stroke-dasharray:none" /><path
         d="m 8219.83,140.582 c 1.86,51.152 33.93,92.234 71.55,125.531 17.2,15.047 42.91,30.762 64.9,15.696 48.78,-33.157 49.07,-143.008 45.48,-194.9809"
         inkscape:connector-curvature="0"
         id="path82"
         style="fill:none;stroke:#231f20;stroke-width:4.13471985;stroke-linecap:butt;stroke-linejoin:miter;stroke-miterlimit:10;stroke-opacity:1;stroke-dasharray:none" /><path
         d="m 2935.65,293.566 24.81,-74.425"
         inkscape:connector-curvature="0"
         id="path84"
         style="fill:none;stroke:#231f20;stroke-width:4.13471985;stroke-linecap:butt;stroke-linejoin:miter;stroke-miterlimit:10;stroke-opacity:1;stroke-dasharray:none" /><path
         d="m 2046.69,289.43 c 32.07,-53.75 44.27,-108.688 53.75,-169.524"
         inkscape:connector-curvature="0"
         id="path86"
         style="fill:none;stroke:#231f20;stroke-width:4.13471985;stroke-linecap:butt;stroke-linejoin:miter;stroke-miterlimit:10;stroke-opacity:1;stroke-dasharray:none" /><path
         d="m 5681.11,289.43 c -8.66,-44.184 0,-88.637 8.27,-132.309"
         inkscape:connector-curvature="0"
         id="path88"
         style="fill:none;stroke:#231f20;stroke-width:4.13471985;stroke-linecap:butt;stroke-linejoin:miter;stroke-miterlimit:10;stroke-opacity:1;stroke-dasharray:none" /><path
         d="m 4837.62,285.297 c 12.41,-62.024 5.62,-133.992 -12.4,-194.3322"
         inkscape:connector-curvature="0"
         id="path90"
         style="fill:none;stroke:#231f20;stroke-width:4.13471985;stroke-linecap:butt;stroke-linejoin:miter;stroke-miterlimit:10;stroke-opacity:1;stroke-dasharray:none" /><path
         d="m 10332.7,285.297 -24.8,-70.293 -132.3,-41.344"
         inkscape:connector-curvature="0"
         id="path92"
         style="fill:none;stroke:#231f20;stroke-width:4.13471985;stroke-linecap:butt;stroke-linejoin:miter;stroke-miterlimit:10;stroke-opacity:1;stroke-dasharray:none" /><path
         d="m 8017.23,95.0977 c 8.78,60.0043 16.54,91.9373 56.39,140.2113 16.43,19.773 38.71,43.445 67.19,34.503 35.09,-11.035 56.61,-57.257 79.02,-83.75"
         inkscape:connector-curvature="0"
         id="path94"
         style="fill:none;stroke:#231f20;stroke-width:4.13471985;stroke-linecap:butt;stroke-linejoin:miter;stroke-miterlimit:10;stroke-opacity:1;stroke-dasharray:none" /><path
         d="m 4850.03,272.891 28.94,0"
         inkscape:connector-curvature="0"
         id="path96"
         style="fill:none;stroke:#231f20;stroke-width:4.13471985;stroke-linecap:butt;stroke-linejoin:miter;stroke-miterlimit:10;stroke-opacity:1;stroke-dasharray:none" /><path
         d="m 8558.88,272.891 c 0.5,-37.754 12.4,-160.153 80.2,-129.11 36.07,16.524 32.58,65.66 57.92,91.199 25.18,25.508 73.37,16.231 105.83,17.239"
         inkscape:connector-curvature="0"
         id="path98"
         style="fill:none;stroke:#231f20;stroke-width:4.13471985;stroke-linecap:butt;stroke-linejoin:miter;stroke-miterlimit:10;stroke-opacity:1;stroke-dasharray:none" /><path
         d="m 9046.78,268.758 c 14.47,-60.434 65.59,-135.094 54.65,-197.9182 -5.89,-33.6289 -38.11,-40.9218 -67.06,-31.3164 -42.53,14.2266 -69.11,49.375 -86.83,88.6526"
         inkscape:connector-curvature="0"
         id="path100"
         style="fill:none;stroke:#231f20;stroke-width:4.13471985;stroke-linecap:butt;stroke-linejoin:miter;stroke-miterlimit:10;stroke-opacity:1;stroke-dasharray:none" /><path
         d="m 5052.63,264.621 -70.29,-20.672"
         inkscape:connector-curvature="0"
         id="path102"
         style="fill:none;stroke:#231f20;stroke-width:4.13471985;stroke-linecap:butt;stroke-linejoin:miter;stroke-miterlimit:10;stroke-opacity:1;stroke-dasharray:none" /><path
         d="m 7967.61,264.621 53.75,-82.691"
         inkscape:connector-curvature="0"
         id="path104"
         style="fill:none;stroke:#231f20;stroke-width:4.13471985;stroke-linecap:butt;stroke-linejoin:miter;stroke-miterlimit:10;stroke-opacity:1;stroke-dasharray:none" /><path
         d="m 13057.5,260.488 c 18.1,-38.285 41.3,-47.871 82.7,-45.484"
         inkscape:connector-curvature="0"
         id="path106"
         style="fill:none;stroke:#231f20;stroke-width:4.13471985;stroke-linecap:butt;stroke-linejoin:miter;stroke-miterlimit:10;stroke-opacity:1;stroke-dasharray:none" /><path
         d="m 3514.14,249.086 c 70.66,-2.93 104.52,-143.406 12.78,-138.285 -69.48,3.887 -88.76,141.418 -12.78,138.285"
         inkscape:connector-curvature="0"
         id="path108"
         style="fill:none;stroke:#231f20;stroke-width:4.13471985;stroke-linecap:butt;stroke-linejoin:miter;stroke-miterlimit:10;stroke-opacity:1;stroke-dasharray:none" /><path
         d="m 7343.27,248.082 177.79,4.137 -16.54,-140.582"
         inkscape:connector-curvature="0"
         id="path110"
         style="fill:none;stroke:#231f20;stroke-width:4.13471985;stroke-linecap:butt;stroke-linejoin:miter;stroke-miterlimit:10;stroke-opacity:1;stroke-dasharray:none" /><path
         d="m 769.059,239.812 -4.133,-49.613"
         inkscape:connector-curvature="0"
         id="path112"
         style="fill:none;stroke:#231f20;stroke-width:4.13471985;stroke-linecap:butt;stroke-linejoin:miter;stroke-miterlimit:10;stroke-opacity:1;stroke-dasharray:none" /><path
         d="m 6367.48,239.812 111.63,-16.539"
         inkscape:connector-curvature="0"
         id="path114"
         style="fill:none;stroke:#231f20;stroke-width:4.13471985;stroke-linecap:butt;stroke-linejoin:miter;stroke-miterlimit:10;stroke-opacity:1;stroke-dasharray:none" /><path
         d="m 7190.29,136.445 c -10.67,-11.254 -21.2,-23.293 -34.33,-31.793 -34.76,-22.5075 -80.12,3.231 -81.94,44.2 -1.39,31.472 25.3,58.699 50.11,73.636 14.6,8.61 34.29,15.914 50.31,6.887 29.79,-16.793 12.84,-60.414 24.11,-86.559 14.21,-33.949 54.52,-65.3355 78.56,-93.1988"
         inkscape:connector-curvature="0"
         id="path116"
         style="fill:none;stroke:#231f20;stroke-width:4.13471985;stroke-linecap:butt;stroke-linejoin:miter;stroke-miterlimit:10;stroke-opacity:1;stroke-dasharray:none" /><path
         d="m 11308.5,227.41 53.7,-82.695"
         inkscape:connector-curvature="0"
         id="path118"
         style="fill:none;stroke:#231f20;stroke-width:4.13471985;stroke-linecap:butt;stroke-linejoin:miter;stroke-miterlimit:10;stroke-opacity:1;stroke-dasharray:none" /><path
         d="m 6479.11,223.273 -4.13,-115.769"
         inkscape:connector-curvature="0"
         id="path120"
         style="fill:none;stroke:#231f20;stroke-width:4.13471985;stroke-linecap:butt;stroke-linejoin:miter;stroke-miterlimit:10;stroke-opacity:1;stroke-dasharray:none" /><path
         d="m 9323.8,223.273 0,-86.828"
         inkscape:connector-curvature="0"
         id="path122"
         style="fill:none;stroke:#231f20;stroke-width:4.13471985;stroke-linecap:butt;stroke-linejoin:miter;stroke-miterlimit:10;stroke-opacity:1;stroke-dasharray:none" /><path
         d="m 4039.62,219.141 c 33.08,-51.606 62.52,-70.289 124.05,-66.157"
         inkscape:connector-curvature="0"
         id="path124"
         style="fill:none;stroke:#231f20;stroke-width:4.13471985;stroke-linecap:butt;stroke-linejoin:miter;stroke-miterlimit:10;stroke-opacity:1;stroke-dasharray:none" /><path
         d="m 9332.07,215.004 82.7,-4.133"
         inkscape:connector-curvature="0"
         id="path126"
         style="fill:none;stroke:#231f20;stroke-width:4.13471985;stroke-linecap:butt;stroke-linejoin:miter;stroke-miterlimit:10;stroke-opacity:1;stroke-dasharray:none" /><path
         d="m 10307.9,215.004 c 30.1,-54.832 66.1,-89.266 132.3,-82.692"
         inkscape:connector-curvature="0"
         id="path128"
         style="fill:none;stroke:#231f20;stroke-width:4.13471985;stroke-linecap:butt;stroke-linejoin:miter;stroke-miterlimit:10;stroke-opacity:1;stroke-dasharray:none" /><path
         d="m 3158.93,210.871 4.13,-41.348"
         inkscape:connector-curvature="0"
         id="path130"
         style="fill:none;stroke:#231f20;stroke-width:4.13471985;stroke-linecap:butt;stroke-linejoin:miter;stroke-miterlimit:10;stroke-opacity:1;stroke-dasharray:none" /><path
         d="m 10018.4,202.602 -4.1,-74.426"
         inkscape:connector-curvature="0"
         id="path132"
         style="fill:none;stroke:#231f20;stroke-width:4.13471985;stroke-linecap:butt;stroke-linejoin:miter;stroke-miterlimit:10;stroke-opacity:1;stroke-dasharray:none" /><path
         d="m 6636.23,194.332 0,-37.211"
         inkscape:connector-curvature="0"
         id="path134"
         style="fill:none;stroke:#231f20;stroke-width:4.13471985;stroke-linecap:butt;stroke-linejoin:miter;stroke-miterlimit:10;stroke-opacity:1;stroke-dasharray:none" /><path
         d="m 5337.93,152.984 53.75,37.215 49.62,-41.347"
         inkscape:connector-curvature="0"
         id="path136"
         style="fill:none;stroke:#231f20;stroke-width:4.13471985;stroke-linecap:butt;stroke-linejoin:miter;stroke-miterlimit:10;stroke-opacity:1;stroke-dasharray:none" /><path
         d="M 3770.87,173.66 3775,161.254"
         inkscape:connector-curvature="0"
         id="path138"
         style="fill:none;stroke:#231f20;stroke-width:4.13471985;stroke-linecap:butt;stroke-linejoin:miter;stroke-miterlimit:10;stroke-opacity:1;stroke-dasharray:none" /></g></g></svg>