<?xml version="1.0" encoding="UTF-8" standalone="no"?>
<!-- Created with Inkscape (http://www.inkscape.org/) -->

<svg
   xmlns:dc="http://purl.org/dc/elements/1.1/"
   xmlns:cc="http://creativecommons.org/ns#"
   xmlns:rdf="http://www.w3.org/1999/02/22-rdf-syntax-ns#"
   xmlns:svg="http://www.w3.org/2000/svg"
   xmlns="http://www.w3.org/2000/svg"
   xmlns:inkscape="http://www.inkscape.org/namespaces/inkscape"
   version="1.1"
   width="4597.5"
   height="211.25"
   id="svg2"
   xml:space="preserve"><metadata
     id="metadata8"><rdf:RDF><cc:Work
         rdf:about=""><dc:format>image/svg+xml</dc:format><dc:type
           rdf:resource="http://purl.org/dc/dcmitype/StillImage" /></cc:Work></rdf:RDF></metadata><defs
     id="defs6" /><g
     transform="matrix(1.25,0,0,-1.25,0,211.25)"
     id="g10"><g
       transform="scale(0.250716,0.250716)"
       id="g12"><path
         d="m 5005.67,243.305 c -24.57,93.355 -65.04,189.617 -67.81,287.175 -1.58,49.672 -0.72,95.043 51.85,115.668"
         inkscape:connector-curvature="0"
         id="path14"
         style="fill:none;stroke:#231f20;stroke-width:3.98857999;stroke-linecap:butt;stroke-linejoin:miter;stroke-miterlimit:10;stroke-opacity:1;stroke-dasharray:none" /><path
         d="m 215.383,622.219 27.922,-91.739 31.906,-135.609 c 22.695,5.504 44.555,7.977 67.809,3.988 19.941,-2.898 38.781,-9.925 54.921,-22.019 52.184,-39.098 55.485,-115.492 0.301,-153.481 -31.293,-21.312 -89.195,-37.875 -113.574,2.278 -13.848,22.808 -9.844,55.847 -14.18,81.484 -4.871,28.817 -3.593,54.977 0.735,83.762"
         inkscape:connector-curvature="0"
         id="path16"
         style="fill:none;stroke:#231f20;stroke-width:3.98857999;stroke-linecap:butt;stroke-linejoin:miter;stroke-miterlimit:10;stroke-opacity:1;stroke-dasharray:none" /><path
         d="m 5974.89,622.219 c 14.88,-63.039 17.65,-128.168 31.91,-191.453 6.05,-26.5 11.97,-61.125 37.65,-76.383 32.95,-19.805 54.09,24.531 79.22,37.508 54.64,28.824 130.42,-16.575 145.6,-72.805 22.27,-83.758 -82,-134.504 -150.79,-107.691 -50.27,19.375 -63.3,79.773 -67.8,127.636"
         inkscape:connector-curvature="0"
         id="path18"
         style="fill:none;stroke:#231f20;stroke-width:3.98857999;stroke-linecap:butt;stroke-linejoin:miter;stroke-miterlimit:10;stroke-opacity:1;stroke-dasharray:none" /><path
         d="m 8092.83,618.23 c 6.79,-59.226 -1.89,-124.464 23.93,-179.488 L 8104.8,287.18"
         inkscape:connector-curvature="0"
         id="path20"
         style="fill:none;stroke:#231f20;stroke-width:3.98857999;stroke-linecap:butt;stroke-linejoin:miter;stroke-miterlimit:10;stroke-opacity:1;stroke-dasharray:none" /><path
         d="m 2253.55,398.859 -51.85,-3.988 c -14.12,76.379 -10.12,156.539 59.83,203.418"
         inkscape:connector-curvature="0"
         id="path22"
         style="fill:none;stroke:#231f20;stroke-width:3.98857999;stroke-linecap:butt;stroke-linejoin:miter;stroke-miterlimit:10;stroke-opacity:1;stroke-dasharray:none" /><path
         d="m 1423.92,582.332 c 35.9,-65.25 20.68,-138.051 39.89,-207.406 -11.97,-43.297 -6.8,-83.16 11.96,-123.645"
         inkscape:connector-curvature="0"
         id="path24"
         style="fill:none;stroke:#231f20;stroke-width:3.98857999;stroke-linecap:butt;stroke-linejoin:miter;stroke-miterlimit:10;stroke-opacity:1;stroke-dasharray:none" /><path
         d="m 522.504,562.391 c 71.793,-111.68 47.086,-243.305 75.785,-366.95"
         inkscape:connector-curvature="0"
         id="path26"
         style="fill:none;stroke:#231f20;stroke-width:3.98857999;stroke-linecap:butt;stroke-linejoin:miter;stroke-miterlimit:10;stroke-opacity:1;stroke-dasharray:none" /><path
         d="m 8427.87,562.391 7.98,-7.977"
         inkscape:connector-curvature="0"
         id="path28"
         style="fill:none;stroke:#231f20;stroke-width:3.98857999;stroke-linecap:butt;stroke-linejoin:miter;stroke-miterlimit:10;stroke-opacity:1;stroke-dasharray:none" /><path
         d="m 12021.6,554.414 c 6.8,-45.289 31.9,-148.887 -27.9,-163.531"
         inkscape:connector-curvature="0"
         id="path30"
         style="fill:none;stroke:#231f20;stroke-width:3.98857999;stroke-linecap:butt;stroke-linejoin:miter;stroke-miterlimit:10;stroke-opacity:1;stroke-dasharray:none" /><path
         d="m 10589.7,534.469 c 14.7,-107.692 -26.6,-251.281 43.9,-343.016"
         inkscape:connector-curvature="0"
         id="path32"
         style="fill:none;stroke:#231f20;stroke-width:3.98857999;stroke-linecap:butt;stroke-linejoin:miter;stroke-miterlimit:10;stroke-opacity:1;stroke-dasharray:none" /><path
         d="M 5157.23,526.492 C 5098.31,473.121 5031.02,463.68 4953.82,462.676"
         inkscape:connector-curvature="0"
         id="path34"
         style="fill:none;stroke:#231f20;stroke-width:3.98857999;stroke-linecap:butt;stroke-linejoin:miter;stroke-miterlimit:10;stroke-opacity:1;stroke-dasharray:none" /><path
         d="m 9524.73,482.617 0,-3.988"
         inkscape:connector-curvature="0"
         id="path36"
         style="fill:none;stroke:#231f20;stroke-width:3.98857999;stroke-linecap:butt;stroke-linejoin:miter;stroke-miterlimit:10;stroke-opacity:1;stroke-dasharray:none" /><path
         d="m 8703.09,386.891 c 1.27,17.66 3.07,35.304 11.38,51.289 20.01,38.504 75.37,51.371 109.09,22.09 28.65,-24.883 8.78,-61.411 -21.24,-73.379 -11.49,-3.989 -23.45,-5.918 -35.42,-6.719 -19.94,-1.258 -39.88,0.742 -59.83,2.73 0,-71.793 44.9,-131.621 119.66,-135.609"
         inkscape:connector-curvature="0"
         id="path38"
         style="fill:none;stroke:#231f20;stroke-width:3.98857999;stroke-linecap:butt;stroke-linejoin:miter;stroke-miterlimit:10;stroke-opacity:1;stroke-dasharray:none" /><path
         d="m 4379.46,462.676 c -24.37,-17.235 -57.29,-37.254 -53.01,-71.793 5.15,-41.395 120.24,-122.735 21.1,-139.094 -10.39,-1.773 -21.14,-1.078 -31.91,-0.508"
         inkscape:connector-curvature="0"
         id="path40"
         style="fill:none;stroke:#231f20;stroke-width:3.98857999;stroke-linecap:butt;stroke-linejoin:miter;stroke-miterlimit:10;stroke-opacity:1;stroke-dasharray:none" /><path
         d="m 4088.3,354.984 c -33.03,-26.472 -143.59,-59.828 -127.13,23.93 7.92,39.887 49.95,63.82 83.25,79.774 25.17,-30.797 34.88,-65.586 43.88,-103.704 l 55.84,-3.988"
         inkscape:connector-curvature="0"
         id="path42"
         style="fill:none;stroke:#231f20;stroke-width:3.98857999;stroke-linecap:butt;stroke-linejoin:miter;stroke-miterlimit:10;stroke-opacity:1;stroke-dasharray:none" /><path
         d="m 7103.66,454.699 c -25.59,-23.933 -59.46,-50.265 -62.57,-87.75 -7.7,-93.027 131.16,-142.051 202.17,-115.668"
         inkscape:connector-curvature="0"
         id="path44"
         style="fill:none;stroke:#231f20;stroke-width:3.98857999;stroke-linecap:butt;stroke-linejoin:miter;stroke-miterlimit:10;stroke-opacity:1;stroke-dasharray:none" /><path
         d="m 9066.05,446.723 143.58,-27.922 c -15.33,-48.946 -62.24,-82.27 -72.85,-131.621 -9.94,-46.239 25.74,-88.258 72.85,-83.164 17.52,1.898 34.78,7.043 51.85,11.367"
         inkscape:connector-curvature="0"
         id="path46"
         style="fill:none;stroke:#231f20;stroke-width:3.98857999;stroke-linecap:butt;stroke-linejoin:miter;stroke-miterlimit:10;stroke-opacity:1;stroke-dasharray:none" /><path
         d="m 8459.78,442.734 c 29.19,-43.504 35.9,-84.761 23.93,-135.613"
         inkscape:connector-curvature="0"
         id="path48"
         style="fill:none;stroke:#231f20;stroke-width:3.98857999;stroke-linecap:butt;stroke-linejoin:miter;stroke-miterlimit:10;stroke-opacity:1;stroke-dasharray:none" /><path
         d="m 14259.2,442.734 c -9.7,-36.605 -24,-73.629 -26.5,-111.683 -7.9,-129.574 221,-179.485 222.7,-31.906 0.2,16.437 -3.8,32.695 -9.9,47.863 -8,19.57 -19.5,38.262 -34.2,53.476 -20.5,20.934 -44.4,29.153 -72.4,34.27"
         inkscape:connector-curvature="0"
         id="path50"
         style="fill:none;stroke:#231f20;stroke-width:3.98857999;stroke-linecap:butt;stroke-linejoin:miter;stroke-miterlimit:10;stroke-opacity:1;stroke-dasharray:none" /><path
         d="m 3725.34,438.742 c 16.35,-42.758 38.21,-132.328 -24.99,-150.254 -30.85,-8.691 -68.66,8.231 -98.66,14.645 -31.91,-58.078 -121.22,-105.219 -164.87,-27.356 -25.61,45.696 -19.33,108.891 -34.56,158.977"
         inkscape:connector-curvature="0"
         id="path52"
         style="fill:none;stroke:#231f20;stroke-width:3.98857999;stroke-linecap:butt;stroke-linejoin:miter;stroke-miterlimit:10;stroke-opacity:1;stroke-dasharray:none" /><path
         d="m 5436.44,279.199 c -39.23,-22.137 -86.17,-31.906 -126.95,-6.953 -74.09,45.805 -45.39,141.852 27.23,166.496"
         inkscape:connector-curvature="0"
         id="path54"
         style="fill:none;stroke:#231f20;stroke-width:3.98857999;stroke-linecap:butt;stroke-linejoin:miter;stroke-miterlimit:10;stroke-opacity:1;stroke-dasharray:none" /><path
         d="m 8116.76,438.742 c 26.95,0 60.86,4.613 85.6,-7.976 43.31,-22.473 65.97,-107.692 77.93,-151.567"
         inkscape:connector-curvature="0"
         id="path56"
         style="fill:none;stroke:#231f20;stroke-width:3.98857999;stroke-linecap:butt;stroke-linejoin:miter;stroke-miterlimit:10;stroke-opacity:1;stroke-dasharray:none" /><path
         d="m 13712.7,243.305 -67.8,75.781 c -23.4,-15.324 -47.8,-31.906 -75.7,-36.879 -48.4,-8.953 -140.9,29.543 -106.7,92.102 25.8,47.156 85.7,59.507 134.6,60.445"
         inkscape:connector-curvature="0"
         id="path58"
         style="fill:none;stroke:#231f20;stroke-width:3.98857999;stroke-linecap:butt;stroke-linejoin:miter;stroke-miterlimit:10;stroke-opacity:1;stroke-dasharray:none" /><path
         d="m 2740.16,426.777 83.75,-95.726 71.8,55.84"
         inkscape:connector-curvature="0"
         id="path60"
         style="fill:none;stroke:#231f20;stroke-width:3.98857999;stroke-linecap:butt;stroke-linejoin:miter;stroke-miterlimit:10;stroke-opacity:1;stroke-dasharray:none" /><path
         d="m 6397.68,426.777 c 17.52,-54.226 59.83,-114.179 119.66,-67.804"
         inkscape:connector-curvature="0"
         id="path62"
         style="fill:none;stroke:#231f20;stroke-width:3.98857999;stroke-linecap:butt;stroke-linejoin:miter;stroke-miterlimit:10;stroke-opacity:1;stroke-dasharray:none" /><path
         d="m 13888.2,422.789 c -21.9,-13.148 -48.2,-26.773 -57.4,-52.398 -17.3,-48.516 37.5,-94.453 81.4,-98.313 33.9,-2.996 61.5,16.078 87.7,35.043 38.7,-41.383 71.8,-151.961 23.3,-198.711 -48.6,-47.0702 -87.1,29.867 -87.1,71.074"
         inkscape:connector-curvature="0"
         id="path64"
         style="fill:none;stroke:#231f20;stroke-width:3.98857999;stroke-linecap:butt;stroke-linejoin:miter;stroke-miterlimit:10;stroke-opacity:1;stroke-dasharray:none" /><path
         d="m 1463.81,374.926 75.78,-7.977 c 35.9,35.375 73.99,47.863 123.65,39.887"
         inkscape:connector-curvature="0"
         id="path66"
         style="fill:none;stroke:#231f20;stroke-width:3.98857999;stroke-linecap:butt;stroke-linejoin:miter;stroke-miterlimit:10;stroke-opacity:1;stroke-dasharray:none" /><path
         d="m 7747.19,404.527 c 16.08,10.285 39.39,-0.125 54.47,-7.48 40.53,-19.774 110.67,-85.125 49.91,-124.676 -55.37,-36.043 -109.73,10.817 -118.3,66.66 -2.9,19.418 -5.72,53.199 13.92,65.496"
         inkscape:connector-curvature="0"
         id="path68"
         style="fill:none;stroke:#231f20;stroke-width:3.98857999;stroke-linecap:butt;stroke-linejoin:miter;stroke-miterlimit:10;stroke-opacity:1;stroke-dasharray:none" /><path
         d="m 7382.86,410.824 c 18.86,-0.469 37.98,-0.906 55.84,-7.976 13.89,-5.547 26.36,-14.52 36.37,-25.707 69.83,-77.996 -71.68,-169.11 -96.19,-74.008 -3.99,15.609 -3.99,31.906 -3.99,47.863 0,20.586 2.79,39.887 7.97,59.828"
         inkscape:connector-curvature="0"
         id="path70"
         style="fill:none;stroke:#231f20;stroke-width:3.98857999;stroke-linecap:butt;stroke-linejoin:miter;stroke-miterlimit:10;stroke-opacity:1;stroke-dasharray:none" /><path
         d="m 1208.54,406.836 c -21.9,-13.289 -43.29,-27.375 -58.63,-48.379 -34.1,-46.672 -13.59,-116.43 46.66,-127.754 39.89,-7.344 76.7,14.32 107.7,36.531"
         inkscape:connector-curvature="0"
         id="path72"
         style="fill:none;stroke:#231f20;stroke-width:3.98857999;stroke-linecap:butt;stroke-linejoin:miter;stroke-miterlimit:10;stroke-opacity:1;stroke-dasharray:none" /><path
         d="m 12041.5,275.211 -7.9,107.691 c 35.8,10.071 71.7,5.313 107.6,11.582 22.2,3.848 47.9,14.532 69.9,4.375 40.9,-18.554 41.8,-86.793 33.8,-123.648"
         inkscape:connector-curvature="0"
         id="path74"
         style="fill:none;stroke:#231f20;stroke-width:3.98857999;stroke-linecap:butt;stroke-linejoin:miter;stroke-miterlimit:10;stroke-opacity:1;stroke-dasharray:none" /><path
         d="m 12404.5,386.891 27.9,-23.93 c 48.2,29.766 137.7,73.844 169.8,-5.152 11.3,-27.926 5.7,-64.989 5.7,-94.563"
         inkscape:connector-curvature="0"
         id="path76"
         style="fill:none;stroke:#231f20;stroke-width:3.98857999;stroke-linecap:butt;stroke-linejoin:miter;stroke-miterlimit:10;stroke-opacity:1;stroke-dasharray:none" /><path
         d="m 1009.11,207.406 c -16.837,21.164 -35.344,49.008 -64.196,53.489 -28.434,4.41 -61.383,-15.301 -88.062,0.933 -20.473,12.461 -15.786,38.836 -7.286,57.258 17.676,38.906 49.582,66.402 87.75,83.762"
         inkscape:connector-curvature="0"
         id="path78"
         style="fill:none;stroke:#231f20;stroke-width:3.98857999;stroke-linecap:butt;stroke-linejoin:miter;stroke-miterlimit:10;stroke-opacity:1;stroke-dasharray:none" /><path
         d="m 12603.9,370.938 c 15.3,8.894 30.8,18.148 47.9,23.066 84.7,24.297 95.1,-91.738 103.7,-146.711"
         inkscape:connector-curvature="0"
         id="path80"
         style="fill:none;stroke:#231f20;stroke-width:3.98857999;stroke-linecap:butt;stroke-linejoin:miter;stroke-miterlimit:10;stroke-opacity:1;stroke-dasharray:none" /><path
         d="m 2197.71,390.883 43.87,-183.477"
         inkscape:connector-curvature="0"
         id="path82"
         style="fill:none;stroke:#231f20;stroke-width:3.98857999;stroke-linecap:butt;stroke-linejoin:miter;stroke-miterlimit:10;stroke-opacity:1;stroke-dasharray:none" /><path
         d="m 2481.42,383.371 c 64.44,11.129 103.52,-131.457 23.41,-142.191 -69.09,-9.227 -84.73,131.601 -23.41,142.191"
         inkscape:connector-curvature="0"
         id="path84"
         style="fill:none;stroke:#231f20;stroke-width:3.98857999;stroke-linecap:butt;stroke-linejoin:miter;stroke-miterlimit:10;stroke-opacity:1;stroke-dasharray:none" /><path
         d="m 12029.6,390.883 4,0"
         inkscape:connector-curvature="0"
         id="path86"
         style="fill:none;stroke:#231f20;stroke-width:3.98857999;stroke-linecap:butt;stroke-linejoin:miter;stroke-miterlimit:10;stroke-opacity:1;stroke-dasharray:none" /><path
         d="m 11032.4,243.305 c 4,31.906 -1.8,71.793 12.9,101.152 16.2,32.133 65.9,48.981 93.6,22.492 34.5,-32.859 38.1,-87.75 61,-127.633"
         inkscape:connector-curvature="0"
         id="path88"
         style="fill:none;stroke:#231f20;stroke-width:3.98857999;stroke-linecap:butt;stroke-linejoin:miter;stroke-miterlimit:10;stroke-opacity:1;stroke-dasharray:none" /><path
         d="m 10821.7,370.938 c 75.1,31.503 116.7,-93.376 42.8,-126.438 -85.8,-38.371 -117,95.211 -42.8,126.438"
         inkscape:connector-curvature="0"
         id="path90"
         style="fill:none;stroke:#231f20;stroke-width:3.98857999;stroke-linecap:butt;stroke-linejoin:miter;stroke-miterlimit:10;stroke-opacity:1;stroke-dasharray:none" /><path
         d="m 11471.2,378.914 c -32,-14.875 -77.1,-26.766 -89.6,-64.168 -25.3,-75.969 79.4,-102.93 129.4,-75.43 36.9,-41.484 70.4,-150.9371 3.4,-182.8082 -39.3,-18.5312 -92.4,-0.332 -131,11.2969"
         inkscape:connector-curvature="0"
         id="path92"
         style="fill:none;stroke:#231f20;stroke-width:3.98857999;stroke-linecap:butt;stroke-linejoin:miter;stroke-miterlimit:10;stroke-opacity:1;stroke-dasharray:none" /><path
         d="m 13640.9,370.938 4,-51.852"
         inkscape:connector-curvature="0"
         id="path94"
         style="fill:none;stroke:#231f20;stroke-width:3.98857999;stroke-linecap:butt;stroke-linejoin:miter;stroke-miterlimit:10;stroke-opacity:1;stroke-dasharray:none" /><path
         d="m 12895.1,311.109 c 43.9,5.352 66.9,28.891 99.7,55.84"
         inkscape:connector-curvature="0"
         id="path96"
         style="fill:none;stroke:#231f20;stroke-width:3.98857999;stroke-linecap:butt;stroke-linejoin:miter;stroke-miterlimit:10;stroke-opacity:1;stroke-dasharray:none" /><path
         d="M 1547.57,362.961 1643.3,175.496"
         inkscape:connector-curvature="0"
         id="path98"
         style="fill:none;stroke:#231f20;stroke-width:3.98857999;stroke-linecap:butt;stroke-linejoin:miter;stroke-miterlimit:10;stroke-opacity:1;stroke-dasharray:none" /><path
         d="m 12432.4,362.961 4,-67.805"
         inkscape:connector-curvature="0"
         id="path100"
         style="fill:none;stroke:#231f20;stroke-width:3.98857999;stroke-linecap:butt;stroke-linejoin:miter;stroke-miterlimit:10;stroke-opacity:1;stroke-dasharray:none" /><path
         d="m 13995.9,354.984 4,-47.863"
         inkscape:connector-curvature="0"
         id="path102"
         style="fill:none;stroke:#231f20;stroke-width:3.98857999;stroke-linecap:butt;stroke-linejoin:miter;stroke-miterlimit:10;stroke-opacity:1;stroke-dasharray:none" /><path
         d="m 6505.38,335.039 c 10.36,-95.25 -10.35,-200.727 -23.93,-295.1523"
         inkscape:connector-curvature="0"
         id="path104"
         style="fill:none;stroke:#231f20;stroke-width:3.98857999;stroke-linecap:butt;stroke-linejoin:miter;stroke-miterlimit:10;stroke-opacity:1;stroke-dasharray:none" /><path
         d="m 2823.91,331.051 c -16.42,-53.699 -88.98,-74.656 -139.59,-79.77"
         inkscape:connector-curvature="0"
         id="path106"
         style="fill:none;stroke:#231f20;stroke-width:3.98857999;stroke-linecap:butt;stroke-linejoin:miter;stroke-miterlimit:10;stroke-opacity:1;stroke-dasharray:none" /><path
         d="m 9528.72,323.074 19.94,-139.597"
         inkscape:connector-curvature="0"
         id="path108"
         style="fill:none;stroke:#231f20;stroke-width:3.98857999;stroke-linecap:butt;stroke-linejoin:miter;stroke-miterlimit:10;stroke-opacity:1;stroke-dasharray:none" /><path
         d="m 10111.1,235.328 c -17.2,-15.098 -34.7,-31.254 -55.9,-40.469 -42.6,-18.48 -90.79,11.368 -72.23,60.411 14.12,37.066 49.23,49.695 84.23,59.828 l 91.7,-119.657"
         inkscape:connector-curvature="0"
         id="path110"
         style="fill:none;stroke:#231f20;stroke-width:3.98857999;stroke-linecap:butt;stroke-linejoin:miter;stroke-miterlimit:10;stroke-opacity:1;stroke-dasharray:none" /><path
         d="m 12950.9,315.098 43.9,-75.782"
         inkscape:connector-curvature="0"
         id="path112"
         style="fill:none;stroke:#231f20;stroke-width:3.98857999;stroke-linecap:butt;stroke-linejoin:miter;stroke-miterlimit:10;stroke-opacity:1;stroke-dasharray:none" /><path
         d="m 11503.1,307.121 7.9,-67.805"
         inkscape:connector-curvature="0"
         id="path114"
         style="fill:none;stroke:#231f20;stroke-width:3.98857999;stroke-linecap:butt;stroke-linejoin:miter;stroke-miterlimit:10;stroke-opacity:1;stroke-dasharray:none" /><path
         d="m 2823.91,303.133 c 19.95,-27.922 29.91,-53.465 31.91,-87.75"
         inkscape:connector-curvature="0"
         id="path116"
         style="fill:none;stroke:#231f20;stroke-width:3.98857999;stroke-linecap:butt;stroke-linejoin:miter;stroke-miterlimit:10;stroke-opacity:1;stroke-dasharray:none" /></g></g></svg>