<?xml version="1.0" encoding="UTF-8" standalone="no"?>
<!-- Created with Inkscape (http://www.inkscape.org/) -->

<svg
   xmlns:dc="http://purl.org/dc/elements/1.1/"
   xmlns:cc="http://creativecommons.org/ns#"
   xmlns:rdf="http://www.w3.org/1999/02/22-rdf-syntax-ns#"
   xmlns:svg="http://www.w3.org/2000/svg"
   xmlns="http://www.w3.org/2000/svg"
   xmlns:inkscape="http://www.inkscape.org/namespaces/inkscape"
   version="1.1"
   width="4915"
   height="228.75"
   id="svg2"
   xml:space="preserve"><metadata
     id="metadata8"><rdf:RDF><cc:Work
         rdf:about=""><dc:format>image/svg+xml</dc:format><dc:type
           rdf:resource="http://purl.org/dc/dcmitype/StillImage" /></cc:Work></rdf:RDF></metadata><defs
     id="defs6" /><g
     transform="matrix(1.25,0,0,-1.25,0,228.75)"
     id="g10"><g
       transform="scale(0.26803,0.26803)"
       id="g12"><path
         d="m 197.738,626.797 c 89.543,14.5 193.004,34.226 283.551,26.113"
         inkscape:connector-curvature="0"
         id="path14"
         style="fill:none;stroke:#231f20;stroke-width:3.73093009;stroke-linecap:butt;stroke-linejoin:miter;stroke-miterlimit:10;stroke-opacity:1;stroke-dasharray:none" /><path
         d="m 708.875,652.91 c 44.773,-84.293 0.906,-194.008 55.965,-272.355 l -7.461,-115.66"
         inkscape:connector-curvature="0"
         id="path16"
         style="fill:none;stroke:#231f20;stroke-width:3.73093009;stroke-linecap:butt;stroke-linejoin:miter;stroke-miterlimit:10;stroke-opacity:1;stroke-dasharray:none" /><path
         d="m 6029.18,649.18 c 42.02,-56.489 90.35,-139.903 67.15,-212.66 6.15,-16.04 10.22,-31.208 7.46,-48.504 -2.67,-14.161 -8.89,-27.629 -18.65,-38.114 -8.28,-8.629 -18.66,-15.011 -29.85,-18.332 -96.25,-28.023 -126.25,132.309 -22.38,119.387 21.38,-2.66 42.13,-10.707 63.42,-14.437"
         inkscape:connector-curvature="0"
         id="path18"
         style="fill:none;stroke:#231f20;stroke-width:3.73093009;stroke-linecap:butt;stroke-linejoin:miter;stroke-miterlimit:10;stroke-opacity:1;stroke-dasharray:none" /><path
         d="M 3660.04,470.098 C 3609.48,440.816 3557,436.52 3499.61,436.52 c 0,64.921 -22.39,159.328 52.23,190.277"
         inkscape:connector-curvature="0"
         id="path20"
         style="fill:none;stroke:#231f20;stroke-width:3.73093009;stroke-linecap:butt;stroke-linejoin:miter;stroke-miterlimit:10;stroke-opacity:1;stroke-dasharray:none" /><path
         d="m 8047.61,623.066 c 17.01,-60.105 23.41,-132.039 14.92,-194.011 L 8167,421.594"
         inkscape:connector-curvature="0"
         id="path22"
         style="fill:none;stroke:#231f20;stroke-width:3.73093009;stroke-linecap:butt;stroke-linejoin:miter;stroke-miterlimit:10;stroke-opacity:1;stroke-dasharray:none" /><path
         d="m 2895.2,604.41 c 6.4,-55.965 -5.32,-115.66 18.65,-167.89 l -11.19,-82.082 c -61.41,-37.821 -120.25,-96.29 -197.74,-87.973 -46.8,5.023 -91.31,46.933 -67.15,95.433 17.18,34.926 50.87,56.637 85.8,70.891"
         inkscape:connector-curvature="0"
         id="path24"
         style="fill:none;stroke:#231f20;stroke-width:3.73093009;stroke-linecap:butt;stroke-linejoin:miter;stroke-miterlimit:10;stroke-opacity:1;stroke-dasharray:none" /><path
         d="m 8174.46,593.219 c 52.23,-57.028 58.18,-123.77 97,-186.547 28.39,13.816 57.72,42.183 89.54,46.152 58.3,7.278 73.76,-76 82.09,-117.039"
         inkscape:connector-curvature="0"
         id="path26"
         style="fill:none;stroke:#231f20;stroke-width:3.73093009;stroke-linecap:butt;stroke-linejoin:miter;stroke-miterlimit:10;stroke-opacity:1;stroke-dasharray:none" /><path
         d="m 9088.54,593.219 c 49.37,-83.801 21.03,-204.344 33.57,-298.477"
         inkscape:connector-curvature="0"
         id="path28"
         style="fill:none;stroke:#231f20;stroke-width:3.73093009;stroke-linecap:butt;stroke-linejoin:miter;stroke-miterlimit:10;stroke-opacity:1;stroke-dasharray:none" /><path
         d="m 10495.1,582.023 c 48.9,-67.699 95,-141.445 97.5,-227.585 1.9,-62.637 -49,-110.688 -112.4,-100.274 -57.2,9.352 -127.8,86.008 -44.8,119.438 14.4,5.753 29.8,6.558 44.8,6.953"
         inkscape:connector-curvature="0"
         id="path30"
         style="fill:none;stroke:#231f20;stroke-width:3.73093009;stroke-linecap:butt;stroke-linejoin:miter;stroke-miterlimit:10;stroke-opacity:1;stroke-dasharray:none" /><path
         d="m 13998.4,559.641 c 34.5,-65.473 13.7,-134.719 20,-205.203 3.1,-35.59 23.3,-60.817 34.9,-93.274 11.9,-33.578 58.6,-92.269 95,-44.769 21.8,28.492 4.1,83.128 -31,92.195 -22.7,5.855 -46.6,-8.863 -66.6,-17.578"
         inkscape:connector-curvature="0"
         id="path32"
         style="fill:none;stroke:#231f20;stroke-width:3.73093009;stroke-linecap:butt;stroke-linejoin:miter;stroke-miterlimit:10;stroke-opacity:1;stroke-dasharray:none" /><path
         d="m 2387.79,526.059 18.66,-3.731"
         inkscape:connector-curvature="0"
         id="path34"
         style="fill:none;stroke:#231f20;stroke-width:3.73093009;stroke-linecap:butt;stroke-linejoin:miter;stroke-miterlimit:10;stroke-opacity:1;stroke-dasharray:none" /><path
         d="m 13203.7,522.328 48.5,-182.812 c 28.7,12.058 60.5,37.308 92.8,34.925 56.5,-3.777 52.1,-103.339 56.5,-143.125"
         inkscape:connector-curvature="0"
         id="path36"
         style="fill:none;stroke:#231f20;stroke-width:3.73093009;stroke-linecap:butt;stroke-linejoin:miter;stroke-miterlimit:10;stroke-opacity:1;stroke-dasharray:none" /><path
         d="m 13002.3,518.598 c 15.5,-54.332 23.1,-116.598 7.4,-171.621 l 26.2,-22.387 100.7,0"
         inkscape:connector-curvature="0"
         id="path38"
         style="fill:none;stroke:#231f20;stroke-width:3.73093009;stroke-linecap:butt;stroke-linejoin:miter;stroke-miterlimit:10;stroke-opacity:1;stroke-dasharray:none" /><path
         d="m 5525.5,410.402 -22.38,78.348 c 24.07,8.203 62.63,9.703 68.67,-23.289 6.85,-37.395 -42.56,-45.387 -45.94,-78.523 -5.77,-56.032 26.79,-129.504 44.42,-181.739"
         inkscape:connector-curvature="0"
         id="path40"
         style="fill:none;stroke:#231f20;stroke-width:3.73093009;stroke-linecap:butt;stroke-linejoin:miter;stroke-miterlimit:10;stroke-opacity:1;stroke-dasharray:none" /><path
         d="m 5831.44,499.945 c -24.8,-27.691 -97.01,-110.773 -14.93,-120.504 16.07,-1.871 32.63,0.414 48.51,1.114"
         inkscape:connector-curvature="0"
         id="path42"
         style="fill:none;stroke:#231f20;stroke-width:3.73093009;stroke-linecap:butt;stroke-linejoin:miter;stroke-miterlimit:10;stroke-opacity:1;stroke-dasharray:none" /><path
         d="M 7118.61,496.215 7032.8,283.551 c -63.8,38.594 -90.03,120.285 -138.05,175.351"
         inkscape:connector-curvature="0"
         id="path44"
         style="fill:none;stroke:#231f20;stroke-width:3.73093009;stroke-linecap:butt;stroke-linejoin:miter;stroke-miterlimit:10;stroke-opacity:1;stroke-dasharray:none" /><path
         d="m 8610.98,376.824 c -11.19,8.614 -19.76,17.09 -24.04,30.785 -2.89,9.239 -3.73,19.243 -2.86,28.911 8.24,89.539 132.28,22.382 65.78,-41.043 -10.2,-9.524 -22.8,-15.899 -35.15,-22.383 14.92,-42.598 33.58,-73.426 82.08,-78.352"
         inkscape:connector-curvature="0"
         id="path46"
         style="fill:none;stroke:#231f20;stroke-width:3.73093009;stroke-linecap:butt;stroke-linejoin:miter;stroke-miterlimit:10;stroke-opacity:1;stroke-dasharray:none" /><path
         d="m 7252.92,388.016 c -3.73,11.195 -7.15,21.812 -6.56,33.578 0.42,8.824 2.3,17.468 5.71,25.347 26.3,60.856 99.29,2.317 37.42,-38.964 -11.49,-7.676 -24.38,-13.477 -36.57,-19.961"
         inkscape:connector-curvature="0"
         id="path48"
         style="fill:none;stroke:#231f20;stroke-width:3.73093009;stroke-linecap:butt;stroke-linejoin:miter;stroke-miterlimit:10;stroke-opacity:1;stroke-dasharray:none" /><path
         d="m 12513.5,473.828 c 8.5,-28.855 30.6,-79.769 13.3,-108.199 -22,-36.281 -97.1,-42.449 -82.2,-100.734 10.9,-42.629 73,-72.235 103.6,-31.614 28.7,37.762 8.2,91.309 -16,124.887"
         inkscape:connector-curvature="0"
         id="path50"
         style="fill:none;stroke:#231f20;stroke-width:3.73093009;stroke-linecap:butt;stroke-linejoin:miter;stroke-miterlimit:10;stroke-opacity:1;stroke-dasharray:none" /><path
         d="m 1137.93,358.168 c -1.9,16.437 -2.7,32.426 2.05,48.504 4.25,14.433 12.13,27.785 22.99,38.215 30.17,28.941 78.48,22.347 105.55,-7.606 24.69,-26.879 15.42,-63.172 -19.11,-74.258 -15.36,-4.855 -32.08,-5.793 -48.05,-7.261 -21.25,-1.95 -42.13,-2.766 -63.43,-1.324 -23.17,-100.735 70.41,-150.762 156.7,-138.043"
         inkscape:connector-curvature="0"
         id="path52"
         style="fill:none;stroke:#231f20;stroke-width:3.73093009;stroke-linecap:butt;stroke-linejoin:miter;stroke-miterlimit:10;stroke-opacity:1;stroke-dasharray:none" /><path
         d="m 10849.5,455.172 c -83.1,-18.652 -129.4,-170.559 -29.8,-202.871 74,-23.961 127.4,58.254 89.5,120.793 -17.2,29.14 -42.5,52.23 -59.7,82.078 l 33.6,11.195"
         inkscape:connector-curvature="0"
         id="path54"
         style="fill:none;stroke:#231f20;stroke-width:3.73093009;stroke-linecap:butt;stroke-linejoin:miter;stroke-miterlimit:10;stroke-opacity:1;stroke-dasharray:none" /><path
         d="m 6697.01,455.172 c 101.61,9.64 130.58,-161.813 18.66,-171.621 -89.17,-7.809 -95.16,164.16 -18.66,171.621"
         inkscape:connector-curvature="0"
         id="path56"
         style="fill:none;stroke:#231f20;stroke-width:3.73093009;stroke-linecap:butt;stroke-linejoin:miter;stroke-miterlimit:10;stroke-opacity:1;stroke-dasharray:none" /><path
         d="m 14308.1,462.637 37.3,-55.965"
         inkscape:connector-curvature="0"
         id="path58"
         style="fill:none;stroke:#231f20;stroke-width:3.73093009;stroke-linecap:butt;stroke-linejoin:miter;stroke-miterlimit:10;stroke-opacity:1;stroke-dasharray:none" /><path
         d="m 7980.45,458.902 c 26.12,-16.988 51.11,-23.5 82.08,-26.113"
         inkscape:connector-curvature="0"
         id="path60"
         style="fill:none;stroke:#231f20;stroke-width:3.73093009;stroke-linecap:butt;stroke-linejoin:miter;stroke-miterlimit:10;stroke-opacity:1;stroke-dasharray:none" /><path
         d="m 7499.16,324.59 c 9.22,69.523 49.43,132.078 126.85,123.121"
         inkscape:connector-curvature="0"
         id="path62"
         style="fill:none;stroke:#231f20;stroke-width:3.73093009;stroke-linecap:butt;stroke-linejoin:miter;stroke-miterlimit:10;stroke-opacity:1;stroke-dasharray:none" /><path
         d="m 9457.9,328.32 c -19.6,-11.191 -38.74,-24.644 -59.7,-33.062 -11.78,-4.723 -24.54,-7.356 -37.31,-5.309 -124.15,20.078 6.85,226.149 69.94,137.09 7.42,-10.484 11.73,-23.078 15.26,-35.293 5.98,-20.73 8.61,-42.16 11.81,-63.426"
         inkscape:connector-curvature="0"
         id="path64"
         style="fill:none;stroke:#231f20;stroke-width:3.73093009;stroke-linecap:butt;stroke-linejoin:miter;stroke-miterlimit:10;stroke-opacity:1;stroke-dasharray:none" /><path
         d="m 764.84,384.285 c 27.793,18.656 55.965,51.473 89.543,57.215 90.847,15.402 84.508,-126.57 78.347,-180.336"
         inkscape:connector-curvature="0"
         id="path66"
         style="fill:none;stroke:#231f20;stroke-width:3.73093009;stroke-linecap:butt;stroke-linejoin:miter;stroke-miterlimit:10;stroke-opacity:1;stroke-dasharray:none" /><path
         d="m 2913.85,436.52 97.01,-7.465"
         inkscape:connector-curvature="0"
         id="path68"
         style="fill:none;stroke:#231f20;stroke-width:3.73093009;stroke-linecap:butt;stroke-linejoin:miter;stroke-miterlimit:10;stroke-opacity:1;stroke-dasharray:none" /><path
         d="m 4055.52,440.25 c 17.06,-20.875 45.15,-43.789 51.1,-70.887 10.02,-46.234 -62.3,-87.441 -95.87,-104.468"
         inkscape:connector-curvature="0"
         id="path70"
         style="fill:none;stroke:#231f20;stroke-width:3.73093009;stroke-linecap:butt;stroke-linejoin:miter;stroke-miterlimit:10;stroke-opacity:1;stroke-dasharray:none" /><path
         d="m 3499.61,436.52 -7.47,-7.465 -18.65,3.734"
         inkscape:connector-curvature="0"
         id="path72"
         style="fill:none;stroke:#231f20;stroke-width:3.73093009;stroke-linecap:butt;stroke-linejoin:miter;stroke-miterlimit:10;stroke-opacity:1;stroke-dasharray:none" /><path
         d="m 9603.4,425.324 c 11.19,3.106 22.39,6.102 33.58,7.821 8.73,1.257 17.34,2.113 26.12,1.757 70.88,-2.984 4.83,-82.382 -2.7,-114.043 -12.58,-52.902 34.25,-80.363 81.05,-68.222 14.21,3.734 27.63,9.804 41.04,15.988"
         inkscape:connector-curvature="0"
         id="path74"
         style="fill:none;stroke:#231f20;stroke-width:3.73093009;stroke-linecap:butt;stroke-linejoin:miter;stroke-miterlimit:10;stroke-opacity:1;stroke-dasharray:none" /><path
         d="m 5723.24,429.055 44.77,-3.731"
         inkscape:connector-curvature="0"
         id="path76"
         style="fill:none;stroke:#231f20;stroke-width:3.73093009;stroke-linecap:butt;stroke-linejoin:miter;stroke-miterlimit:10;stroke-opacity:1;stroke-dasharray:none" /><path
         d="m 3492.14,425.324 37.32,-208.929"
         inkscape:connector-curvature="0"
         id="path78"
         style="fill:none;stroke:#231f20;stroke-width:3.73093009;stroke-linecap:butt;stroke-linejoin:miter;stroke-miterlimit:10;stroke-opacity:1;stroke-dasharray:none" /><path
         d="m 3763.01,416.746 c 21.46,8.578 45.45,-10.074 60.1,-23.726 38.4,-35.809 50,-118.395 -10.71,-140.911 -59.09,-21.988 -74.97,79.289 -72.54,117.254 1.09,17.157 4.77,40.274 23.15,47.383"
         inkscape:connector-curvature="0"
         id="path80"
         style="fill:none;stroke:#231f20;stroke-width:3.73093009;stroke-linecap:butt;stroke-linejoin:miter;stroke-miterlimit:10;stroke-opacity:1;stroke-dasharray:none" /><path
         d="m 8066.26,425.324 7.46,-126.851"
         inkscape:connector-curvature="0"
         id="path82"
         style="fill:none;stroke:#231f20;stroke-width:3.73093009;stroke-linecap:butt;stroke-linejoin:miter;stroke-miterlimit:10;stroke-opacity:1;stroke-dasharray:none" /><path
         d="m 11961.3,235.047 -70.8,82.082 c -16.7,-8.586 -33.6,-16.617 -52.3,-19.149 -42.7,-5.761 -86.4,29.825 -63.8,74.297 14.7,29.161 45.2,43.594 75,53.047"
         inkscape:connector-curvature="0"
         id="path84"
         style="fill:none;stroke:#231f20;stroke-width:3.73093009;stroke-linecap:butt;stroke-linejoin:miter;stroke-miterlimit:10;stroke-opacity:1;stroke-dasharray:none" /><path
         d="m 9916.8,421.594 c 14.42,-64.473 43.13,-100.164 111.9,-100.735 8.6,-41.671 -4.8,-82.082 -12.5,-123.121 -8.1,-42.176 -11.2,-85.004 -21.05,-126.8513"
         inkscape:connector-curvature="0"
         id="path86"
         style="fill:none;stroke:#231f20;stroke-width:3.73093009;stroke-linecap:butt;stroke-linejoin:miter;stroke-miterlimit:10;stroke-opacity:1;stroke-dasharray:none" /><path
         d="m 11125.6,421.594 c -18,-11.192 -40,-22.703 -50.3,-42.356 -18.9,-35.992 19.7,-80.765 54.1,-89.636 56.8,-14.196 91.1,51.902 138,-10.305 21.4,-27.973 46.4,-74.805 34.4,-111.008 -18.1,-54.758 -94.6,-43.394 -135.1,-26.516"
         inkscape:connector-curvature="0"
         id="path88"
         style="fill:none;stroke:#231f20;stroke-width:3.73093009;stroke-linecap:butt;stroke-linejoin:miter;stroke-miterlimit:10;stroke-opacity:1;stroke-dasharray:none" /><path
         d="m 13543.3,305.938 c -24.6,8.679 -47.4,23.371 -48.5,52.23 -0.9,31.035 28.7,68.602 62.2,53.277 65.2,-29.738 -4.6,-80.414 -5.1,-117.269 -0.7,-49.012 71.6,-44.203 103.3,-44.203"
         inkscape:connector-curvature="0"
         id="path90"
         style="fill:none;stroke:#231f20;stroke-width:3.73093009;stroke-linecap:butt;stroke-linejoin:miter;stroke-miterlimit:10;stroke-opacity:1;stroke-dasharray:none" /><path
         d="m 4514.42,410.402 c 36.67,-56.824 52.23,-122.57 51.55,-190.277 -0.33,-28.48 -4.66,-64.309 -31.13,-80.891 -66.3,-41.527 -116.17,38.25 -95.04,95.813"
         inkscape:connector-curvature="0"
         id="path92"
         style="fill:none;stroke:#231f20;stroke-width:3.73093009;stroke-linecap:butt;stroke-linejoin:miter;stroke-miterlimit:10;stroke-opacity:1;stroke-dasharray:none" /><path
         d="m 8271.46,406.672 0,-33.578"
         inkscape:connector-curvature="0"
         id="path94"
         style="fill:none;stroke:#231f20;stroke-width:3.73093009;stroke-linecap:butt;stroke-linejoin:miter;stroke-miterlimit:10;stroke-opacity:1;stroke-dasharray:none" /><path
         d="m 12084.5,276.09 c 1.2,56.637 72.4,154.801 138.5,105.25 31.9,-23.93 31.2,-81.465 44.3,-116.445"
         inkscape:connector-curvature="0"
         id="path96"
         style="fill:none;stroke:#231f20;stroke-width:3.73093009;stroke-linecap:butt;stroke-linejoin:miter;stroke-miterlimit:10;stroke-opacity:1;stroke-dasharray:none" /><path
         d="m 1876.66,279.82 c -4.97,-20.734 -7.46,-48.855 -24.17,-64.043 -32.62,-29.832 -96.92,-13.461 -111.88,26.735 -32.22,87.48 97.9,169.414 169.62,130.582"
         inkscape:connector-curvature="0"
         id="path98"
         style="fill:none;stroke:#231f20;stroke-width:3.73093009;stroke-linecap:butt;stroke-linejoin:miter;stroke-miterlimit:10;stroke-opacity:1;stroke-dasharray:none" /><path
         d="m 5025.56,276.09 c -3.29,19.972 -6.35,40.031 0.58,59.695 30.44,86.129 125.5,39.336 141.19,-29.847"
         inkscape:connector-curvature="0"
         id="path100"
         style="fill:none;stroke:#231f20;stroke-width:3.73093009;stroke-linecap:butt;stroke-linejoin:miter;stroke-miterlimit:10;stroke-opacity:1;stroke-dasharray:none" /><path
         d="m 5163.6,335.785 c 12.34,9.61 24.55,19.492 37.31,28.262 93.27,63.125 74.62,-91.688 141.78,-117.805"
         inkscape:connector-curvature="0"
         id="path102"
         style="fill:none;stroke:#231f20;stroke-width:3.73093009;stroke-linecap:butt;stroke-linejoin:miter;stroke-miterlimit:10;stroke-opacity:1;stroke-dasharray:none" /><path
         d="m 7252.92,388.016 c 13.53,-75.582 63.42,-83.129 130.58,-78.348"
         inkscape:connector-curvature="0"
         id="path104"
         style="fill:none;stroke:#231f20;stroke-width:3.73093009;stroke-linecap:butt;stroke-linejoin:miter;stroke-miterlimit:10;stroke-opacity:1;stroke-dasharray:none" /><path
         d="m 432.789,384.285 0,-85.812"
         inkscape:connector-curvature="0"
         id="path106"
         style="fill:none;stroke:#231f20;stroke-width:3.73093009;stroke-linecap:butt;stroke-linejoin:miter;stroke-miterlimit:10;stroke-opacity:1;stroke-dasharray:none" /><path
         d="m 2421.37,376.824 29.85,-138.047"
         inkscape:connector-curvature="0"
         id="path108"
         style="fill:none;stroke:#231f20;stroke-width:3.73093009;stroke-linecap:butt;stroke-linejoin:miter;stroke-miterlimit:10;stroke-opacity:1;stroke-dasharray:none" /><path
         d="m 10062.3,373.094 -29.8,-52.235"
         inkscape:connector-curvature="0"
         id="path110"
         style="fill:none;stroke:#231f20;stroke-width:3.73093009;stroke-linecap:butt;stroke-linejoin:miter;stroke-miterlimit:10;stroke-opacity:1;stroke-dasharray:none" /><path
         d="m 14282,373.094 c 25.6,-46.082 40.5,-94.215 22.4,-145.508"
         inkscape:connector-curvature="0"
         id="path112"
         style="fill:none;stroke:#231f20;stroke-width:3.73093009;stroke-linecap:butt;stroke-linejoin:miter;stroke-miterlimit:10;stroke-opacity:1;stroke-dasharray:none" /><path
         d="m 14517,294.742 c -12.1,-14.922 -27,-38.14 -48.5,-38.394 -40,-0.469 -48.9,61.785 -27.5,86.09 13,14.605 36.7,20.007 52.3,6.484 14.9,-13.137 19.1,-35.082 30,-51.043 28.3,-41.313 129.3,-171.836 34.8,-199.297 -11.2,-3.125 -22.4,-4.1914 -33.6,-4.5351 -25,-0.7735 -49.9,2.957 -74.6,6.6871"
         inkscape:connector-curvature="0"
         id="path114"
         style="fill:none;stroke:#231f20;stroke-width:3.73093009;stroke-linecap:butt;stroke-linejoin:miter;stroke-miterlimit:10;stroke-opacity:1;stroke-dasharray:none" /><path
         d="m 12043.4,361.898 41.1,-29.847"
         inkscape:connector-curvature="0"
         id="path116"
         style="fill:none;stroke:#231f20;stroke-width:3.73093009;stroke-linecap:butt;stroke-linejoin:miter;stroke-miterlimit:10;stroke-opacity:1;stroke-dasharray:none" /><path
         d="m 4861.39,358.168 c 7.47,-61.477 -47.48,-156.348 -112.25,-87.055 -20.95,22.414 -22.06,54.512 -25.79,83.325"
         inkscape:connector-curvature="0"
         id="path118"
         style="fill:none;stroke:#231f20;stroke-width:3.73093009;stroke-linecap:butt;stroke-linejoin:miter;stroke-miterlimit:10;stroke-opacity:1;stroke-dasharray:none" /><path
         d="m 2902.66,354.438 c 78.03,-11.915 140.23,-74.618 164.16,-149.239"
         inkscape:connector-curvature="0"
         id="path120"
         style="fill:none;stroke:#231f20;stroke-width:3.73093009;stroke-linecap:butt;stroke-linejoin:miter;stroke-miterlimit:10;stroke-opacity:1;stroke-dasharray:none" /><path
         d="m 11894.2,354.438 -3.7,-33.579"
         inkscape:connector-curvature="0"
         id="path122"
         style="fill:none;stroke:#231f20;stroke-width:3.73093009;stroke-linecap:butt;stroke-linejoin:miter;stroke-miterlimit:10;stroke-opacity:1;stroke-dasharray:none" /><path
         d="m 2275.86,350.707 c 7.47,-30.32 11.2,-64.43 -4.88,-92.82 -29.33,-51.489 -99.58,-44.66 -131.09,0.078 -16.99,24.101 -19.6,52.965 -20.73,81.551"
         inkscape:connector-curvature="0"
         id="path124"
         style="fill:none;stroke:#231f20;stroke-width:3.73093009;stroke-linecap:butt;stroke-linejoin:miter;stroke-miterlimit:10;stroke-opacity:1;stroke-dasharray:none" /><path
         d="m 2898.93,339.516 26.12,-89.543"
         inkscape:connector-curvature="0"
         id="path126"
         style="fill:none;stroke:#231f20;stroke-width:3.73093009;stroke-linecap:butt;stroke-linejoin:miter;stroke-miterlimit:10;stroke-opacity:1;stroke-dasharray:none" /><path
         d="m 13252.2,339.516 0,-44.774"
         inkscape:connector-curvature="0"
         id="path128"
         style="fill:none;stroke:#231f20;stroke-width:3.73093009;stroke-linecap:butt;stroke-linejoin:miter;stroke-miterlimit:10;stroke-opacity:1;stroke-dasharray:none" /><path
         d="m 4107.75,335.785 33.58,-63.426"
         inkscape:connector-curvature="0"
         id="path130"
         style="fill:none;stroke:#231f20;stroke-width:3.73093009;stroke-linecap:butt;stroke-linejoin:miter;stroke-miterlimit:10;stroke-opacity:1;stroke-dasharray:none" /><path
         d="m 9457.9,328.32 29.85,-29.847"
         inkscape:connector-curvature="0"
         id="path132"
         style="fill:none;stroke:#231f20;stroke-width:3.73093009;stroke-linecap:butt;stroke-linejoin:miter;stroke-miterlimit:10;stroke-opacity:1;stroke-dasharray:none" /><path
         d="m 13035.9,324.59 7.4,-70.887"
         inkscape:connector-curvature="0"
         id="path134"
         style="fill:none;stroke:#231f20;stroke-width:3.73093009;stroke-linecap:butt;stroke-linejoin:miter;stroke-miterlimit:10;stroke-opacity:1;stroke-dasharray:none" /><path
         d="M 1858,208.934 1869.2,26.1172"
         inkscape:connector-curvature="0"
         id="path136"
         style="fill:none;stroke:#231f20;stroke-width:3.73093009;stroke-linecap:butt;stroke-linejoin:miter;stroke-miterlimit:10;stroke-opacity:1;stroke-dasharray:none" /></g></g></svg>