<?xml version="1.0" encoding="UTF-8" standalone="no"?>
<!-- Created with Inkscape (http://www.inkscape.org/) -->

<svg
   xmlns:dc="http://purl.org/dc/elements/1.1/"
   xmlns:cc="http://creativecommons.org/ns#"
   xmlns:rdf="http://www.w3.org/1999/02/22-rdf-syntax-ns#"
   xmlns:svg="http://www.w3.org/2000/svg"
   xmlns="http://www.w3.org/2000/svg"
   xmlns:inkscape="http://www.inkscape.org/namespaces/inkscape"
   version="1.1"
   width="4735"
   height="223.75"
   id="svg2"
   xml:space="preserve"><metadata
     id="metadata8"><rdf:RDF><cc:Work
         rdf:about=""><dc:format>image/svg+xml</dc:format><dc:type
           rdf:resource="http://purl.org/dc/dcmitype/StillImage" /></cc:Work></rdf:RDF></metadata><defs
     id="defs6" /><g
     transform="matrix(1.25,0,0,-1.25,0,223.75)"
     id="g10"><g
       transform="scale(0.258214,0.258214)"
       id="g12"><path
         d="m 716.461,677.73 c 37.969,-89.664 6.797,-205.726 58.09,-286.582 28.754,18.989 57.707,52.696 92.945,58.09 89.563,13.91 86.199,-123.265 77.457,-178.144"
         inkscape:connector-curvature="0"
         id="path14"
         style="fill:none;stroke:#231f20;stroke-width:3.87276006;stroke-linecap:butt;stroke-linejoin:miter;stroke-miterlimit:10;stroke-opacity:1;stroke-dasharray:none" /><path
         d="m 201.383,635.133 c 91.48,21.207 192.82,29.644 286.586,30.98"
         inkscape:connector-curvature="0"
         id="path16"
         style="fill:none;stroke:#231f20;stroke-width:3.87276006;stroke-linecap:butt;stroke-linejoin:miter;stroke-miterlimit:10;stroke-opacity:1;stroke-dasharray:none" /><path
         d="m 6068.61,642.879 c 31.89,-43.402 57.4,-90.43 69.71,-143.293 4.21,-16.699 10.34,-44.961 -5.77,-57.473 -15.52,-12.238 -39.36,-0.617 -56.19,1.895 -36.35,5.64 -78.57,-19.403 -73.59,-60.606 6.77,-51.136 75.03,-77.453 114.37,-45.468 28.57,23.207 29.69,59.105 21.18,91.941"
         inkscape:connector-curvature="0"
         id="path18"
         style="fill:none;stroke:#231f20;stroke-width:3.87276006;stroke-linecap:butt;stroke-linejoin:miter;stroke-miterlimit:10;stroke-opacity:1;stroke-dasharray:none" /><path
         d="m 3686.86,472.477 c -46.8,-30.981 -100.2,-34.856 -154.91,-34.856 -12.45,61.254 -21.83,155.734 42.6,189.766"
         inkscape:connector-curvature="0"
         id="path20"
         style="fill:none;stroke:#231f20;stroke-width:3.87276006;stroke-linecap:butt;stroke-linejoin:miter;stroke-miterlimit:10;stroke-opacity:1;stroke-dasharray:none" /><path
         d="m 8094.06,608.023 c 17.9,-58.57 19.92,-128.914 15.49,-189.765 -33.5,4.988 -59.44,11.617 -85.2,34.855"
         inkscape:connector-curvature="0"
         id="path22"
         style="fill:none;stroke:#231f20;stroke-width:3.87276006;stroke-linecap:butt;stroke-linejoin:miter;stroke-miterlimit:10;stroke-opacity:1;stroke-dasharray:none" /><path
         d="m 2920.06,600.277 19.36,-162.656 c -23.24,-58.09 -18.17,-131.215 11.62,-185.891"
         inkscape:connector-curvature="0"
         id="path24"
         style="fill:none;stroke:#231f20;stroke-width:3.87276006;stroke-linecap:butt;stroke-linejoin:miter;stroke-miterlimit:10;stroke-opacity:1;stroke-dasharray:none" /><path
         d="m 8221.86,580.914 c 51.96,-58.094 58.09,-125.73 96.82,-189.766 27.11,15.946 56.71,44.532 89.07,48.438 58.85,7.121 74.56,-76.098 81.33,-118.148"
         inkscape:connector-curvature="0"
         id="path26"
         style="fill:none;stroke:#231f20;stroke-width:3.87276006;stroke-linecap:butt;stroke-linejoin:miter;stroke-miterlimit:10;stroke-opacity:1;stroke-dasharray:none" /><path
         d="m 9143.58,573.168 c 37.09,-90.777 9.79,-195.461 27.11,-290.457"
         inkscape:connector-curvature="0"
         id="path28"
         style="fill:none;stroke:#231f20;stroke-width:3.87276006;stroke-linecap:butt;stroke-linejoin:miter;stroke-miterlimit:10;stroke-opacity:1;stroke-dasharray:none" /><path
         d="m 10545.5,565.422 c 44.8,-67.582 94.1,-140.68 98.7,-224.621 3.5,-65.043 -48.3,-115.473 -114.2,-104.563 -54.2,8.922 -124.7,77.453 -49.9,116.184 14.4,7.746 30.2,9.879 46.1,11.617"
         inkscape:connector-curvature="0"
         id="path30"
         style="fill:none;stroke:#231f20;stroke-width:3.87276006;stroke-linecap:butt;stroke-linejoin:miter;stroke-miterlimit:10;stroke-opacity:1;stroke-dasharray:none" /><path
         d="m 2412.73,530.566 15.49,-3.871"
         inkscape:connector-curvature="0"
         id="path32"
         style="fill:none;stroke:#231f20;stroke-width:3.87276006;stroke-linecap:butt;stroke-linejoin:miter;stroke-miterlimit:10;stroke-opacity:1;stroke-dasharray:none" /><path
         d="m 14050.4,526.695 c 42,-87.445 -12.4,-189.129 46.4,-271.093 13.6,8.21 27.1,17.433 42.6,22.191 90.9,28.156 82,-153.863 -6.1,-95.773 -9,6.277 -16,14.515 -21,24.015 -7.7,14.098 -11.2,30.203 -15.5,45.695"
         inkscape:connector-curvature="0"
         id="path34"
         style="fill:none;stroke:#231f20;stroke-width:3.87276006;stroke-linecap:butt;stroke-linejoin:miter;stroke-miterlimit:10;stroke-opacity:1;stroke-dasharray:none" /><path
         d="m 13248.7,499.586 c 41.7,-58.559 27.1,-123.402 54.2,-185.895 27.1,11.621 58.1,35.243 88.7,34.856 59.6,-0.934 54.6,-98.828 58.5,-139.418"
         inkscape:connector-curvature="0"
         id="path36"
         style="fill:none;stroke:#231f20;stroke-width:3.87276006;stroke-linecap:butt;stroke-linejoin:miter;stroke-miterlimit:10;stroke-opacity:1;stroke-dasharray:none" /><path
         d="m 5561.28,406.641 -19.37,77.453 c 24.22,7.746 60.89,8.254 66.95,-24.137 6.64,-35.344 -38.09,-43.613 -43.71,-73.969 -9.88,-52.929 24.39,-135.297 42.6,-184.605"
         inkscape:connector-curvature="0"
         id="path38"
         style="fill:none;stroke:#231f20;stroke-width:3.87276006;stroke-linecap:butt;stroke-linejoin:miter;stroke-miterlimit:10;stroke-opacity:1;stroke-dasharray:none" /><path
         d="m 13055.1,495.711 c 7.2,-40.695 15.5,-82.375 14.4,-123.926 -0.5,-18.324 -7,-43.785 9.6,-57.18 23.8,-19.109 81.6,-12.531 111.5,-16.402"
         inkscape:connector-curvature="0"
         id="path40"
         style="fill:none;stroke:#231f20;stroke-width:3.87276006;stroke-linecap:butt;stroke-linejoin:miter;stroke-miterlimit:10;stroke-opacity:1;stroke-dasharray:none" /><path
         d="m 5867.23,491.84 -61.97,-73.582 c 24.23,-43.731 50.35,-45.207 96.82,-42.602"
         inkscape:connector-curvature="0"
         id="path42"
         style="fill:none;stroke:#231f20;stroke-width:3.87276006;stroke-linecap:butt;stroke-linejoin:miter;stroke-miterlimit:10;stroke-opacity:1;stroke-dasharray:none" /><path
         d="m 7160.73,487.969 -85.2,-213.004 c -63.82,43.719 -90.45,120.055 -139.42,178.148"
         inkscape:connector-curvature="0"
         id="path44"
         style="fill:none;stroke:#231f20;stroke-width:3.87276006;stroke-linecap:butt;stroke-linejoin:miter;stroke-miterlimit:10;stroke-opacity:1;stroke-dasharray:none" /><path
         d="m 8667.23,360.168 c -36.2,20.113 -58.09,100.691 0.47,108.918 32.03,4.672 53.75,-29.789 46.45,-58.574 -6.22,-24.133 -26.56,-38.157 -46.92,-50.344 9.06,-43.645 29.85,-69.711 73.58,-81.328"
         inkscape:connector-curvature="0"
         id="path46"
         style="fill:none;stroke:#231f20;stroke-width:3.87276006;stroke-linecap:butt;stroke-linejoin:miter;stroke-miterlimit:10;stroke-opacity:1;stroke-dasharray:none" /><path
         d="m 1150.21,364.039 c 0,36.258 5.75,76.223 39.65,96.82 36.79,22.563 104.51,0.864 109.29,-46.472 7.36,-72.707 -111.59,-33.676 -141.2,-65.199 -16.81,-17.809 -3.87,-52.301 6.21,-70.348 30.32,-52.262 85.09,-65.039 140.96,-58.094"
         inkscape:connector-curvature="0"
         id="path48"
         style="fill:none;stroke:#231f20;stroke-width:3.87276006;stroke-linecap:butt;stroke-linejoin:miter;stroke-miterlimit:10;stroke-opacity:1;stroke-dasharray:none" /><path
         d="m 7296.27,379.531 c -3.87,11.617 -6.85,22.746 -6,34.856 6,87.261 116.11,34.851 43.93,-15.492 -11.63,-8.188 -25.06,-13.579 -37.93,-19.364"
         inkscape:connector-curvature="0"
         id="path50"
         style="fill:none;stroke:#231f20;stroke-width:3.87276006;stroke-linecap:butt;stroke-linejoin:miter;stroke-miterlimit:10;stroke-opacity:1;stroke-dasharray:none" /><path
         d="m 6731.45,445.367 c 92.35,26.528 145.02,-137.367 42,-167.23 -97.34,-28.172 -117.53,145.953 -42,167.23"
         inkscape:connector-curvature="0"
         id="path52"
         style="fill:none;stroke:#231f20;stroke-width:3.87276006;stroke-linecap:butt;stroke-linejoin:miter;stroke-miterlimit:10;stroke-opacity:1;stroke-dasharray:none" /><path
         d="m 12567.1,453.113 15.5,-116.183 c 11.3,-15.492 21.1,-31.375 25.9,-50.348 3.4,-13.777 5.1,-28.469 3.2,-42.598 -11.3,-98.937 -151.8,-37.355 -110.4,33.692 6.7,11.449 16.9,20.527 27.5,28.273 16.7,12.321 35.5,21.352 53.8,30.981"
         inkscape:connector-curvature="0"
         id="path54"
         style="fill:none;stroke:#231f20;stroke-width:3.87276006;stroke-linecap:butt;stroke-linejoin:miter;stroke-miterlimit:10;stroke-opacity:1;stroke-dasharray:none" /><path
         d="m 10901.8,429.875 c 17.1,-23.898 38.7,-45.156 54.2,-69.707 42,-67.027 -15.5,-160.758 -96.3,-123.273 -58.6,27.132 -53.9,131.773 -14.6,173.617 23.2,24.859 66.9,32.965 99.3,34.855"
         inkscape:connector-curvature="0"
         id="path56"
         style="fill:none;stroke:#231f20;stroke-width:3.87276006;stroke-linecap:butt;stroke-linejoin:miter;stroke-miterlimit:10;stroke-opacity:1;stroke-dasharray:none" /><path
         d="m 2943.29,437.621 c 33.99,6.184 64.22,3.875 96.82,-7.746"
         inkscape:connector-curvature="0"
         id="path58"
         style="fill:none;stroke:#231f20;stroke-width:3.87276006;stroke-linecap:butt;stroke-linejoin:miter;stroke-miterlimit:10;stroke-opacity:1;stroke-dasharray:none" /><path
         d="m 3528.08,441.496 c -8.2,-70.539 11.62,-152.062 27.11,-220.75"
         inkscape:connector-curvature="0"
         id="path60"
         style="fill:none;stroke:#231f20;stroke-width:3.87276006;stroke-linecap:butt;stroke-linejoin:miter;stroke-miterlimit:10;stroke-opacity:1;stroke-dasharray:none" /><path
         d="m 4081.89,441.496 c 19.83,-19.945 51.18,-44.726 56.56,-73.586 8.21,-44.598 -63.55,-86.281 -95.29,-104.562"
         inkscape:connector-curvature="0"
         id="path62"
         style="fill:none;stroke:#231f20;stroke-width:3.87276006;stroke-linecap:butt;stroke-linejoin:miter;stroke-miterlimit:10;stroke-opacity:1;stroke-dasharray:none" /><path
         d="m 7540.26,321.438 c 17.56,64.851 52.11,116.183 123.92,120.058"
         inkscape:connector-curvature="0"
         id="path64"
         style="fill:none;stroke:#231f20;stroke-width:3.87276006;stroke-linecap:butt;stroke-linejoin:miter;stroke-miterlimit:10;stroke-opacity:1;stroke-dasharray:none" /><path
         d="m 2916.18,348.547 c -64.68,-29.586 -107.52,-87.985 -185.89,-79.586 -51.68,5.535 -93.93,51.875 -65.07,102.824 18.6,32.379 51.15,51.551 84.44,65.836"
         inkscape:connector-curvature="0"
         id="path66"
         style="fill:none;stroke:#231f20;stroke-width:3.87276006;stroke-linecap:butt;stroke-linejoin:miter;stroke-miterlimit:10;stroke-opacity:1;stroke-dasharray:none" /><path
         d="m 9503.74,313.691 c -17.46,-11.617 -34.85,-24.019 -54.22,-32.316 -10.97,-4.703 -22.77,-7.895 -34.85,-7.18 -116.63,6.95 -24.88,209.899 54.22,148.914 39.32,-30.351 36.45,-104.195 69.71,-144.269"
         inkscape:connector-curvature="0"
         id="path68"
         style="fill:none;stroke:#231f20;stroke-width:3.87276006;stroke-linecap:butt;stroke-linejoin:miter;stroke-miterlimit:10;stroke-opacity:1;stroke-dasharray:none" /><path
         d="m 3504.84,433.75 15.5,0"
         inkscape:connector-curvature="0"
         id="path70"
         style="fill:none;stroke:#231f20;stroke-width:3.87276006;stroke-linecap:butt;stroke-linejoin:miter;stroke-miterlimit:10;stroke-opacity:1;stroke-dasharray:none" /><path
         d="m 14360.2,433.75 31,-54.219"
         inkscape:connector-curvature="0"
         id="path72"
         style="fill:none;stroke:#231f20;stroke-width:3.87276006;stroke-linecap:butt;stroke-linejoin:miter;stroke-miterlimit:10;stroke-opacity:1;stroke-dasharray:none" /><path
         d="m 3793.75,416.594 c 20.91,7.383 44.15,-10.434 58.5,-23.879 38.16,-35.973 50.06,-117.074 -10.8,-139.235 -59.67,-21.722 -74.57,80.024 -71.37,118.305 1.39,16.551 5.86,38.727 23.67,44.809"
         inkscape:connector-curvature="0"
         id="path74"
         style="fill:none;stroke:#231f20;stroke-width:3.87276006;stroke-linecap:butt;stroke-linejoin:miter;stroke-miterlimit:10;stroke-opacity:1;stroke-dasharray:none" /><path
         d="m 5758.79,426.004 42.6,-7.746"
         inkscape:connector-curvature="0"
         id="path76"
         style="fill:none;stroke:#231f20;stroke-width:3.87276006;stroke-linecap:butt;stroke-linejoin:miter;stroke-miterlimit:10;stroke-opacity:1;stroke-dasharray:none" /><path
         d="m 9654.78,410.512 c 35.77,9.461 66.77,13.164 100.69,-3.871 -14.66,-45.02 -96.82,-160.168 0,-173.782 10.41,-1.437 20.86,-0.093 30.98,2.192 16.06,3.679 30.99,10.219 46.48,16.679"
         inkscape:connector-curvature="0"
         id="path78"
         style="fill:none;stroke:#231f20;stroke-width:3.87276006;stroke-linecap:butt;stroke-linejoin:miter;stroke-miterlimit:10;stroke-opacity:1;stroke-dasharray:none" /><path
         d="m 8117.3,294.328 -3.87,120.059 96.81,-3.875"
         inkscape:connector-curvature="0"
         id="path80"
         style="fill:none;stroke:#231f20;stroke-width:3.87276006;stroke-linecap:butt;stroke-linejoin:miter;stroke-miterlimit:10;stroke-opacity:1;stroke-dasharray:none" /><path
         d="m 4550.49,406.641 c 33.72,-56.164 48,-120.481 49.3,-185.895 0.57,-28.402 -3.93,-63.996 -28.78,-82.004 -34.49,-25.008 -90.23,-2.781 -103.7,35.531 -7.2,20.895 -0.79,42.168 5.73,61.965"
         inkscape:connector-curvature="0"
         id="path82"
         style="fill:none;stroke:#231f20;stroke-width:3.87276006;stroke-linecap:butt;stroke-linejoin:miter;stroke-miterlimit:10;stroke-opacity:1;stroke-dasharray:none" /><path
         d="m 11176.8,406.641 c -16.5,-13.289 -38.1,-25.368 -48.6,-44.43 -22,-40.418 18.9,-90.59 60.2,-93.91 31.8,-2.551 59.7,17.531 85.2,33.773 47.9,-35.277 137.7,-170.015 31,-192.363 -12.7,-2.637 -25.9,-2.664 -38.8,-1.617 -16.4,1.351 -30.9,5.808 -46.4,11.961"
         inkscape:connector-curvature="0"
         id="path84"
         style="fill:none;stroke:#231f20;stroke-width:3.87276006;stroke-linecap:butt;stroke-linejoin:miter;stroke-miterlimit:10;stroke-opacity:1;stroke-dasharray:none" /><path
         d="m 9968.47,402.766 c 6.93,-45.743 50.33,-126.45 109.33,-91.688 17.9,10.36 27.7,31.895 37.8,49.09"
         inkscape:connector-curvature="0"
         id="path86"
         style="fill:none;stroke:#231f20;stroke-width:3.87276006;stroke-linecap:butt;stroke-linejoin:miter;stroke-miterlimit:10;stroke-opacity:1;stroke-dasharray:none" /><path
         d="m 11943.6,325.312 c -14.7,-85.953 -159.8,-47.714 -114.8,29.583 5.8,9.839 14.1,18.121 22.9,25.039 13.7,10.554 29.3,16.91 45.4,22.832"
         inkscape:connector-curvature="0"
         id="path88"
         style="fill:none;stroke:#231f20;stroke-width:3.87276006;stroke-linecap:butt;stroke-linejoin:miter;stroke-miterlimit:10;stroke-opacity:1;stroke-dasharray:none" /><path
         d="m 441.496,395.02 3.871,-85.2"
         inkscape:connector-curvature="0"
         id="path90"
         style="fill:none;stroke:#231f20;stroke-width:3.87276006;stroke-linecap:butt;stroke-linejoin:miter;stroke-miterlimit:10;stroke-opacity:1;stroke-dasharray:none" /><path
         d="M 1893.78,290.457 1878.29,213 c -20.26,-3.871 -41.19,-8.52 -61.97,-6.285 -52.94,5.707 -71.52,58.984 -49.63,103.105 29.76,59.973 98.59,100.692 161.94,69.711"
         inkscape:connector-curvature="0"
         id="path92"
         style="fill:none;stroke:#231f20;stroke-width:3.87276006;stroke-linecap:butt;stroke-linejoin:miter;stroke-miterlimit:10;stroke-opacity:1;stroke-dasharray:none" /><path
         d="m 13593.4,278.84 c -25.3,9.715 -47,24.402 -47.2,54.219 -0.2,30.535 27.8,68.593 61.4,52.304 81.1,-39.191 -54,-118.144 21.8,-155.066 8.1,-3.961 17,-6.078 25.9,-7.41 14.1,-2.141 28.4,-2.141 42.6,-2.141"
         inkscape:connector-curvature="0"
         id="path94"
         style="fill:none;stroke:#231f20;stroke-width:3.87276006;stroke-linecap:butt;stroke-linejoin:miter;stroke-miterlimit:10;stroke-opacity:1;stroke-dasharray:none" /><path
         d="M 774.551,391.148 770.68,271.094"
         inkscape:connector-curvature="0"
         id="path96"
         style="fill:none;stroke:#231f20;stroke-width:3.87276006;stroke-linecap:butt;stroke-linejoin:miter;stroke-miterlimit:10;stroke-opacity:1;stroke-dasharray:none" /><path
         d="m 5061.69,274.965 c -2.55,15.492 -4.97,30.984 -1.89,46.473 21.59,109.355 135.28,42.601 145.18,-34.856"
         inkscape:connector-curvature="0"
         id="path98"
         style="fill:none;stroke:#231f20;stroke-width:3.87276006;stroke-linecap:butt;stroke-linejoin:miter;stroke-miterlimit:10;stroke-opacity:1;stroke-dasharray:none" /><path
         d="m 8318.68,391.148 -3.87,-34.855"
         inkscape:connector-curvature="0"
         id="path100"
         style="fill:none;stroke:#231f20;stroke-width:3.87276006;stroke-linecap:butt;stroke-linejoin:miter;stroke-miterlimit:10;stroke-opacity:1;stroke-dasharray:none" /><path
         d="m 5201.11,333.059 c 12.9,9.683 25.56,19.851 38.73,28.89 90.41,60.992 73.58,-99.867 143.29,-121.84"
         inkscape:connector-curvature="0"
         id="path102"
         style="fill:none;stroke:#231f20;stroke-width:3.87276006;stroke-linecap:butt;stroke-linejoin:miter;stroke-miterlimit:10;stroke-opacity:1;stroke-dasharray:none" /><path
         d="m 2443.71,379.531 30.98,-135.547"
         inkscape:connector-curvature="0"
         id="path104"
         style="fill:none;stroke:#231f20;stroke-width:3.87276006;stroke-linecap:butt;stroke-linejoin:miter;stroke-miterlimit:10;stroke-opacity:1;stroke-dasharray:none" /><path
         d="m 7296.27,379.531 c 15,-72.984 56.46,-81.328 123.93,-81.328"
         inkscape:connector-curvature="0"
         id="path106"
         style="fill:none;stroke:#231f20;stroke-width:3.87276006;stroke-linecap:butt;stroke-linejoin:miter;stroke-miterlimit:10;stroke-opacity:1;stroke-dasharray:none" /><path
         d="m 12137.2,251.73 c -1.1,58.09 69.4,154.051 136.1,105.313 32.6,-23.984 31.7,-82.078 45.9,-116.934"
         inkscape:connector-curvature="0"
         id="path108"
         style="fill:none;stroke:#231f20;stroke-width:3.87276006;stroke-linecap:butt;stroke-linejoin:miter;stroke-miterlimit:10;stroke-opacity:1;stroke-dasharray:none" /><path
         d="m 4899.04,360.168 c 0,-28.645 0.5,-59.254 -15.49,-84.219 -27.11,-40.765 -77.98,-37.039 -105.6,0.75 -16.07,21.981 -17.33,49.539 -18.33,75.723"
         inkscape:connector-curvature="0"
         id="path110"
         style="fill:none;stroke:#231f20;stroke-width:3.87276006;stroke-linecap:butt;stroke-linejoin:miter;stroke-miterlimit:10;stroke-opacity:1;stroke-dasharray:none" /><path
         d="m 2296.54,356.293 c 8.26,-29.223 13.14,-60.215 -0.47,-89.074 -25.37,-53.086 -90.44,-55.586 -127.82,-13.797 -23.6,26.394 -28.17,61.195 -30.49,95.125"
         inkscape:connector-curvature="0"
         id="path112"
         style="fill:none;stroke:#231f20;stroke-width:3.87276006;stroke-linecap:butt;stroke-linejoin:miter;stroke-miterlimit:10;stroke-opacity:1;stroke-dasharray:none" /><path
         d="m 2927.8,356.293 c 79.34,-7.746 141.33,-78.785 166.53,-151.035"
         inkscape:connector-curvature="0"
         id="path114"
         style="fill:none;stroke:#231f20;stroke-width:3.87276006;stroke-linecap:butt;stroke-linejoin:miter;stroke-miterlimit:10;stroke-opacity:1;stroke-dasharray:none" /><path
         d="m 14333.1,344.676 c 21.4,-49.66 35.2,-92.946 23.2,-147.164"
         inkscape:connector-curvature="0"
         id="path116"
         style="fill:none;stroke:#231f20;stroke-width:3.87276006;stroke-linecap:butt;stroke-linejoin:miter;stroke-miterlimit:10;stroke-opacity:1;stroke-dasharray:none" /><path
         d="m 12090.7,340.801 42.6,-38.727"
         inkscape:connector-curvature="0"
         id="path118"
         style="fill:none;stroke:#231f20;stroke-width:3.87276006;stroke-linecap:butt;stroke-linejoin:miter;stroke-miterlimit:10;stroke-opacity:1;stroke-dasharray:none" /><path
         d="m 4139.98,336.93 34.85,-65.836"
         inkscape:connector-curvature="0"
         id="path120"
         style="fill:none;stroke:#231f20;stroke-width:3.87276006;stroke-linecap:butt;stroke-linejoin:miter;stroke-miterlimit:10;stroke-opacity:1;stroke-dasharray:none" /><path
         d="m 14565.4,263.348 c -7.7,-9.551 -15.9,-19.364 -25.9,-27.11 -82.5,-63.258 -70.5,142.715 1.4,82.961 6.7,-5.508 11.1,-13.25 14.5,-20.996 4.7,-11.621 7.3,-23.238 10,-34.855 41.1,-26.539 118.9,-144.508 60.1,-185.891 -38,-26.6367 -91.9,-10.1992 -133.6,-3.875"
         inkscape:connector-curvature="0"
         id="path122"
         style="fill:none;stroke:#231f20;stroke-width:3.87276006;stroke-linecap:butt;stroke-linejoin:miter;stroke-miterlimit:10;stroke-opacity:1;stroke-dasharray:none" /><path
         d="m 13302.9,313.691 0,-42.597"
         inkscape:connector-curvature="0"
         id="path124"
         style="fill:none;stroke:#231f20;stroke-width:3.87276006;stroke-linecap:butt;stroke-linejoin:miter;stroke-miterlimit:10;stroke-opacity:1;stroke-dasharray:none" /><path
         d="m 11273.6,305.949 0,-3.875"
         inkscape:connector-curvature="0"
         id="path126"
         style="fill:none;stroke:#231f20;stroke-width:3.87276006;stroke-linecap:butt;stroke-linejoin:miter;stroke-miterlimit:10;stroke-opacity:1;stroke-dasharray:none" /><path
         d="m 13086,302.074 7.8,-73.582"
         inkscape:connector-curvature="0"
         id="path128"
         style="fill:none;stroke:#231f20;stroke-width:3.87276006;stroke-linecap:butt;stroke-linejoin:miter;stroke-miterlimit:10;stroke-opacity:1;stroke-dasharray:none" /><path
         d="M 10084.7,298.203 10045.9,50.3477"
         inkscape:connector-curvature="0"
         id="path130"
         style="fill:none;stroke:#231f20;stroke-width:3.87276006;stroke-linecap:butt;stroke-linejoin:miter;stroke-miterlimit:10;stroke-opacity:1;stroke-dasharray:none" /><path
         d="M 11943.6,290.457 12009.4,213"
         inkscape:connector-curvature="0"
         id="path132"
         style="fill:none;stroke:#231f20;stroke-width:3.87276006;stroke-linecap:butt;stroke-linejoin:miter;stroke-miterlimit:10;stroke-opacity:1;stroke-dasharray:none" /><path
         d="m 1882.16,209.129 3.87,-182.0196"
         inkscape:connector-curvature="0"
         id="path134"
         style="fill:none;stroke:#231f20;stroke-width:3.87276006;stroke-linecap:butt;stroke-linejoin:miter;stroke-miterlimit:10;stroke-opacity:1;stroke-dasharray:none" /></g></g></svg>