<?xml version="1.0" encoding="UTF-8" standalone="no"?>
<!-- Created with Inkscape (http://www.inkscape.org/) -->

<svg
   xmlns:dc="http://purl.org/dc/elements/1.1/"
   xmlns:cc="http://creativecommons.org/ns#"
   xmlns:rdf="http://www.w3.org/1999/02/22-rdf-syntax-ns#"
   xmlns:svg="http://www.w3.org/2000/svg"
   xmlns="http://www.w3.org/2000/svg"
   xmlns:inkscape="http://www.inkscape.org/namespaces/inkscape"
   version="1.1"
   width="4847.5"
   height="206.25"
   id="svg2"
   xml:space="preserve"><metadata
     id="metadata8"><rdf:RDF><cc:Work
         rdf:about=""><dc:format>image/svg+xml</dc:format><dc:type
           rdf:resource="http://purl.org/dc/dcmitype/StillImage" /></cc:Work></rdf:RDF></metadata><defs
     id="defs6" /><g
     transform="matrix(1.25,0,0,-1.25,0,206.25)"
     id="g10"><g
       transform="scale(0.264349,0.264349)"
       id="g12"><path
         d="m 13508.7,597.695 c 57.2,-120.636 29.7,-232.183 26.4,-359.375"
         inkscape:connector-curvature="0"
         id="path14"
         style="fill:none;stroke:#231f20;stroke-width:3.78288007;stroke-linecap:butt;stroke-linejoin:miter;stroke-miterlimit:10;stroke-opacity:1;stroke-dasharray:none" /><path
         d="m 12249,574.996 41.6,-268.582 c 36.5,16.32 69.6,60.524 109.7,65.281 65.8,7.567 68.8,-125.808 71.8,-167.418"
         inkscape:connector-curvature="0"
         id="path16"
         style="fill:none;stroke:#231f20;stroke-width:3.78288007;stroke-linecap:butt;stroke-linejoin:miter;stroke-miterlimit:10;stroke-opacity:1;stroke-dasharray:none" /><path
         d="m 12797.5,567.434 c 26.5,-125.786 32.2,-265.36 22.7,-393.422"
         inkscape:connector-curvature="0"
         id="path18"
         style="fill:none;stroke:#231f20;stroke-width:3.78288007;stroke-linecap:butt;stroke-linejoin:miter;stroke-miterlimit:10;stroke-opacity:1;stroke-dasharray:none" /><path
         d="m 9945.19,556.082 c 20.26,-66.891 41.61,-131.207 52.57,-200.492 8.54,-53.481 5.34,-111.586 34.44,-158.879 21.6,18.574 41.6,50.348 68.7,60.855 48.6,19.008 71.3,-55.086 82.6,-87.336 37.3,15.793 94.6,17.602 123.8,47.977 19.4,20.113 -0.4,62.355 26.8,76.859 15.4,7.563 25,-8.695 21.9,-22.293 -3.5,-15.203 -16.2,-23.101 -28.7,-30.668"
         inkscape:connector-curvature="0"
         id="path20"
         style="fill:none;stroke:#231f20;stroke-width:3.78288007;stroke-linecap:butt;stroke-linejoin:miter;stroke-miterlimit:10;stroke-opacity:1;stroke-dasharray:none" /><path
         d="m 491.773,208.059 c 1.344,104.324 6.454,220.644 -22.695,321.543 l 105.918,22.699"
         inkscape:connector-curvature="0"
         id="path22"
         style="fill:none;stroke:#231f20;stroke-width:3.78288007;stroke-linecap:butt;stroke-linejoin:miter;stroke-miterlimit:10;stroke-opacity:1;stroke-dasharray:none" /><path
         d="m 673.352,552.301 c 36.543,-54.192 50.593,-113.489 57.351,-177.797 2.809,-26.481 -1.691,-84.227 17.938,-104.149 13.523,-13.734 32.812,-1.417 44.41,8.403 22.472,19.027 49.105,65.484 83.691,60.312 20.938,-3.101 30.594,-26.16 35.586,-44.004 12.168,-43.707 5.758,-89.949 22.043,-132.402"
         inkscape:connector-curvature="0"
         id="path24"
         style="fill:none;stroke:#231f20;stroke-width:3.78288007;stroke-linecap:butt;stroke-linejoin:miter;stroke-miterlimit:10;stroke-opacity:1;stroke-dasharray:none" /><path
         d="m 211.84,457.727 c 85.129,28.558 167.621,59.582 257.238,71.875"
         inkscape:connector-curvature="0"
         id="path26"
         style="fill:none;stroke:#231f20;stroke-width:3.78288007;stroke-linecap:butt;stroke-linejoin:miter;stroke-miterlimit:10;stroke-opacity:1;stroke-dasharray:none" /><path
         d="m 4789.12,529.602 c 49.18,-61.418 56.75,-162.09 41.61,-238.321 l 15.14,-15.133 30.26,0"
         inkscape:connector-curvature="0"
         id="path28"
         style="fill:none;stroke:#231f20;stroke-width:3.78288007;stroke-linecap:butt;stroke-linejoin:miter;stroke-miterlimit:10;stroke-opacity:1;stroke-dasharray:none" /><path
         d="m 5594.88,514.473 c 39.03,-61.664 53.61,-132.403 60.52,-204.278 l -117.27,-8.98 -71.87,-53.77 -132.4,-96.129"
         inkscape:connector-curvature="0"
         id="path30"
         style="fill:none;stroke:#231f20;stroke-width:3.78288007;stroke-linecap:butt;stroke-linejoin:miter;stroke-miterlimit:10;stroke-opacity:1;stroke-dasharray:none" /><path
         d="m 6589.77,503.121 c 16.91,-56.18 27.68,-119.316 32.58,-177.793 3.81,-45.394 -2.65,-87.008 20.38,-128.617 38.3,19.543 72.74,56.387 113.49,69.012 99.41,30.812 108.27,-138.625 136.18,-193.848"
         inkscape:connector-curvature="0"
         id="path32"
         style="fill:none;stroke:#231f20;stroke-width:3.78288007;stroke-linecap:butt;stroke-linejoin:miter;stroke-miterlimit:10;stroke-opacity:1;stroke-dasharray:none" /><path
         d="m 7486.32,503.121 c 44.9,-81.16 27.99,-159.894 49.17,-245.887 l 37.83,0"
         inkscape:connector-curvature="0"
         id="path34"
         style="fill:none;stroke:#231f20;stroke-width:3.78288007;stroke-linecap:butt;stroke-linejoin:miter;stroke-miterlimit:10;stroke-opacity:1;stroke-dasharray:none" /><path
         d="m 6472.5,480.426 3.79,-374.504"
         inkscape:connector-curvature="0"
         id="path36"
         style="fill:none;stroke:#231f20;stroke-width:3.78288007;stroke-linecap:butt;stroke-linejoin:miter;stroke-miterlimit:10;stroke-opacity:1;stroke-dasharray:none" /><path
         d="m 1895.22,446.379 45.4,-34.047"
         inkscape:connector-curvature="0"
         id="path38"
         style="fill:none;stroke:#231f20;stroke-width:3.78288007;stroke-linecap:butt;stroke-linejoin:miter;stroke-miterlimit:10;stroke-opacity:1;stroke-dasharray:none" /><path
         d="m 12165.7,442.598 c -17.8,-62.344 -3.7,-127.418 -24.1,-189.145 -6.9,-20.754 -15.9,-54.047 -41.4,-58.144 -25.3,-4.004 -55,16.531 -78.2,24.097 -13,-21.844 -26.1,-46.898 -49.7,-58.992 -96.4,-49.402 -166.5,74.125 -147,153.566"
         inkscape:connector-curvature="0"
         id="path40"
         style="fill:none;stroke:#231f20;stroke-width:3.78288007;stroke-linecap:butt;stroke-linejoin:miter;stroke-miterlimit:10;stroke-opacity:1;stroke-dasharray:none" /><path
         d="m 1010.03,435.031 22.7,-60.527"
         inkscape:connector-curvature="0"
         id="path42"
         style="fill:none;stroke:#231f20;stroke-width:3.78288007;stroke-linecap:butt;stroke-linejoin:miter;stroke-miterlimit:10;stroke-opacity:1;stroke-dasharray:none" /><path
         d="m 12661.3,427.465 -56.7,-49.176 c -7,-22.301 -13,-44.84 -15.7,-68.094 -2,-17.406 -2.2,-35.797 6.5,-51.582 34,-61.902 124.5,-17.695 100.8,47.801 -4.6,12.242 -11.8,23.285 -20.1,33.238 -14,16.75 -31.3,29.696 -48.9,42.418"
         inkscape:connector-curvature="0"
         id="path44"
         style="fill:none;stroke:#231f20;stroke-width:3.78288007;stroke-linecap:butt;stroke-linejoin:miter;stroke-miterlimit:10;stroke-opacity:1;stroke-dasharray:none" /><path
         d="m 9283.18,416.117 c 39.2,-59.383 51.05,-122.488 49.18,-192.926 l -139.97,11.348"
         inkscape:connector-curvature="0"
         id="path46"
         style="fill:none;stroke:#231f20;stroke-width:3.78288007;stroke-linecap:butt;stroke-linejoin:miter;stroke-miterlimit:10;stroke-opacity:1;stroke-dasharray:none" /><path
         d="m 5080.41,264.801 c -39.26,17.679 -52.96,110.879 -2.67,124.836 36.33,9.562 84.13,-34.047 72.55,-71.164 -8.95,-28.911 -45.98,-40.461 -69.88,-53.672 25.97,-57.891 67.57,-78.012 128.61,-83.223"
         inkscape:connector-curvature="0"
         id="path48"
         style="fill:none;stroke:#231f20;stroke-width:3.78288007;stroke-linecap:butt;stroke-linejoin:miter;stroke-miterlimit:10;stroke-opacity:1;stroke-dasharray:none" /><path
         d="m 13860.5,397.203 30.2,-37.828 c 80.8,39.086 94.6,-59.34 102.2,-121.055"
         inkscape:connector-curvature="0"
         id="path50"
         style="fill:none;stroke:#231f20;stroke-width:3.78288007;stroke-linecap:butt;stroke-linejoin:miter;stroke-miterlimit:10;stroke-opacity:1;stroke-dasharray:none" /><path
         d="m 14235,283.715 c -7.6,37.828 20.1,124.371 75.6,100.496 37.9,-16.113 -9.4,-66.449 -26.5,-77.797 -15.1,-9.512 -32.6,-15.684 -49.1,-22.699"
         inkscape:connector-curvature="0"
         id="path52"
         style="fill:none;stroke:#231f20;stroke-width:3.78288007;stroke-linecap:butt;stroke-linejoin:miter;stroke-miterlimit:10;stroke-opacity:1;stroke-dasharray:none" /><path
         d="m 12574.3,382.07 26.5,0"
         inkscape:connector-curvature="0"
         id="path54"
         style="fill:none;stroke:#231f20;stroke-width:3.78288007;stroke-linecap:butt;stroke-linejoin:miter;stroke-miterlimit:10;stroke-opacity:1;stroke-dasharray:none" /><path
         d="m 13709.1,382.07 19,-128.617"
         inkscape:connector-curvature="0"
         id="path56"
         style="fill:none;stroke:#231f20;stroke-width:3.78288007;stroke-linecap:butt;stroke-linejoin:miter;stroke-miterlimit:10;stroke-opacity:1;stroke-dasharray:none" /><path
         d="m 13100.1,363.156 -30.3,-102.136 -121,-30.266"
         inkscape:connector-curvature="0"
         id="path58"
         style="fill:none;stroke:#231f20;stroke-width:3.78288007;stroke-linecap:butt;stroke-linejoin:miter;stroke-miterlimit:10;stroke-opacity:1;stroke-dasharray:none" /><path
         d="m 2167.59,102.137 c 43.56,8.5 88.79,23.511 128.62,43.465 15.13,7.574 34.84,18.574 38.39,36.773 3.22,16.07 -9.27,29.465 -20.58,38.941 -28.32,23.766 -66.51,38.286 -86.92,70.641 -17.9,28.359 -3.64,56.066 27.49,63.633 10.03,2.637 20.21,3.238 30.27,3.312 16.96,0.121 32.84,-2.632 49.18,-7.093"
         inkscape:connector-curvature="0"
         id="path60"
         style="fill:none;stroke:#231f20;stroke-width:3.78288007;stroke-linecap:butt;stroke-linejoin:miter;stroke-miterlimit:10;stroke-opacity:1;stroke-dasharray:none" /><path
         d="m 13890.7,359.375 -3.8,-75.66"
         inkscape:connector-curvature="0"
         id="path62"
         style="fill:none;stroke:#231f20;stroke-width:3.78288007;stroke-linecap:butt;stroke-linejoin:miter;stroke-miterlimit:10;stroke-opacity:1;stroke-dasharray:none" /><path
         d="m 5322.51,336.676 71.87,-139.965"
         inkscape:connector-curvature="0"
         id="path64"
         style="fill:none;stroke:#231f20;stroke-width:3.78288007;stroke-linecap:butt;stroke-linejoin:miter;stroke-miterlimit:10;stroke-opacity:1;stroke-dasharray:none" /><path
         d="m 11246.1,328.301 c 31.7,-7.821 78,-53.867 62.6,-89.028 -20.6,-46.347 -86.1,-76.945 -134.1,-64.648 -127.7,32.711 -18.9,175.996 71.5,153.676"
         inkscape:connector-curvature="0"
         id="path66"
         style="fill:none;stroke:#231f20;stroke-width:3.78288007;stroke-linecap:butt;stroke-linejoin:miter;stroke-miterlimit:10;stroke-opacity:1;stroke-dasharray:none" /><path
         d="m 1066.77,310.195 c 15.65,-59.371 29.44,-119.984 30.27,-181.578"
         inkscape:connector-curvature="0"
         id="path68"
         style="fill:none;stroke:#231f20;stroke-width:3.78288007;stroke-linecap:butt;stroke-linejoin:miter;stroke-miterlimit:10;stroke-opacity:1;stroke-dasharray:none" /><path
         d="m 5466.26,310.195 41.61,-18.914"
         inkscape:connector-curvature="0"
         id="path70"
         style="fill:none;stroke:#231f20;stroke-width:3.78288007;stroke-linecap:butt;stroke-linejoin:miter;stroke-miterlimit:10;stroke-opacity:1;stroke-dasharray:none" /><path
         d="m 5655.4,310.195 83.22,-26.48"
         inkscape:connector-curvature="0"
         id="path72"
         style="fill:none;stroke:#231f20;stroke-width:3.78288007;stroke-linecap:butt;stroke-linejoin:miter;stroke-miterlimit:10;stroke-opacity:1;stroke-dasharray:none" /><path
         d="m 2927.95,291.281 26.48,-68.09 c 25.17,20.618 44.77,62.801 76.18,73.004 47.21,15.34 85.84,-58.66 124.31,-76.789 l 0,-49.176"
         inkscape:connector-curvature="0"
         id="path74"
         style="fill:none;stroke:#231f20;stroke-width:3.78288007;stroke-linecap:butt;stroke-linejoin:miter;stroke-miterlimit:10;stroke-opacity:1;stroke-dasharray:none" /><path
         d="m 12294.4,306.414 -19,-60.527"
         inkscape:connector-curvature="0"
         id="path76"
         style="fill:none;stroke:#231f20;stroke-width:3.78288007;stroke-linecap:butt;stroke-linejoin:miter;stroke-miterlimit:10;stroke-opacity:1;stroke-dasharray:none" /><path
         d="m 1358.05,302.629 c -8.65,-2.582 -17.57,-4.883 -25.8,-8.699 -61.2,-28.328 19.8,-87.387 36.16,-116.133 22.55,-39.938 -2.79,-70.668 -44.4,-76.336 -13.88,-1.918 -27.66,-0.809 -41.62,0.676"
         inkscape:connector-curvature="0"
         id="path78"
         style="fill:none;stroke:#231f20;stroke-width:3.78288007;stroke-linecap:butt;stroke-linejoin:miter;stroke-miterlimit:10;stroke-opacity:1;stroke-dasharray:none" /><path
         d="m 4043.89,298.848 c -0.62,-13.868 -1.25,-27.782 -3.06,-41.614 -12.06,-89.836 -107.13,-14.418 -144.47,10.223 -11.34,7.344 -23.71,14.621 -37.45,14.773 -36.21,0.399 -58.98,-51.476 -73.91,-77.953 -11.28,-19.988 -14.57,-37.832 -13.47,-60.527"
         inkscape:connector-curvature="0"
         id="path80"
         style="fill:none;stroke:#231f20;stroke-width:3.78288007;stroke-linecap:butt;stroke-linejoin:miter;stroke-miterlimit:10;stroke-opacity:1;stroke-dasharray:none" /><path
         d="m 8023.48,90.7891 c 8.31,65.1449 13.96,95.5429 58,147.5309 16.11,18.914 38.73,42.551 66.34,34.629 35.14,-10.078 55.09,-59.355 79.94,-83.804 18.92,18.914 35.54,40.023 53.31,60.527 8.34,9.305 17.05,18.914 27.03,26.476 88.38,69.211 93.11,-105.918 105.02,-151.312 l 41.61,26.48"
         inkscape:connector-curvature="0"
         id="path82"
         style="fill:none;stroke:#231f20;stroke-width:3.78288007;stroke-linecap:butt;stroke-linejoin:miter;stroke-miterlimit:10;stroke-opacity:1;stroke-dasharray:none" /><path
         d="m 5674.32,295.066 15.13,-147.535"
         inkscape:connector-curvature="0"
         id="path84"
         style="fill:none;stroke:#231f20;stroke-width:3.78288007;stroke-linecap:butt;stroke-linejoin:miter;stroke-miterlimit:10;stroke-opacity:1;stroke-dasharray:none" /><path
         d="m 2038.97,291.281 c 28.91,-53.398 45.99,-109.343 49.18,-170.23"
         inkscape:connector-curvature="0"
         id="path86"
         style="fill:none;stroke:#231f20;stroke-width:3.78288007;stroke-linecap:butt;stroke-linejoin:miter;stroke-miterlimit:10;stroke-opacity:1;stroke-dasharray:none" /><path
         d="m 4668.07,268.586 c 50.5,25.211 104.16,20.203 158.88,22.695"
         inkscape:connector-curvature="0"
         id="path88"
         style="fill:none;stroke:#231f20;stroke-width:3.78288007;stroke-linecap:butt;stroke-linejoin:miter;stroke-miterlimit:10;stroke-opacity:1;stroke-dasharray:none" /><path
         d="m 3154.92,219.406 c 15.13,18.914 30.26,47.707 53.96,56.742 27.79,10.938 50.57,-17.359 63.31,-37.828 32.03,-50.922 42.45,-112.265 52.96,-170.2262"
         inkscape:connector-curvature="0"
         id="path90"
         style="fill:none;stroke:#231f20;stroke-width:3.78288007;stroke-linecap:butt;stroke-linejoin:miter;stroke-miterlimit:10;stroke-opacity:1;stroke-dasharray:none" /><path
         d="m 3525.64,261.02 c 13.52,-16.493 28.74,-32.25 40.54,-50.036 30.22,-45.566 2.06,-111.652 -58.87,-95.101 -53.54,14.601 -68.22,108.445 -18.58,135.133 22.65,12.183 47.13,23.031 70.96,32.699"
         inkscape:connector-curvature="0"
         id="path92"
         style="fill:none;stroke:#231f20;stroke-width:3.78288007;stroke-linecap:butt;stroke-linejoin:miter;stroke-miterlimit:10;stroke-opacity:1;stroke-dasharray:none" /><path
         d="m 14235,279.934 c 37.8,-103.758 124.8,-155.524 230.7,-121.051"
         inkscape:connector-curvature="0"
         id="path94"
         style="fill:none;stroke:#231f20;stroke-width:3.78288007;stroke-linecap:butt;stroke-linejoin:miter;stroke-miterlimit:10;stroke-opacity:1;stroke-dasharray:none" /><path
         d="M 4842.08,272.367 4823.17,94.5703"
         inkscape:connector-curvature="0"
         id="path96"
         style="fill:none;stroke:#231f20;stroke-width:3.78288007;stroke-linecap:butt;stroke-linejoin:miter;stroke-miterlimit:10;stroke-opacity:1;stroke-dasharray:none" /><path
         d="m 8568.22,272.367 c 0,-38.449 11.67,-163.676 81.65,-127.105 34.9,18.234 29.81,62.797 53.03,89.699 23.57,27.051 72.04,16.918 103.64,14.711"
         inkscape:connector-curvature="0"
         id="path98"
         style="fill:none;stroke:#231f20;stroke-width:3.78288007;stroke-linecap:butt;stroke-linejoin:miter;stroke-miterlimit:10;stroke-opacity:1;stroke-dasharray:none" /><path
         d="m 5057.71,268.586 -71.88,-22.699"
         inkscape:connector-curvature="0"
         id="path100"
         style="fill:none;stroke:#231f20;stroke-width:3.78288007;stroke-linecap:butt;stroke-linejoin:miter;stroke-miterlimit:10;stroke-opacity:1;stroke-dasharray:none" /><path
         d="m 7974.3,268.586 56.75,-87.008"
         inkscape:connector-curvature="0"
         id="path102"
         style="fill:none;stroke:#231f20;stroke-width:3.78288007;stroke-linecap:butt;stroke-linejoin:miter;stroke-miterlimit:10;stroke-opacity:1;stroke-dasharray:none" /><path
         d="m 9059.99,268.586 c 9.1,-62.41 68.1,-140.641 51.4,-203.6485 -8.13,-30.5156 -40.41,-35.3672 -66.53,-26.1602 -41.61,14.7149 -72.98,48.6485 -87,89.8397"
         inkscape:connector-curvature="0"
         id="path104"
         style="fill:none;stroke:#231f20;stroke-width:3.78288007;stroke-linecap:butt;stroke-linejoin:miter;stroke-miterlimit:10;stroke-opacity:1;stroke-dasharray:none" /><path
         d="m 7531.71,261.02 -22.7,-155.098"
         inkscape:connector-curvature="0"
         id="path106"
         style="fill:none;stroke:#231f20;stroke-width:3.78288007;stroke-linecap:butt;stroke-linejoin:miter;stroke-miterlimit:10;stroke-opacity:1;stroke-dasharray:none" /><path
         d="m 13073.6,257.234 34.1,-52.957 56.7,11.348"
         inkscape:connector-curvature="0"
         id="path108"
         style="fill:none;stroke:#231f20;stroke-width:3.78288007;stroke-linecap:butt;stroke-linejoin:miter;stroke-miterlimit:10;stroke-opacity:1;stroke-dasharray:none" /><path
         d="m 752.793,253.453 -3.781,-52.961"
         inkscape:connector-curvature="0"
         id="path110"
         style="fill:none;stroke:#231f20;stroke-width:3.78288007;stroke-linecap:butt;stroke-linejoin:miter;stroke-miterlimit:10;stroke-opacity:1;stroke-dasharray:none" /><path
         d="m 3688.3,253.453 79.45,-68.094"
         inkscape:connector-curvature="0"
         id="path112"
         style="fill:none;stroke:#231f20;stroke-width:3.78288007;stroke-linecap:butt;stroke-linejoin:miter;stroke-miterlimit:10;stroke-opacity:1;stroke-dasharray:none" /><path
         d="m 7335,253.453 189.14,0"
         inkscape:connector-curvature="0"
         id="path114"
         style="fill:none;stroke:#231f20;stroke-width:3.78288007;stroke-linecap:butt;stroke-linejoin:miter;stroke-miterlimit:10;stroke-opacity:1;stroke-dasharray:none" /><path
         d="m 6366.58,245.887 c 38.64,-18.914 79.44,-16.676 121.06,-18.914"
         inkscape:connector-curvature="0"
         id="path116"
         style="fill:none;stroke:#231f20;stroke-width:3.78288007;stroke-linecap:butt;stroke-linejoin:miter;stroke-miterlimit:10;stroke-opacity:1;stroke-dasharray:none" /><path
         d="m 7195.04,136.184 c -11.36,-11.348 -22.04,-23.614 -35.52,-32.106 -35.07,-22.1171 -80.07,7.395 -81.75,47.238 -0.86,32.598 26.48,60.176 52.96,74.996 15.68,8.715 36.93,15.395 52.95,4.442 29.82,-21 7.11,-60.524 18.92,-88.02 13.72,-31.113 56.08,-61.3668 79.44,-85.9918"
         inkscape:connector-curvature="0"
         id="path118"
         style="fill:none;stroke:#231f20;stroke-width:3.78288007;stroke-linecap:butt;stroke-linejoin:miter;stroke-miterlimit:10;stroke-opacity:1;stroke-dasharray:none" /><path
         d="m 11318.4,234.539 60.5,-90.789"
         inkscape:connector-curvature="0"
         id="path120"
         style="fill:none;stroke:#231f20;stroke-width:3.78288007;stroke-linecap:butt;stroke-linejoin:miter;stroke-miterlimit:10;stroke-opacity:1;stroke-dasharray:none" /><path
         d="m 6487.64,226.973 132.4,0"
         inkscape:connector-curvature="0"
         id="path122"
         style="fill:none;stroke:#231f20;stroke-width:3.78288007;stroke-linecap:butt;stroke-linejoin:miter;stroke-miterlimit:10;stroke-opacity:1;stroke-dasharray:none" /><path
         d="m 2954.43,223.191 0,-132.4019"
         inkscape:connector-curvature="0"
         id="path124"
         style="fill:none;stroke:#231f20;stroke-width:3.78288007;stroke-linecap:butt;stroke-linejoin:miter;stroke-miterlimit:10;stroke-opacity:1;stroke-dasharray:none" /><path
         d="m 9332.36,223.191 87.01,-7.566"
         inkscape:connector-curvature="0"
         id="path126"
         style="fill:none;stroke:#231f20;stroke-width:3.78288007;stroke-linecap:butt;stroke-linejoin:miter;stroke-miterlimit:10;stroke-opacity:1;stroke-dasharray:none" /><path
         d="m 4036.33,219.406 c 35.71,-52.133 65.32,-69.797 128.62,-60.523"
         inkscape:connector-curvature="0"
         id="path128"
         style="fill:none;stroke:#231f20;stroke-width:3.78288007;stroke-linecap:butt;stroke-linejoin:miter;stroke-miterlimit:10;stroke-opacity:1;stroke-dasharray:none" /><path
         d="m 10319.7,219.406 c 29.9,-57.66 67.1,-96.285 136.2,-87.004"
         inkscape:connector-curvature="0"
         id="path130"
         style="fill:none;stroke:#231f20;stroke-width:3.78288007;stroke-linecap:butt;stroke-linejoin:miter;stroke-miterlimit:10;stroke-opacity:1;stroke-dasharray:none" /><path
         d="m 9339.93,215.625 -3.79,-75.66"
         inkscape:connector-curvature="0"
         id="path132"
         style="fill:none;stroke:#231f20;stroke-width:3.78288007;stroke-linecap:butt;stroke-linejoin:miter;stroke-miterlimit:10;stroke-opacity:1;stroke-dasharray:none" /><path
         d="m 10032.2,196.711 -3.8,-52.961"
         inkscape:connector-curvature="0"
         id="path134"
         style="fill:none;stroke:#231f20;stroke-width:3.78288007;stroke-linecap:butt;stroke-linejoin:miter;stroke-miterlimit:10;stroke-opacity:1;stroke-dasharray:none" /><path
         d="m 6638.95,192.926 0,-11.348"
         inkscape:connector-curvature="0"
         id="path136"
         style="fill:none;stroke:#231f20;stroke-width:3.78288007;stroke-linecap:butt;stroke-linejoin:miter;stroke-miterlimit:10;stroke-opacity:1;stroke-dasharray:none" /><path
         d="m 5394.38,189.145 49.18,-37.829"
         inkscape:connector-curvature="0"
         id="path138"
         style="fill:none;stroke:#231f20;stroke-width:3.78288007;stroke-linecap:butt;stroke-linejoin:miter;stroke-miterlimit:10;stroke-opacity:1;stroke-dasharray:none" /><path
         d="m 8227.76,189.145 0,-52.961"
         inkscape:connector-curvature="0"
         id="path140"
         style="fill:none;stroke:#231f20;stroke-width:3.78288007;stroke-linecap:butt;stroke-linejoin:miter;stroke-miterlimit:10;stroke-opacity:1;stroke-dasharray:none" /><path
         d="m 10179.7,166.445 c -6.3,-58.136 -45.4,-118.1481 -105.9,-71.8747"
         inkscape:connector-curvature="0"
         id="path142"
         style="fill:none;stroke:#231f20;stroke-width:3.78288007;stroke-linecap:butt;stroke-linejoin:miter;stroke-miterlimit:10;stroke-opacity:1;stroke-dasharray:none" /><path
         d="m 8413.12,124.836 0,-22.699"
         inkscape:connector-curvature="0"
         id="path144"
         style="fill:none;stroke:#231f20;stroke-width:3.78288007;stroke-linecap:butt;stroke-linejoin:miter;stroke-miterlimit:10;stroke-opacity:1;stroke-dasharray:none" /></g></g></svg>