<?xml version="1.0" encoding="UTF-8" standalone="no"?>
<!-- Created with Inkscape (http://www.inkscape.org/) -->

<svg
   xmlns:dc="http://purl.org/dc/elements/1.1/"
   xmlns:cc="http://creativecommons.org/ns#"
   xmlns:rdf="http://www.w3.org/1999/02/22-rdf-syntax-ns#"
   xmlns:svg="http://www.w3.org/2000/svg"
   xmlns="http://www.w3.org/2000/svg"
   xmlns:inkscape="http://www.inkscape.org/namespaces/inkscape"
   version="1.1"
   width="4741.25"
   height="147.5"
   id="svg2"
   xml:space="preserve"><metadata
     id="metadata8"><rdf:RDF><cc:Work
         rdf:about=""><dc:format>image/svg+xml</dc:format><dc:type
           rdf:resource="http://purl.org/dc/dcmitype/StillImage" /></cc:Work></rdf:RDF></metadata><defs
     id="defs6" /><g
     transform="matrix(1.25,0,0,-1.25,0,147.5)"
     id="g10"><g
       transform="scale(0.258555,0.258555)"
       id="g12"><path
         d="m 7371.74,409.973 c 0.51,-77.356 25.86,-140.946 50.28,-212.723"
         inkscape:connector-curvature="0"
         id="path14"
         style="fill:none;stroke:#231f20;stroke-width:3.86765003;stroke-linecap:butt;stroke-linejoin:miter;stroke-miterlimit:10;stroke-opacity:1;stroke-dasharray:none" /><path
         d="m 8361.86,406.102 15.47,-139.235 -69.62,-15.469"
         inkscape:connector-curvature="0"
         id="path16"
         style="fill:none;stroke:#231f20;stroke-width:3.86765003;stroke-linecap:butt;stroke-linejoin:miter;stroke-miterlimit:10;stroke-opacity:1;stroke-dasharray:none" /><path
         d="m 14333.5,406.102 c -14,-67.325 -26.2,-145.247 -7.7,-212.719 21.7,2.555 44.7,4.746 64,-7.735 39.6,-26.164 31.8,-79.433 -6,-100.5582"
         inkscape:connector-curvature="0"
         id="path18"
         style="fill:none;stroke:#231f20;stroke-width:3.86765003;stroke-linecap:butt;stroke-linejoin:miter;stroke-miterlimit:10;stroke-opacity:1;stroke-dasharray:none" /><path
         d="m 8477.89,390.633 65.75,-139.235 c 65.1,51.926 78.46,-4.925 88.96,-65.75"
         inkscape:connector-curvature="0"
         id="path20"
         style="fill:none;stroke:#231f20;stroke-width:3.86765003;stroke-linecap:butt;stroke-linejoin:miter;stroke-miterlimit:10;stroke-opacity:1;stroke-dasharray:none" /><path
         d="m 12798.1,386.766 27,-166.309"
         inkscape:connector-curvature="0"
         id="path22"
         style="fill:none;stroke:#231f20;stroke-width:3.86765003;stroke-linecap:butt;stroke-linejoin:miter;stroke-miterlimit:10;stroke-opacity:1;stroke-dasharray:none" /><path
         d="m 6992.71,379.031 c -36.14,-42.547 -45.85,-86.179 -27.07,-139.238 l 50.28,11.605"
         inkscape:connector-curvature="0"
         id="path24"
         style="fill:none;stroke:#231f20;stroke-width:3.86765003;stroke-linecap:butt;stroke-linejoin:miter;stroke-miterlimit:10;stroke-opacity:1;stroke-dasharray:none" /><path
         d="m 7534.18,375.164 -7.73,-208.855"
         inkscape:connector-curvature="0"
         id="path26"
         style="fill:none;stroke:#231f20;stroke-width:3.86765003;stroke-linecap:butt;stroke-linejoin:miter;stroke-miterlimit:10;stroke-opacity:1;stroke-dasharray:none" /><path
         d="m 12368.7,371.293 c 27.8,-44.098 44.4,-92.027 54.2,-143.102"
         inkscape:connector-curvature="0"
         id="path28"
         style="fill:none;stroke:#231f20;stroke-width:3.86765003;stroke-linecap:butt;stroke-linejoin:miter;stroke-miterlimit:10;stroke-opacity:1;stroke-dasharray:none" /><path
         d="m 10276.3,348.09 7.8,-27.074 38.7,0"
         inkscape:connector-curvature="0"
         id="path30"
         style="fill:none;stroke:#231f20;stroke-width:3.86765003;stroke-linecap:butt;stroke-linejoin:miter;stroke-miterlimit:10;stroke-opacity:1;stroke-dasharray:none" /><path
         d="m 12573.7,348.09 c -35.5,-58.68 -19.8,-119.512 -3.8,-181.781"
         inkscape:connector-curvature="0"
         id="path32"
         style="fill:none;stroke:#231f20;stroke-width:3.86765003;stroke-linecap:butt;stroke-linejoin:miter;stroke-miterlimit:10;stroke-opacity:1;stroke-dasharray:none" /><path
         d="m 2034.38,324.883 c 22.7,-77.942 28.44,-163.625 15.48,-243.6642"
         inkscape:connector-curvature="0"
         id="path34"
         style="fill:none;stroke:#231f20;stroke-width:3.86765003;stroke-linecap:butt;stroke-linejoin:miter;stroke-miterlimit:10;stroke-opacity:1;stroke-dasharray:none" /><path
         d="m 11703.5,324.883 19.4,-88.957 c 32.1,19.34 58,40.402 96.6,27.074"
         inkscape:connector-curvature="0"
         id="path36"
         style="fill:none;stroke:#231f20;stroke-width:3.86765003;stroke-linecap:butt;stroke-linejoin:miter;stroke-miterlimit:10;stroke-opacity:1;stroke-dasharray:none" /><path
         d="m 13068.8,216.59 c -5.9,28.066 -11.6,116.027 44.5,93.262 23.3,-9.563 39.3,-40.579 56.1,-58.454"
         inkscape:connector-curvature="0"
         id="path38"
         style="fill:none;stroke:#231f20;stroke-width:3.86765003;stroke-linecap:butt;stroke-linejoin:miter;stroke-miterlimit:10;stroke-opacity:1;stroke-dasharray:none" /><path
         d="m 10280.2,317.148 3.9,-92.824"
         inkscape:connector-curvature="0"
         id="path40"
         style="fill:none;stroke:#231f20;stroke-width:3.86765003;stroke-linecap:butt;stroke-linejoin:miter;stroke-miterlimit:10;stroke-opacity:1;stroke-dasharray:none" /><path
         d="m 13761.1,313.281 -7.7,-88.957"
         inkscape:connector-curvature="0"
         id="path42"
         style="fill:none;stroke:#231f20;stroke-width:3.86765003;stroke-linecap:butt;stroke-linejoin:miter;stroke-miterlimit:10;stroke-opacity:1;stroke-dasharray:none" /><path
         d="m 166.309,146.973 54.148,162.437 c 33.449,-27.07 45.102,-60.586 66.859,-95.941 6.625,-11.235 19.129,-28.246 34.657,-22.977 16.804,5.703 26.117,31.328 33.851,45.434 56.031,-47.317 64.711,-123.766 112.16,-177.9104"
         inkscape:connector-curvature="0"
         id="path44"
         style="fill:none;stroke:#231f20;stroke-width:3.86765003;stroke-linecap:butt;stroke-linejoin:miter;stroke-miterlimit:10;stroke-opacity:1;stroke-dasharray:none" /><path
         d="m 4443.93,305.543 c 49.67,-53.25 94.76,-127.633 104.99,-201.117 12.82,-92.2776 -73.23,-77.3518 -120.46,-34.8088 9.25,24.2226 20.78,39.8398 42.54,54.1488"
         inkscape:connector-curvature="0"
         id="path46"
         style="fill:none;stroke:#231f20;stroke-width:3.86765003;stroke-linecap:butt;stroke-linejoin:miter;stroke-miterlimit:10;stroke-opacity:1;stroke-dasharray:none" /><path
         d="m 13304.7,301.676 c -1.9,-34.258 20.2,-63.899 17.9,-96.692 -2.1,-30.941 -31.5,-54.566 -52.7,-73.484"
         inkscape:connector-curvature="0"
         id="path48"
         style="fill:none;stroke:#231f20;stroke-width:3.86765003;stroke-linecap:butt;stroke-linejoin:miter;stroke-miterlimit:10;stroke-opacity:1;stroke-dasharray:none" /><path
         d="m 10945.5,185.648 c 6.2,50.637 20.1,85.086 65.7,112.161"
         inkscape:connector-curvature="0"
         id="path50"
         style="fill:none;stroke:#231f20;stroke-width:3.86765003;stroke-linecap:butt;stroke-linejoin:miter;stroke-miterlimit:10;stroke-opacity:1;stroke-dasharray:none" /><path
         d="m 12778.7,286.207 31,7.734"
         inkscape:connector-curvature="0"
         id="path52"
         style="fill:none;stroke:#231f20;stroke-width:3.86765003;stroke-linecap:butt;stroke-linejoin:miter;stroke-miterlimit:10;stroke-opacity:1;stroke-dasharray:none" /><path
         d="M 5039.55,290.074 5055.02,58.0156"
         inkscape:connector-curvature="0"
         id="path54"
         style="fill:none;stroke:#231f20;stroke-width:3.86765003;stroke-linecap:butt;stroke-linejoin:miter;stroke-miterlimit:10;stroke-opacity:1;stroke-dasharray:none" /><path
         d="m 7677.29,286.207 30.94,-42.547"
         inkscape:connector-curvature="0"
         id="path56"
         style="fill:none;stroke:#231f20;stroke-width:3.86765003;stroke-linecap:butt;stroke-linejoin:miter;stroke-miterlimit:10;stroke-opacity:1;stroke-dasharray:none" /><path
         d="m 11057.6,220.457 c 0.8,9.188 1.3,18.426 4.3,27.074 23.8,69.617 77.5,-6.504 96.3,-34.808"
         inkscape:connector-curvature="0"
         id="path58"
         style="fill:none;stroke:#231f20;stroke-width:3.86765003;stroke-linecap:butt;stroke-linejoin:miter;stroke-miterlimit:10;stroke-opacity:1;stroke-dasharray:none" /><path
         d="m 10098.4,282.34 c -27.5,-29.652 -52.7,-58.524 -54.1,-100.559"
         inkscape:connector-curvature="0"
         id="path60"
         style="fill:none;stroke:#231f20;stroke-width:3.86765003;stroke-linecap:butt;stroke-linejoin:miter;stroke-miterlimit:10;stroke-opacity:1;stroke-dasharray:none" /><path
         d="m 9676.86,278.473 c 9.37,-46.414 17.53,-88.594 -7.73,-131.5"
         inkscape:connector-curvature="0"
         id="path62"
         style="fill:none;stroke:#231f20;stroke-width:3.86765003;stroke-linecap:butt;stroke-linejoin:miter;stroke-miterlimit:10;stroke-opacity:1;stroke-dasharray:none" /><path
         d="m 12941.2,278.473 23.2,-69.621"
         inkscape:connector-curvature="0"
         id="path64"
         style="fill:none;stroke:#231f20;stroke-width:3.86765003;stroke-linecap:butt;stroke-linejoin:miter;stroke-miterlimit:10;stroke-opacity:1;stroke-dasharray:none" /><path
         d="m 7777.85,274.602 -27.08,-23.204"
         inkscape:connector-curvature="0"
         id="path66"
         style="fill:none;stroke:#231f20;stroke-width:3.86765003;stroke-linecap:butt;stroke-linejoin:miter;stroke-miterlimit:10;stroke-opacity:1;stroke-dasharray:none" /><path
         d="m 8381.2,266.867 38.68,7.735"
         inkscape:connector-curvature="0"
         id="path68"
         style="fill:none;stroke:#231f20;stroke-width:3.86765003;stroke-linecap:butt;stroke-linejoin:miter;stroke-miterlimit:10;stroke-opacity:1;stroke-dasharray:none" /><path
         d="m 8918.8,270.734 c 13.86,-53.004 70.73,-80.332 84.65,-131.5 12.05,-44.8981 -35.85,-46.9488 -61.44,-27.074"
         inkscape:connector-curvature="0"
         id="path70"
         style="fill:none;stroke:#231f20;stroke-width:3.86765003;stroke-linecap:butt;stroke-linejoin:miter;stroke-miterlimit:10;stroke-opacity:1;stroke-dasharray:none" /><path
         d="m 9843.17,266.867 -19.34,-34.808"
         inkscape:connector-curvature="0"
         id="path72"
         style="fill:none;stroke:#231f20;stroke-width:3.86765003;stroke-linecap:butt;stroke-linejoin:miter;stroke-miterlimit:10;stroke-opacity:1;stroke-dasharray:none" /><path
         d="m 13939,266.867 c 3.1,-54.5 1,-95.097 -61.9,-104.426"
         inkscape:connector-curvature="0"
         id="path74"
         style="fill:none;stroke:#231f20;stroke-width:3.86765003;stroke-linecap:butt;stroke-linejoin:miter;stroke-miterlimit:10;stroke-opacity:1;stroke-dasharray:none" /><path
         d="m 6555.67,42.543 c -13.11,27.0742 -30.28,53.1328 -41.41,81.223 -6.31,15.941 -9.84,33.101 -9.71,50.277 0.11,14.496 2.91,29.059 8.57,42.547 41.34,92.82 163.22,-5.149 105.43,-66.922 -11.11,-11.883 -25.19,-19.047 -39.67,-25.902"
         inkscape:connector-curvature="0"
         id="path76"
         style="fill:none;stroke:#231f20;stroke-width:3.86765003;stroke-linecap:butt;stroke-linejoin:miter;stroke-miterlimit:10;stroke-opacity:1;stroke-dasharray:none" /><path
         d="m 6110.89,259.133 c -8.48,-39.981 -14.66,-79.863 -3.87,-119.899 22.29,14.582 49.24,43.395 76.83,45.547 51.58,4.02 57.95,-104.2458 66.27,-138.3708"
         inkscape:connector-curvature="0"
         id="path78"
         style="fill:none;stroke:#231f20;stroke-width:3.86765003;stroke-linecap:butt;stroke-linejoin:miter;stroke-miterlimit:10;stroke-opacity:1;stroke-dasharray:none" /><path
         d="m 7781.71,259.133 c 8.77,-63.887 9.31,-146.496 -7.73,-208.8518"
         inkscape:connector-curvature="0"
         id="path80"
         style="fill:none;stroke:#231f20;stroke-width:3.86765003;stroke-linecap:butt;stroke-linejoin:miter;stroke-miterlimit:10;stroke-opacity:1;stroke-dasharray:none" /><path
         d="m 11189.1,259.133 31,-46.41"
         inkscape:connector-curvature="0"
         id="path82"
         style="fill:none;stroke:#231f20;stroke-width:3.86765003;stroke-linecap:butt;stroke-linejoin:miter;stroke-miterlimit:10;stroke-opacity:1;stroke-dasharray:none" /><path
         d="m 8373.46,251.398 -3.86,-69.617"
         inkscape:connector-curvature="0"
         id="path84"
         style="fill:none;stroke:#231f20;stroke-width:3.86765003;stroke-linecap:butt;stroke-linejoin:miter;stroke-miterlimit:10;stroke-opacity:1;stroke-dasharray:none" /><path
         d="m 8543.64,251.398 -3.87,-69.617"
         inkscape:connector-curvature="0"
         id="path86"
         style="fill:none;stroke:#231f20;stroke-width:3.86765003;stroke-linecap:butt;stroke-linejoin:miter;stroke-miterlimit:10;stroke-opacity:1;stroke-dasharray:none" /><path
         d="m 9468.01,251.398 c 7.74,-51.011 13.76,-89.683 46.41,-131.5"
         inkscape:connector-curvature="0"
         id="path88"
         style="fill:none;stroke:#231f20;stroke-width:3.86765003;stroke-linecap:butt;stroke-linejoin:miter;stroke-miterlimit:10;stroke-opacity:1;stroke-dasharray:none" /><path
         d="m 12121.2,170.176 c 15.5,70.738 98.9,109.094 116,19.34"
         inkscape:connector-curvature="0"
         id="path90"
         style="fill:none;stroke:#231f20;stroke-width:3.86765003;stroke-linecap:butt;stroke-linejoin:miter;stroke-miterlimit:10;stroke-opacity:1;stroke-dasharray:none" /><path
         d="m 11978.1,243.66 c -37,-64.172 20.8,-131.144 73.5,-61.879"
         inkscape:connector-curvature="0"
         id="path92"
         style="fill:none;stroke:#231f20;stroke-width:3.86765003;stroke-linecap:butt;stroke-linejoin:miter;stroke-miterlimit:10;stroke-opacity:1;stroke-dasharray:none" /><path
         d="m 14538.5,243.66 c -49,-57.152 -4.3,-94.699 58,-77.351"
         inkscape:connector-curvature="0"
         id="path94"
         style="fill:none;stroke:#231f20;stroke-width:3.86765003;stroke-linecap:butt;stroke-linejoin:miter;stroke-miterlimit:10;stroke-opacity:1;stroke-dasharray:none" /><path
         d="m 355.824,239.793 0,-3.867"
         inkscape:connector-curvature="0"
         id="path96"
         style="fill:none;stroke:#231f20;stroke-width:3.86765003;stroke-linecap:butt;stroke-linejoin:miter;stroke-miterlimit:10;stroke-opacity:1;stroke-dasharray:none" /><path
         d="M 6961.77,235.926 7012.05,77.3516"
         inkscape:connector-curvature="0"
         id="path98"
         style="fill:none;stroke:#231f20;stroke-width:3.86765003;stroke-linecap:butt;stroke-linejoin:miter;stroke-miterlimit:10;stroke-opacity:1;stroke-dasharray:none" /><path
         d="m 11726.7,235.926 -11.6,-58.016"
         inkscape:connector-curvature="0"
         id="path100"
         style="fill:none;stroke:#231f20;stroke-width:3.86765003;stroke-linecap:butt;stroke-linejoin:miter;stroke-miterlimit:10;stroke-opacity:1;stroke-dasharray:none" /><path
         d="m 7278.92,232.059 c -15.47,-40.403 -37.97,-69.618 -81.22,-81.219"
         inkscape:connector-curvature="0"
         id="path102"
         style="fill:none;stroke:#231f20;stroke-width:3.86765003;stroke-linecap:butt;stroke-linejoin:miter;stroke-miterlimit:10;stroke-opacity:1;stroke-dasharray:none" /><path
         d="m 6834.14,228.191 c 4.95,-30.941 -7.74,-48.597 -38.68,-54.148 7.27,24.797 15.47,41.141 38.68,54.148"
         inkscape:connector-curvature="0"
         id="path104"
         style="fill:none;stroke:#231f20;stroke-width:3.86765003;stroke-linecap:butt;stroke-linejoin:miter;stroke-miterlimit:10;stroke-opacity:1;stroke-dasharray:none" /><path
         d="m 580.148,224.324 c -21.05,-47.297 -21.043,-117.785 35.231,-141.5857 47.367,-20.0391 76.93,18.7307 53.726,60.3637"
         inkscape:connector-curvature="0"
         id="path106"
         style="fill:none;stroke:#231f20;stroke-width:3.86765003;stroke-linecap:butt;stroke-linejoin:miter;stroke-miterlimit:10;stroke-opacity:1;stroke-dasharray:none" /><path
         d="m 1094.55,127.633 -7.74,23.207 c 10.33,14.015 20.64,28.117 33.17,40.293 69.09,67.152 121.54,-6.203 160.21,-63.5"
         inkscape:connector-curvature="0"
         id="path108"
         style="fill:none;stroke:#231f20;stroke-width:3.86765003;stroke-linecap:butt;stroke-linejoin:miter;stroke-miterlimit:10;stroke-opacity:1;stroke-dasharray:none" /><path
         d="m 12357.1,224.324 c -10.2,-10.855 -20.2,-21.699 -26.6,-35.332 -13.8,-29.219 0.7,-81.93 42.1,-70.238 32.5,8.879 47,44.316 50.3,74.629"
         inkscape:connector-curvature="0"
         id="path110"
         style="fill:none;stroke:#231f20;stroke-width:3.86765003;stroke-linecap:butt;stroke-linejoin:miter;stroke-miterlimit:10;stroke-opacity:1;stroke-dasharray:none" /><path
         d="M 8775.7,212.723 8791.17,131.5"
         inkscape:connector-curvature="0"
         id="path112"
         style="fill:none;stroke:#231f20;stroke-width:3.86765003;stroke-linecap:butt;stroke-linejoin:miter;stroke-miterlimit:10;stroke-opacity:1;stroke-dasharray:none" /><path
         d="m 11328.3,193.383 50.3,19.34 23.2,-123.766"
         inkscape:connector-curvature="0"
         id="path114"
         style="fill:none;stroke:#231f20;stroke-width:3.86765003;stroke-linecap:butt;stroke-linejoin:miter;stroke-miterlimit:10;stroke-opacity:1;stroke-dasharray:none" /><path
         d="m 1485.18,7.73438 c 49.16,2.0625 165.39,28.80862 113.79,99.73862 -6.02,8.558 -13.23,15.922 -21.88,21.66 -34.27,23.129 -54.25,-18.071 -88.04,-16.219 -61.3,3.117 -54.15,69.395 -15.48,95.938"
         inkscape:connector-curvature="0"
         id="path116"
         style="fill:none;stroke:#231f20;stroke-width:3.86765003;stroke-linecap:butt;stroke-linejoin:miter;stroke-miterlimit:10;stroke-opacity:1;stroke-dasharray:none" /><path
         d="M 3422.87,204.984 3407.4,197.25"
         inkscape:connector-curvature="0"
         id="path118"
         style="fill:none;stroke:#231f20;stroke-width:3.86765003;stroke-linecap:butt;stroke-linejoin:miter;stroke-miterlimit:10;stroke-opacity:1;stroke-dasharray:none" /><path
         d="m 6358.42,204.984 c -2.46,-18.007 -3.87,-35.992 -2.67,-54.144 0.84,-11.606 2.67,-23.207 6.95,-34.809 2.73,-7.738 6.12,-15.093 10.5,-21.949 38.04,-59.6758 80.72,34.711 22.57,66.145 -11.72,6.082 -24.42,6.082 -37.35,6.082"
         inkscape:connector-curvature="0"
         id="path120"
         style="fill:none;stroke:#231f20;stroke-width:3.86765003;stroke-linecap:butt;stroke-linejoin:miter;stroke-miterlimit:10;stroke-opacity:1;stroke-dasharray:none" /><path
         d="M 2889.14,81.2188 2842.72,131.5 c -10.15,-12.203 -20.24,-24.578 -32.6,-34.8086 -24.31,-19.6719 -87.29,-32.2539 -77.28,19.3396 7.91,41.903 51.87,70.11 90.55,77.352"
         inkscape:connector-curvature="0"
         id="path122"
         style="fill:none;stroke:#231f20;stroke-width:3.86765003;stroke-linecap:butt;stroke-linejoin:miter;stroke-miterlimit:10;stroke-opacity:1;stroke-dasharray:none" /><path
         d="M 874.09,189.516 C 863.625,163.141 850,105.309 816.074,100.559 c -34.808,-5.352 -55.972,60.804 -65.75,85.089"
         inkscape:connector-curvature="0"
         id="path124"
         style="fill:none;stroke:#231f20;stroke-width:3.86765003;stroke-linecap:butt;stroke-linejoin:miter;stroke-miterlimit:10;stroke-opacity:1;stroke-dasharray:none" /><path
         d="m 943.707,181.781 30.941,-77.355"
         inkscape:connector-curvature="0"
         id="path126"
         style="fill:none;stroke:#231f20;stroke-width:3.86765003;stroke-linecap:butt;stroke-linejoin:miter;stroke-miterlimit:10;stroke-opacity:1;stroke-dasharray:none" /><path
         d="m 2061.46,174.043 38.67,7.738"
         inkscape:connector-curvature="0"
         id="path128"
         style="fill:none;stroke:#231f20;stroke-width:3.86765003;stroke-linecap:butt;stroke-linejoin:miter;stroke-miterlimit:10;stroke-opacity:1;stroke-dasharray:none" /><path
         d="m 3627.86,46.4102 c -19.34,32.7851 -31.76,75.8358 -4.74,109.0198 22.34,27.433 47.28,10.879 39.54,-20.063"
         inkscape:connector-curvature="0"
         id="path130"
         style="fill:none;stroke:#231f20;stroke-width:3.86765003;stroke-linecap:butt;stroke-linejoin:miter;stroke-miterlimit:10;stroke-opacity:1;stroke-dasharray:none" /><path
         d="m 7162.89,177.91 3.87,-3.867"
         inkscape:connector-curvature="0"
         id="path132"
         style="fill:none;stroke:#231f20;stroke-width:3.86765003;stroke-linecap:butt;stroke-linejoin:miter;stroke-miterlimit:10;stroke-opacity:1;stroke-dasharray:none" /><path
         d="m 9920.52,177.91 -11.6,-11.601"
         inkscape:connector-curvature="0"
         id="path134"
         style="fill:none;stroke:#231f20;stroke-width:3.86765003;stroke-linecap:butt;stroke-linejoin:miter;stroke-miterlimit:10;stroke-opacity:1;stroke-dasharray:none" /><path
         d="m 1055.87,174.043 27.07,-19.336"
         inkscape:connector-curvature="0"
         id="path136"
         style="fill:none;stroke:#231f20;stroke-width:3.86765003;stroke-linecap:butt;stroke-linejoin:miter;stroke-miterlimit:10;stroke-opacity:1;stroke-dasharray:none" /><path
         d="m 3376.46,174.043 c -32.94,-69.18 49.15,-65.004 77.35,-107.8594 C 3489.72,11.6016 3401.29,0 3368.72,3.86719"
         inkscape:connector-curvature="0"
         id="path138"
         style="fill:none;stroke:#231f20;stroke-width:3.86765003;stroke-linecap:butt;stroke-linejoin:miter;stroke-miterlimit:10;stroke-opacity:1;stroke-dasharray:none" /><path
         d="m 5155.58,174.043 7.73,-123.7618"
         inkscape:connector-curvature="0"
         id="path140"
         style="fill:none;stroke:#231f20;stroke-width:3.86765003;stroke-linecap:butt;stroke-linejoin:miter;stroke-miterlimit:10;stroke-opacity:1;stroke-dasharray:none" /><path
         d="m 14666.1,174.043 0,-15.469"
         inkscape:connector-curvature="0"
         id="path142"
         style="fill:none;stroke:#231f20;stroke-width:3.86765003;stroke-linecap:butt;stroke-linejoin:miter;stroke-miterlimit:10;stroke-opacity:1;stroke-dasharray:none" /><path
         d="M 3859.91,166.309 C 3828.47,127.031 3814.72,91.2383 3832.84,42.543"
         inkscape:connector-curvature="0"
         id="path144"
         style="fill:none;stroke:#231f20;stroke-width:3.86765003;stroke-linecap:butt;stroke-linejoin:miter;stroke-miterlimit:10;stroke-opacity:1;stroke-dasharray:none" /><path
         d="M 9611.11,166.309 9564.7,119.898"
         inkscape:connector-curvature="0"
         id="path146"
         style="fill:none;stroke:#231f20;stroke-width:3.86765003;stroke-linecap:butt;stroke-linejoin:miter;stroke-miterlimit:10;stroke-opacity:1;stroke-dasharray:none" /><path
         d="m 5271.61,162.441 23.2,-46.41 c 17.24,9.43 37.26,23.856 58.02,23.66 43.67,-0.457 56.39,-63.984 61.88,-97.148"
         inkscape:connector-curvature="0"
         id="path148"
         style="fill:none;stroke:#231f20;stroke-width:3.86765003;stroke-linecap:butt;stroke-linejoin:miter;stroke-miterlimit:10;stroke-opacity:1;stroke-dasharray:none" /><path
         d="m 5553.95,154.707 c 21.39,-13.937 21.69,-27.871 11.6,-50.281 -11.19,17.144 -14.53,29.965 -11.6,50.281"
         inkscape:connector-curvature="0"
         id="path150"
         style="fill:none;stroke:#231f20;stroke-width:3.86765003;stroke-linecap:butt;stroke-linejoin:miter;stroke-miterlimit:10;stroke-opacity:1;stroke-dasharray:none" /><path
         d="m 4208,65.75 c -6.05,40.422 20.04,94.711 69.62,76.062 32.84,-12.347 59.15,-45.7222 85.09,-68.3276"
         inkscape:connector-curvature="0"
         id="path152"
         style="fill:none;stroke:#231f20;stroke-width:3.86765003;stroke-linecap:butt;stroke-linejoin:miter;stroke-miterlimit:10;stroke-opacity:1;stroke-dasharray:none" /><path
         d="m 2200.7,146.973 c 11.6,-27.637 25.23,-61.8832 54.58,-74.8558 52.86,-23.6797 58.05,43.2268 42.1,74.8558"
         inkscape:connector-curvature="0"
         id="path154"
         style="fill:none;stroke:#231f20;stroke-width:3.86765003;stroke-linecap:butt;stroke-linejoin:miter;stroke-miterlimit:10;stroke-opacity:1;stroke-dasharray:none" /><path
         d="m 4003.02,135.367 c -31.66,-84.3592 68.36,-85.0858 100.56,-23.207"
         inkscape:connector-curvature="0"
         id="path156"
         style="fill:none;stroke:#231f20;stroke-width:3.86765003;stroke-linecap:butt;stroke-linejoin:miter;stroke-miterlimit:10;stroke-opacity:1;stroke-dasharray:none" /><path
         d="M 6103.15,135.367 6099.29,65.75"
         inkscape:connector-curvature="0"
         id="path158"
         style="fill:none;stroke:#231f20;stroke-width:3.86765003;stroke-linecap:butt;stroke-linejoin:miter;stroke-miterlimit:10;stroke-opacity:1;stroke-dasharray:none" /><path
         d="m 5294.81,112.16 -3.86,-19.3358"
         inkscape:connector-curvature="0"
         id="path160"
         style="fill:none;stroke:#231f20;stroke-width:3.86765003;stroke-linecap:butt;stroke-linejoin:miter;stroke-miterlimit:10;stroke-opacity:1;stroke-dasharray:none" /><path
         d="m 5565.55,100.559 34.81,-42.5434"
         inkscape:connector-curvature="0"
         id="path162"
         style="fill:none;stroke:#231f20;stroke-width:3.86765003;stroke-linecap:butt;stroke-linejoin:miter;stroke-miterlimit:10;stroke-opacity:1;stroke-dasharray:none" /></g></g></svg>